<svg xmlns="http://www.w3.org/2000/svg" xmlns:xlink="http://www.w3.org/1999/xlink" viewBox="0 0 946.875 652.755"><defs><linearGradient id="a" x1="0.055" y1="1.03" x2="0.953" y2="-0.018" gradientUnits="objectBoundingBox"><stop offset="0" stop-color="#88453d"/><stop offset="0.529" stop-color="#6c3b36"/><stop offset="1" stop-color="#6c3b36"/></linearGradient><linearGradient id="b" x1="-0.038" y1="0.922" x2="1.021" y2="0.09" gradientUnits="objectBoundingBox"><stop offset="0" stop-color="#cd9b8b"/><stop offset="1" stop-color="#c4c4c4"/><stop offset="1" stop-color="#a0796a"/></linearGradient><linearGradient id="c" x1="-0.048" y1="0.844" x2="1.038" y2="0.11" gradientUnits="objectBoundingBox"><stop offset="0" stop-color="#e0b9ac"/><stop offset="0.529" stop-color="#af8e80"/><stop offset="1" stop-color="#af8e80"/></linearGradient><linearGradient id="d" x1="0.813" y1="1.025" x2="0.181" y2="-0.045" gradientUnits="objectBoundingBox"><stop offset="0" stop-color="#282828"/><stop offset="0.212" stop-color="#282828"/><stop offset="0.788" stop-color="#282828"/><stop offset="1" stop-color="#282828"/></linearGradient><linearGradient id="e" x1="0.86" y1="1.021" x2="0.146" y2="-0.044" gradientUnits="objectBoundingBox"><stop offset="0" stop-color="#97ceec"/><stop offset="0.212" stop-color="#97ceec"/><stop offset="0.788" stop-color="#678193"/><stop offset="1" stop-color="#678193"/></linearGradient><linearGradient id="f" x1="0.817" y1="1.05" x2="0.184" y2="-0.045" gradientUnits="objectBoundingBox"><stop offset="0" stop-color="#fefefe"/><stop offset="0.212" stop-color="#fefefe"/><stop offset="0.788" stop-color="#a59e9d"/><stop offset="1" stop-color="#a59e9d"/></linearGradient><linearGradient id="g" x1="1.139" y1="0.849" x2="-0.134" y2="0.101" gradientUnits="objectBoundingBox"><stop offset="0" stop-color="#ba3437"/><stop offset="0.212" stop-color="#ba3437"/><stop offset="0.788" stop-color="#792d2e"/><stop offset="1" stop-color="#792d2e"/></linearGradient><linearGradient id="h" x1="-0.005" y1="0.508" x2="0.997" y2="0.508" gradientUnits="objectBoundingBox"><stop offset="0" stop-color="#fefefe"/><stop offset="0.078" stop-color="#fefefe"/><stop offset="0.639" stop-color="#c6c1bb"/><stop offset="1" stop-color="#c6c1bb"/></linearGradient><linearGradient id="i" x1="-0.015" y1="0.49" x2="0.999" y2="0.49" gradientUnits="objectBoundingBox"><stop offset="0" stop-color="#e0b9ac"/><stop offset="0.078" stop-color="#e0b9ac"/><stop offset="1" stop-color="#d19d87"/><stop offset="1" stop-color="#af8e80"/></linearGradient><linearGradient id="j" x1="-0.066" y1="0.877" x2="1.077" y2="0.138" xlink:href="#e"/><linearGradient id="k" x1="-0.085" y1="0.726" x2="1.13" y2="0.19" xlink:href="#d"/><linearGradient id="l" x1="-0.159" y1="0.765" x2="1.19" y2="0.223" gradientUnits="objectBoundingBox"><stop offset="0" stop-color="#363636"/><stop offset="0.212" stop-color="#363636"/><stop offset="0.788" stop-color="#302f30"/><stop offset="1" stop-color="#302f30"/></linearGradient><linearGradient id="m" x1="-0.053" y1="0.801" x2="1.14" y2="0.19" xlink:href="#f"/><linearGradient id="n" x1="-0.023" y1="0.888" x2="1.069" y2="0.133" xlink:href="#g"/><linearGradient id="o" x1="2.7" y1="0.767" x2="-1.945" y2="0.241" gradientUnits="objectBoundingBox"><stop offset="0" stop-color="#fefefe"/><stop offset="0.212" stop-color="#fefefe"/><stop offset="0.788" stop-color="#c6c1bb"/><stop offset="1" stop-color="#c6c1bb"/></linearGradient><linearGradient id="p" x1="0.956" y1="1.013" x2="0.024" y2="-0.016" gradientUnits="objectBoundingBox"><stop offset="0" stop-color="#cd9b8b"/><stop offset="0.212" stop-color="#cd9b8b"/><stop offset="1" stop-color="#bbb"/><stop offset="1" stop-color="#a0796a"/></linearGradient><linearGradient id="q" x1="0.668" y1="1.21" x2="0.409" y2="-0.282" xlink:href="#o"/><linearGradient id="r" x1="0.627" y1="1.101" x2="0.337" y2="-0.127" gradientUnits="objectBoundingBox"><stop offset="0" stop-color="#cd9b8b"/><stop offset="0.212" stop-color="#cd9b8b"/><stop offset="0.788" stop-color="#a0796a"/><stop offset="1" stop-color="#a0796a"/></linearGradient><linearGradient id="s" x1="0.739" y1="1.011" x2="0.233" y2="-0.042" gradientUnits="objectBoundingBox"><stop offset="0" stop-color="#e0b9ac"/><stop offset="0.212" stop-color="#e0b9ac"/><stop offset="0.788" stop-color="#af8e80"/><stop offset="1" stop-color="#af8e80"/></linearGradient><linearGradient id="t" x1="0.496" y1="1.008" x2="0.448" y2="-0.002" xlink:href="#d"/><linearGradient id="u" x1="0.526" y1="1.014" x2="0.467" y2="0.005" xlink:href="#e"/><linearGradient id="v" x1="0.494" y1="1" x2="0.448" y2="-0.006" xlink:href="#f"/><linearGradient id="w" x1="0.575" y1="1.012" x2="0.525" y2="0.011" xlink:href="#e"/><linearGradient id="x" x1="0.603" y1="1.007" x2="0.537" y2="0.002" xlink:href="#g"/></defs><g transform="translate(-4865.987 -4809)"><g transform="translate(4865.987 4809.467)"><path d="M1924.319,1144c78.448,136.3,33.354,311.444-100.636,391.159-134.134,79.716-306.49,33.894-384.938-102.263a288.749,288.749,0,0,1-31.35-208.453h0a18.607,18.607,0,0,0,.713-3.055c1.575-7.564,2.291-22.547-7.441-32.439-12.311-12.365-18.9-10.91-21.044-19.2-3.721-14.11,19.755-19.638,25.338-.436,5.44,18.765,17.751,6.691,18.181,6.255h0a283.013,283.013,0,0,1,116.383-133.683c134.134-79.716,306.49-33.894,384.938,102.263Z" transform="translate(-1193.791 -969.155)" fill="rgba(36,38,49,0.2)"/><path d="M2061,1619Z" transform="translate(-1792.486 -1495.113)" fill="rgba(36,38,49,0.2)"/><path d="M2063.145,1603c-1.145,1.276-2,2.127-2.147,2.269C2061.712,1604.56,2062.431,1603.707,2063.145,1603Z" transform="translate(-1792.44 -1481.426)" fill="rgba(36,38,49,0.2)"/><path d="M5690.123,1429.825H5560s5.727-36.306,21.759-34.888c4.438.426,7.444,4.822,9.449,9.644a3.443,3.443,0,0,0,6.442-.284c4.293-14.75,13.026-37.3,26.482-37.3,13.886,0,14.459,25.812,13.456,41.554a2.319,2.319,0,0,0,1.594,2.353,2.351,2.351,0,0,0,2.7-.934c3.721-5.389,9.018-10.495,15.6-9.076,5.582,1.276,8.017,6.949,9.018,13.048a1.781,1.781,0,0,0,3.437.284c3.436-8.935,9.448-21.982,15.89-22.268C5695.567,1391.534,5690.123,1429.825,5690.123,1429.825Z" transform="translate(-4744.765 -1281.783)" fill="rgba(36,38,49,0.2)"/><path d="M442.123,3080.825H312s5.726-36.306,21.759-34.888c4.438.426,7.441,4.822,9.448,9.645a3.442,3.442,0,0,0,6.442-.284c4.295-14.75,13.027-37.3,26.483-37.3,13.886,0,14.458,25.812,13.456,41.554a2.318,2.318,0,0,0,1.594,2.352,2.351,2.351,0,0,0,2.7-.934c3.721-5.389,9.018-10.495,15.6-9.076,5.583,1.277,8.016,6.949,9.018,13.047a1.781,1.781,0,0,0,3.436.284c3.436-8.934,9.448-21.982,15.89-22.268C447.566,3042.535,442.123,3080.825,442.123,3080.825Z" transform="translate(-312 -2689.973)" fill="rgba(36,38,49,0.2)"/><path d="M749,980.878s5.01-32.335,19.326-31.059c4.008.284,6.585,4.255,8.446,8.651a3.042,3.042,0,0,0,5.726-.284C786.218,945.138,793.95,925,805.975,925c12.454,0,12.742,22.975,11.882,36.873a2.117,2.117,0,0,0,3.865,1.276c3.293-4.822,8.016-9.36,13.886-8.084,11.309,2.553,8.3,25.67,8.3,25.67H749.143Z" transform="translate(-686.443 -902.469)" fill="rgba(36,38,49,0.2)"/><path d="M5560,3415.878s5.011-32.335,19.326-31.059c4.008.284,6.585,4.255,8.445,8.651a3.042,3.042,0,0,0,5.726-.284c3.721-13.047,11.453-33.186,23.478-33.186,12.455,0,12.742,22.975,11.882,36.874a2.118,2.118,0,0,0,3.866,1.276c3.292-4.822,8.017-9.36,13.886-8.084,11.309,2.553,8.3,25.67,8.3,25.67h-94.769Z" transform="translate(-4744.765 -2982.285)" fill="rgba(36,38,49,0.2)"/><path d="M2314.059,859.193s-41.514,13.047-34.213,29.5c7.441,16.593,24.05-15.175,48.528-16.026s20.615-25.67-14.315-13.615Z" transform="translate(-1975.381 -843.044)" fill="rgba(36,38,49,0.2)"/><path d="M4170.343,814.781a10.074,10.074,0,0,0-8.446-4.964c-6.871-.284-19.9,1.135-19.9,17.3C4141.856,846.974,4178.36,829.247,4170.343,814.781Z" transform="translate(-3552.627 -803.596)" fill="rgba(36,38,49,0.2)"/><path d="M2827.9,768.952a5.2,5.2,0,0,0-3.865-2.695c-3.292-.426-9.448-.142-10.163,7.517-.714,9.5,17.321,2.269,13.885-4.964Z" transform="translate(-2429.331 -766.134)" fill="rgba(36,38,49,0.2)"/><path d="M4867.619,4372.682s35.645-24.818,23.62-38.434-18.323,21.557-41.371,29.783c-23.191,8.083-11.882,30.633,17.894,8.65Z" transform="translate(-4139.517 -3811.231)" fill="rgba(36,38,49,0.2)"/><path d="M4699.945,4757.608a4.779,4.779,0,0,0,4.438,1.419c3.292-.568,9.162-2.7,7.3-10.212C4709.538,4739.6,4694.5,4751.792,4699.945,4757.608Z" transform="translate(-4024.594 -4166.798)" fill="rgba(36,38,49,0.2)"/><path d="M1323.421,2500.433a6.894,6.894,0,0,0-3.292-5.814c-4.008-2.553-12.168-6.24-17.894,3.4C1295.221,2509.8,1323.136,2511.78,1323.421,2500.433Z" transform="translate(-1159.511 -2240.917)" fill="rgba(36,38,49,0.2)"/></g><path d="M9.713,111.28c1.522-7.069,6.612-13.629,5.076-21.205C11.2,68.862.98,40.067.455,24.916-.074,5.221,6.036-.328,10.114.181,13.682.689,27.446,4.238,30,8.28c5.1,8.59,1.558,29.8,1.058,39.391s.545,36.361,3.607,40.4c3.572,5.053,4.595,8.084,6.128,13.136,1.533,4.546.01,10.605-1,19.189-.507,2.525-3.053,5.047-3.567,0-.513-3.535-2.051-12.627-2.051-12.627s4.091,14.649-9.666,17.161c-3.057.5-14.283-13.144-14.283-13.144Z" transform="translate(5494.578 5108.073) rotate(-6.024)" fill="#e0b9ac"/><path d="M9.124,111.1c1.53-7.07,6.628-13.635,5.1-21.209C10.66,68.681.471,39.9-.037,24.752-.543,5.059,5.574-.5,9.651.008c3.568.5,17.329,4.037,19.876,8.076,5.1,8.583,1.524,29.792,1.013,39.386s.5,36.356,3.561,40.4c3.567,5.049,4.586,8.078,6.114,13.128,1.528,4.544,0,10.6-1.022,19.188-.51,2.525-3.059,5.05-3.568,0-.509-3.535-2.037-12.623-2.037-12.623s4.075,14.643-9.687,17.17C20.845,125.234,9.634,111.6,9.634,111.6Z" transform="translate(5222.905 5041.759) rotate(0.974)" fill="#e0b9ac"/><path d="M9.713,111.28c1.522-7.069,6.612-13.629,5.076-21.205C11.2,68.862.98,40.067.455,24.916-.074,5.221,6.036-.328,10.114.181,13.682.689,27.446,4.238,30,8.28c5.1,8.59,1.558,29.8,1.058,39.391s.545,36.361,3.607,40.4c3.572,5.053,4.595,8.084,6.128,13.136,1.533,4.546.01,10.605-1,19.189-.507,2.525-3.053,5.047-3.567,0-.513-3.535-2.051-12.627-2.051-12.627s4.091,14.649-9.666,17.161c-3.057.5-14.283-13.144-14.283-13.144Z" transform="translate(5494.578 5108.073) rotate(-6.024)" fill="#e0b9ac"/><path d="M9.124,111.1c1.53-7.07,6.628-13.635,5.1-21.209C10.66,68.681.471,39.9-.037,24.752-.543,5.059,5.574-.5,9.651.008c3.568.5,17.329,4.037,19.876,8.076,5.1,8.583,1.524,29.792,1.013,39.386s.5,36.356,3.561,40.4c3.567,5.049,4.586,8.078,6.114,13.128,1.528,4.544,0,10.6-1.022,19.188-.51,2.525-3.059,5.05-3.568,0-.509-3.535-2.037-12.623-2.037-12.623s4.075,14.643-9.687,17.17C20.845,125.234,9.634,111.6,9.634,111.6Z" transform="translate(5222.905 5041.759) rotate(0.974)" fill="#e0b9ac"/><path d="M9.713,111.28c1.522-7.069,6.612-13.629,5.076-21.205C11.2,68.862.98,40.067.455,24.916-.074,5.221,6.036-.328,10.114.181,13.682.689,27.446,4.238,30,8.28c5.1,8.59,1.558,29.8,1.058,39.391s.545,36.361,3.607,40.4c3.572,5.053,4.595,8.084,6.128,13.136,1.533,4.546.01,10.605-1,19.189-.507,2.525-3.053,5.047-3.567,0-.513-3.535-2.051-12.627-2.051-12.627s4.091,14.649-9.666,17.161c-3.057.5-14.283-13.144-14.283-13.144Z" transform="translate(5494.578 5108.073) rotate(-6.024)" fill="#e0b9ac"/><path d="M9.713,111.28c1.522-7.069,6.612-13.629,5.076-21.205C11.2,68.862.98,40.067.455,24.916-.074,5.221,6.036-.328,10.114.181,13.682.689,27.446,4.238,30,8.28c5.1,8.59,1.558,29.8,1.058,39.391s.545,36.361,3.607,40.4c3.572,5.053,4.595,8.084,6.128,13.136,1.533,4.546.01,10.605-1,19.189-.507,2.525-3.053,5.047-3.567,0-.513-3.535-2.051-12.627-2.051-12.627s4.091,14.649-9.666,17.161c-3.057.5-14.283-13.144-14.283-13.144Z" transform="translate(5494.578 5108.073) rotate(-6.024)" fill="#e0b9ac"/><path d="M9.124,111.1c1.53-7.07,6.628-13.635,5.1-21.209C10.66,68.681.471,39.9-.037,24.752-.543,5.059,5.574-.5,9.651.008c3.568.5,17.329,4.037,19.876,8.076,5.1,8.583,1.524,29.792,1.013,39.386s.5,36.356,3.561,40.4c3.567,5.049,4.586,8.078,6.114,13.128,1.528,4.544,0,10.6-1.022,19.188-.51,2.525-3.059,5.05-3.568,0-.509-3.535-2.037-12.623-2.037-12.623s4.075,14.643-9.687,17.17C20.845,125.234,9.634,111.6,9.634,111.6Z" transform="translate(5222.905 5041.759) rotate(0.974)" fill="#e0b9ac"/><path d="M9.124,111.1c1.53-7.07,6.628-13.635,5.1-21.209C10.66,68.681.471,39.9-.037,24.752-.543,5.059,5.574-.5,9.651.008c3.568.5,17.329,4.037,19.876,8.076,5.1,8.583,1.524,29.792,1.013,39.386s.5,36.356,3.561,40.4c3.567,5.049,4.586,8.078,6.114,13.128,1.528,4.544,0,10.6-1.022,19.188-.51,2.525-3.059,5.05-3.568,0-.509-3.535-2.037-12.623-2.037-12.623s4.075,14.643-9.687,17.17C20.845,125.234,9.634,111.6,9.634,111.6Z" transform="translate(5222.905 5041.759) rotate(0.974)" fill="#e0b9ac"/><path d="M5.767,71.48c1.522-7.069,6.612-13.629,5.076-21.205C8.791,36.638,3.168,19.462.1,5.319,8.756,1.288,17.417-1.734,17.93,1.8c.517,7.071,4.63,43.939,6.164,48.991,1.533,4.546-3.557,11.107-1,17.674C24.624,72,25.144,82.608,15.964,75.53c1.023,4.041-9.686-3.039-9.686-3.039Z" transform="translate(5503.17 5147.191) rotate(-6.024)" fill="#cd9b8b"/><path d="M5.581,71.206c1.53-7.07,6.628-13.635,5.1-21.209C8.645,36.364,3.041,19.2-.015,5.059c8.665-4.041,17.33-7.072,17.84-3.537.509,7.069,4.58,43.93,6.108,48.979,1.528,4.544-3.57,11.109-1.022,17.673,1.528,3.534,2.036,14.138-7.137,7.07,1.019,4.039-9.684-3.028-9.684-3.028Z" transform="translate(5226.26 5081.714) rotate(0.974)" fill="#cd9b8b"/><path d="M5.767,71.48c1.522-7.069,6.612-13.629,5.076-21.205C8.791,36.638,3.168,19.462.1,5.319,8.756,1.288,17.417-1.734,17.93,1.8c.517,7.071,4.63,43.939,6.164,48.991,1.533,4.546-3.557,11.107-1,17.674C24.624,72,25.144,82.608,15.964,75.53c1.023,4.041-9.686-3.039-9.686-3.039Z" transform="translate(5503.17 5147.191) rotate(-6.024)" fill="#cd9b8b"/><path d="M5.581,71.206c1.53-7.07,6.628-13.635,5.1-21.209C8.645,36.364,3.041,19.2-.015,5.059c8.665-4.041,17.33-7.072,17.84-3.537.509,7.069,4.58,43.93,6.108,48.979,1.528,4.544-3.57,11.109-1.022,17.673,1.528,3.534,2.036,14.138-7.137,7.07,1.019,4.039-9.684-3.028-9.684-3.028Z" transform="translate(5226.26 5081.714) rotate(0.974)" fill="#cd9b8b"/><path d="M5.767,71.48c1.522-7.069,6.612-13.629,5.076-21.205C8.791,36.638,3.168,19.462.1,5.319,8.756,1.288,17.417-1.734,17.93,1.8c.517,7.071,4.63,43.939,6.164,48.991,1.533,4.546-3.557,11.107-1,17.674C24.624,72,25.144,82.608,15.964,75.53c1.023,4.041-9.686-3.039-9.686-3.039Z" transform="translate(5503.17 5147.191) rotate(-6.024)" fill="#cd9b8b"/><path d="M5.581,71.206c1.53-7.07,6.628-13.635,5.1-21.209C8.645,36.364,3.041,19.2-.015,5.059c8.665-4.041,17.33-7.072,17.84-3.537.509,7.069,4.58,43.93,6.108,48.979,1.528,4.544-3.57,11.109-1.022,17.673,1.528,3.534,2.036,14.138-7.137,7.07,1.019,4.039-9.684-3.028-9.684-3.028Z" transform="translate(5226.26 5081.714) rotate(0.974)" fill="#cd9b8b"/><path d="M5.767,71.48c1.522-7.069,6.612-13.629,5.076-21.205C8.791,36.638,3.168,19.462.1,5.319,8.756,1.288,17.417-1.734,17.93,1.8c.517,7.071,4.63,43.939,6.164,48.991,1.533,4.546-3.557,11.107-1,17.674C24.624,72,25.144,82.608,15.964,75.53c1.023,4.041-9.686-3.039-9.686-3.039Z" transform="translate(5503.17 5147.191) rotate(-6.024)" fill="#cd9b8b"/><path d="M5.581,71.206c1.53-7.07,6.628-13.635,5.1-21.209C8.645,36.364,3.041,19.2-.015,5.059c8.665-4.041,17.33-7.072,17.84-3.537.509,7.069,4.58,43.93,6.108,48.979,1.528,4.544-3.57,11.109-1.022,17.673,1.528,3.534,2.036,14.138-7.137,7.07,1.019,4.039-9.684-3.028-9.684-3.028Z" transform="translate(5226.26 5081.714) rotate(0.974)" fill="#cd9b8b"/><path d="M34.53,47.6l1.017,17.168C25.864,59.218,9.552,67.3,9.552,67.3L5.477,55.686a6.111,6.111,0,0,1-2.548-2.524C-3.185,38.519,1.4,21.35,3.955,9.231S27.912.138,35.557.642,38.1,7.711,40.142,15.79c2.038,7.574-1.534,28.277-5.612,32.318Z" transform="translate(5222.655 5037.03) rotate(0.974)" fill="#72b4e2"/><path d="M4303.434,4939.5c-1.019.5-1.529.5-2.039,0-2.039,0-3.567,0-10.194,8.079s-24.464,59.079-33.639,89.376c-4.078,13.129,15.291,65.644,20.388,75.742,1.529,3.03,36.7-20.2,28.033-60.594-2.548-12.119-8.665-11.109-4.077-14.644,4.077-3.029,2.548-33.831,3.567-33.326,2.039,1.515,7.646-21.713,7.646-38.881,0-17.673-9.175-26.257-9.175-26.257Z" transform="translate(1220.793 36.633)" fill="#363636"/><path d="M15.037.789C20.134,1.8,27.276,8.881,27.79,13.427s-4.067,10.1-7.124,11.1S12,21.491,9.449,19.469C7.409,17.447-.751,11.884.266,9.36c1.526-3.029,5.608,2.025,8.156,1.523,2.038-.5,6.116.511,6.116.511s1.524-4.544-.006-6.565S13.507-.222,15.036.284Z" transform="translate(5514.12 5208.501) rotate(-6.024)" fill="#e0b9ac"/><path d="M14.842.524c5.1,1.009,12.231,8.077,12.74,12.622s-4.079,10.1-7.137,11.11S11.78,21.228,9.232,19.208C7.194,17.189-.96,11.636.06,9.111c1.53-3.03,5.606,2.019,8.155,1.514,2.039-.505,6.116.5,6.116.5s1.53-4.545,0-6.564-1.019-5.049.51-4.545Z" transform="translate(5229.677 5143.879) rotate(0.974)" fill="#e0b9ac"/><path d="M15.037.789C20.134,1.8,27.276,8.881,27.79,13.427s-4.067,10.1-7.124,11.1S12,21.491,9.449,19.469C7.409,17.447-.751,11.884.266,9.36c1.526-3.029,5.608,2.025,8.156,1.523,2.038-.5,6.116.511,6.116.511s1.524-4.544-.006-6.565S13.507-.222,15.036.284Z" transform="translate(5514.12 5208.501) rotate(-6.024)" fill="#e0b9ac"/><path d="M14.842.524c5.1,1.009,12.231,8.077,12.74,12.622s-4.079,10.1-7.137,11.11S11.78,21.228,9.232,19.208C7.194,17.189-.96,11.636.06,9.111c1.53-3.03,5.606,2.019,8.155,1.514,2.039-.505,6.116.5,6.116.5s1.53-4.545,0-6.564-1.019-5.049.51-4.545Z" transform="translate(5229.677 5143.879) rotate(0.974)" fill="#e0b9ac"/><path d="M15.037.789C20.134,1.8,27.276,8.881,27.79,13.427s-4.067,10.1-7.124,11.1S12,21.491,9.449,19.469C7.409,17.447-.751,11.884.266,9.36c1.526-3.029,5.608,2.025,8.156,1.523,2.038-.5,6.116.511,6.116.511s1.524-4.544-.006-6.565S13.507-.222,15.036.284Z" transform="translate(5514.12 5208.501) rotate(-6.024)" fill="#e0b9ac"/><path d="M14.842.524c5.1,1.009,12.231,8.077,12.74,12.622s-4.079,10.1-7.137,11.11S11.78,21.228,9.232,19.208C7.194,17.189-.96,11.636.06,9.111c1.53-3.03,5.606,2.019,8.155,1.514,2.039-.505,6.116.5,6.116.5s1.53-4.545,0-6.564-1.019-5.049.51-4.545Z" transform="translate(5229.677 5143.879) rotate(0.974)" fill="#e0b9ac"/><path d="M15.037.789C20.134,1.8,27.276,8.881,27.79,13.427s-4.067,10.1-7.124,11.1S12,21.491,9.449,19.469C7.409,17.447-.751,11.884.266,9.36c1.526-3.029,5.608,2.025,8.156,1.523,2.038-.5,6.116.511,6.116.511s1.524-4.544-.006-6.565S13.507-.222,15.036.284Z" transform="translate(5514.12 5208.501) rotate(-6.024)" fill="#e0b9ac"/><path d="M14.842.524c5.1,1.009,12.231,8.077,12.74,12.622s-4.079,10.1-7.137,11.11S11.78,21.228,9.232,19.208C7.194,17.189-.96,11.636.06,9.111c1.53-3.03,5.606,2.019,8.155,1.514,2.039-.505,6.116.5,6.116.5s1.53-4.545,0-6.564-1.019-5.049.51-4.545Z" transform="translate(5229.677 5143.879) rotate(0.974)" fill="#e0b9ac"/><path d="M3824.058,4781.5c2.549,5.555.51,17.673.51,17.673l-2.039-1.515L3821,4783.525l3.058-2.525Z" transform="translate(1345.517 105.336)" fill="#f89e32"/><path d="M3820.114,4857.751l9.174-2.021s-.51-27.267-7.136-28.782c-7.136-1.515-2.548,30.3-2.548,30.3Z" transform="translate(1346.914 82.615)" fill="#f89e32"/><path d="M3824.685,4816.05c0,2.524-2.039,4.544-5.1,4.544-2.548,0-4.587-2.02-4.587-5.049,0-2.525,2.039-4.545,5.1-4.545C3822.646,4811,3824.685,4813.02,3824.685,4816.05Z" transform="translate(1348.459 90.485)" fill="#f89e32"/><path d="M3614.6,5609.643c1.529-10.1,4.078-35.851,4.078-62.614,0-33.326-4.587-37.871-5.606-52.515s3.567-31.812,3.567-42.415c0-10.1-43.833-10.1-43.833-10.1s1.02,48.98,4.587,62.614c7.645,31.307,16.31,105.029,16.31,105.534-1.529,11.614-7.646,17.673-11.723,20.7-4.587,3.535-21.407,12.119-27.013,16.159s-9.174,9.594,2.548,10.6c11.213,1.01,37.207-8.584,41.794-5.555s11.723,1.515,17.329-3.534c5.606-4.545-2.039-38.376-2.039-38.376Z" transform="translate(1485.512 -214.398)" fill="#cd9b8b"/><path d="M3616.271,5813c2.548,7.069,1.529,17.168-1.019,20.7s-16.31,5.049-19.878,4.04-7.646-3.03-13.762-.5-32.11,7.574-37.717,2.02c-5.1-5.555,8.155-11.109,12.742-14.139s9.684,3.029,15.8,3.029S3616.271,5813,3616.271,5813Z" transform="translate(1488.941 -398.062)" fill="#282828"/><path d="M3722.847,5583.528c-1.529-4.544-5.1-78.267-16.311-115.128-4.587-15.653-5.606-58.069-7.135-70.692-1.019-12.624-47.4,6.06-47.4,6.06,2.548,20.7,14.271,55.544,15.8,66.148,7.646,61.1,27.523,77.257,34.659,121.692,3.058,18.178,11.213,58.069,32.62,40.9C3746.8,5623.419,3729.473,5600.7,3722.847,5583.528Z" transform="translate(1435.372 -190.303)" fill="#e0b9ac"/><path d="M3757,5809.333c8.665,20.7,18.349,20.2,21.917,18.683,5.606-2.524,7.646-12.624,4.587-23.228-.509-2.525,10.194,17.673,9.175,26.762s-3.058,11.614-7.135,12.624c-6.117,1.515-15.8-1.515-20.388-10.6-4.078-9.594-8.155-24.743-8.155-24.743Z" transform="translate(1383.89 -393.889)" fill="#363636"/><path d="M3736.107,4918c5.607,0,13.762,18.178,16.82,31.307s20.9,103.515-1.529,109.574-53.517-18.684-58.614-34.842,6.626-40.4,10.194-39.386c3.058,1.01,23.956,8.584,22.936-6.06s-1.529-35.851-1.02-43.425c1.02-7.574,10.7-16.664,10.7-16.664Z" transform="translate(1415.996 45.009)" fill="#282828"/><path d="M3610.336,4746.785c1.529-2.02-10.194,10.1-12.742,27.267-2.039,14.644-17.839,57.059-33.64,111.089-2.548,8.584,98.37-38.376,99.389-42.416,1.019-4.544-7.135-83.316-7.135-83.316l-45.872-12.119Z" transform="translate(1478.565 129.878)" fill="#88453d"/><path d="M3657.807,4906.089c5.1-3.029,4.077-58.574,4.077-58.574l-20.9-1.515-8.665,28.277-1.02,1.515c-38.737,13.634,19.368,34.842,27.013,30.3Z" transform="translate(1451.992 80.653)" fill="#cd9b8b"/><path d="M3673.905,4656l46.381,63.119-71.866,26.762L3600,4682.257Z" transform="translate(1460.869 174.713)" fill="#282828"/><path d="M3705.736,4886.842c-16.31-2.02-10.7-34.842-10.7-34.842l-18.348,2.525L3667,4918.653c12.232,5.05,46.891-30.3,38.736-31.307Z" transform="translate(1428.017 77.683)" fill="#e0b9ac"/><path d="M3644,4869.337a4.242,4.242,0,0,0,1.02-3.03l-.51,2.525Zm3.059-9.595c2.548-9.594,5.606-22.217,5.606-22.217-.51-2.02.51-2.525,3.058-2.525,5.1,0,16.31,4.04,23.955,8.584l-5.606.5v-2.524l-20.9-1.515Zm35.678-8.584c0-2.02.51-3.534.51-5.049a8.936,8.936,0,0,1,2.548,2.02Z" transform="translate(1439.295 86.099)" fill-rule="evenodd" fill="url(#a)"/><path d="M3654.8,4885.4a30.041,30.041,0,0,1-15.8-9.594c1.02-.5,1.529-.5,2.549-1.01l.51-.5.509-.5.51-2.524c.51-2.02,1.529-4.04,2.039-6.564l6.117-19.693,20.9,1.515v2.525l-8.665,1.01-4.587,29.792-4.078,4.544Z" transform="translate(1441.747 81.148)" fill-rule="evenodd" fill="url(#b)"/><path d="M3678,4885.307l4.587-29.792,8.665-1.01,5.607-.5a21.537,21.537,0,0,1,3.567,2.525c0,1.515-.509,3.03-.509,5.049L3678,4885.812Z" transform="translate(1422.624 76.693)" fill-rule="evenodd" fill="url(#c)"/><path d="M3684.258,4716.913c-25.994-8.587-40.775,10.1-45.362,32.834a39.94,39.94,0,0,1-1.529,7.577c-3.568,18.69,7.906,38.664,21.158,42.2,0,0,15.54,10.335,34.908-27.045,10.7-20.711,17.839-46.473-10.194-56.071Z" transform="translate(1442.87 145.611)" fill="#e0b9ac"/><path d="M3672.44,4734.359c-11.213,5.05-20.388-7.069-34.659,12.119-4.078,5.555-9.685,22.218-9.685,30.8.51,8.584-5.1-1.515-5.1-1.515s6.116-43.426,33.13-55.04c11.723-5.049,28.542-.5,28.542,1.01s-12.232,13.128-12.232,13.128Z" transform="translate(1449.592 143.818)" fill="#88453d"/><path d="M3579.85,4901.983c-10.7,2.02-27.013,5.049-34.149,7.574s-10.194,36.356-12.742,48.98c0,0,3.568,35.347,2.548,45.445-4.078,36.356-17.329,169.663-7.135,223.692,0,0,22.426,3.534,36.7-.5,14.781-4.04,25.994,1.515,33.13,6.059s30.072-1.01,36.188-2.525,31.6-6.059,31.6-6.059-14.271-142.4-19.878-177.742c-7.136-44.436-1.02-64.634,7.135-84.327,7.646-19.693,1.02-47.465,1.02-47.465s-16.31-8.584-19.878-9.089c-2.039-.5-4.078,2.02-8.155,4.545-5.1,3.029-12.742,5.554-25.484,3.534C3586.986,4912.082,3581.379,4901.478,3579.85,4901.983Z" transform="translate(1497.838 52.947)" fill="#282828"/><path d="M3674,4908.179l13.252,17.673,27.523-27.267-10.7-8.584s-4.587,7.574-11.723,11.614c-11.723,7.069-18.349,5.554-18.349,5.554Z" transform="translate(1424.585 58.871)" fill="#fefefe"/><path d="M3647.465,4908.673c1.019,0-20.388,10.1-20.388,10.1l-4.078-20.7,9.684-7.069S3639.31,4908.168,3647.465,4908.673Z" transform="translate(1449.592 58.376)" fill="#fefefe"/><path d="M3589.232,5432.138c-7.646,2.525-16.31,1.515-16.31,1.515,0-108.06-.51-108.06,1.019-117.653Z" transform="translate(1474.185 -152.021)" fill="#363636"/><path d="M3712.611,5276.967c-3.058,5.049,12.233,140.375,12.233,140.375l9.174-1.515S3714.14,5274.442,3712.611,5276.967Z" transform="translate(1405.853 -132.682)" fill="#363636"/><path d="M3748,5299c1.529,7.069,14.271,125.732,14.271,125.732l8.665-2.525Z" transform="translate(1388.302 -143.605)" fill="#363636"/><path d="M3729.227,4765.8c1.529-8.584,3.059-24.742-9.174-39.891-11.213-14.644-21.917-11.614-22.426-9.594-.51,1.515-6.626,12.624-6.626,12.624,4.078,9.089,19.368,18.683,20.388,33.832.51,8.079-6.116,78.771-12.743,83.821,12.233-4.544,19.369-15.148,19.369-15.148l-7.136,14.644s21.917-8.079,25.994-13.129c2.548-3.534-1.529-41.405-7.136-66.653Z" transform="translate(1416.25 145.701)" fill="#88453d"/><path d="M3524.4,4915.5c-27.013,1.01-33.639,54.535-44.343,72.713s-3.058,62.613,8.155,68.673c11.723,6.06,31.6-8.079,37.717-29.287s-13.761-65.643-13.761-68.673S3524.4,4915,3524.4,4915Z" transform="translate(1524.743 46.494)" fill="#363636"/><path d="M3529.209,5010.418c-18.858,14.644-13.761,92.911.51,81.8,14.271-11.613,27.523-52.01,24.975-65.643C3551.636,5012.943,3542.461,5000.319,3529.209,5010.418Z" transform="translate(1501.588 1.066)" fill="#282828"/><path d="M3557,4992.653l87.667,55.544,10.193-15.653L3567.194,4977Z" transform="translate(1481.952 15.801)" fill="#97ceec"/><path d="M3567,4984.574l87.667,55.544,5.1-7.574L3572.1,4977Z" transform="translate(1477.049 15.801)" fill="#fefefe"/><path d="M3651.781,5030.03l-4.587-3.03-4.587,7.574-5.606,8.584,6.116,4.04Z" transform="translate(1442.727 -8.951)" fill="#892f31"/><path d="M3643.825,5051c.509,3.535.509,5.05-3.568,21.713s0,23.732,0,23.732l5.606-1.01s-3.058-22.218-1.02-29.792a46.623,46.623,0,0,0,1.529-14.139l-2.039-.5Z" transform="translate(1442.019 -20.833)" fill="#892f31"/><path d="M3655.039,5050c5.1,3.535,19.368,13.634,18.349,24.238-1.529,10.6-2.548,31.307-2.548,31.307l-7.646-3.03c3.058-18.178,4.587-34.841-1.019-40.4-6.117-6.564-9.175-8.584-9.175-8.584l1.529-3.535Z" transform="translate(1434.882 -20.338)" fill="#ba3437"/><path d="M3720.014,5116.208,3693,5096.515V5095l18.349,11.614,5.1-7.574h0l1.019-1.515Z" transform="translate(1415.27 -42.615)" fill-rule="evenodd" fill="url(#d)"/><path d="M3709.388,5095.723l-18.349-11.614a16.337,16.337,0,0,0-2.039-6.564l1.529-4.545,23.956,15.148Z" transform="translate(1417.231 -31.724)" fill-rule="evenodd" fill="url(#e)"/><path d="M3715.955,5083.188h0L3692,5068.04l1.529-4.04,4.587.5,17.839,10.1,1.02,7.069Z" transform="translate(1415.76 -27.268)" fill-rule="evenodd" fill="url(#f)"/><path d="M3689.568,5090.079l-3.568-2.524,1.529-5.555a16.344,16.344,0,0,1,2.039,6.564Z" transform="translate(1418.702 -36.179)" fill-rule="evenodd" fill="url(#g)"/><path d="M3714.3,5066.867c1.019-3.534-3.059-4.04-4.078-6.564-.51-2.524-6.116-3.534-6.626-5.049-.509-2.02-5.1-3.535-7.136-3.03-1.529.5-3.058-1.515-4.587-.5-1.529.5-5.606,4.04-6.117,8.079-1.019,4.04-2.039,10.6-.509,13.129s2.039-1.01,2.039-2.02c0-1.515,1.529-5.05,2.039-6.564.509-1.01,4.078-6.564,4.078-6.564s-3.568,5.555-3.568,8.079c0,2.02-1.529,7.574-1.019,10.6.51,2.02,1.529,4.04,2.548.5a44.14,44.14,0,0,0,2.548-7.574c.51-1.01,1.02-3.03,1.529-3.535,1.529-2.524,5.607-5.555,5.607-5.555s-5.1,5.05-5.607,7.574c-.509,2.02-3.567,8.584-2.038,10.6,1.019,1.515,2.038,0,3.058-2.02.51-1.515,3.568-6.564,4.078-7.574,1.019-1.01,6.116-3.535,6.116-3.535s-3.567,2.02-5.1,4.544-3.567,5.049-4.077,6.564-.51,3.03,2.548,1.01c2.039-1.515,2.548-2.525,5.1-5.049,2.039-2.02,8.155-3.535,9.174-6.06Z" transform="translate(1419.452 -21.046)" fill="#e0b9ac"/><path d="M3577.8,5017.7c-2.548,2.02-3.568,0-5.606-.5-3.568-.5-5.1-2.524-6.117-3.029-2.039-1.01-4.077-2.525-4.587-4.545,0-.5-3.058-1.515-2.548-4.039,0-2.02,3.058-7.069,7.135-9.089,3.568-2.02,9.175-5.049,10.194-4.544s.51,1.01,0,2.524a44.3,44.3,0,0,1-5.606,4.545c-1.02,1.01-4.078,5.049-4.078,5.049s6.626-6.059,8.665-6.564,4.587-2.525,7.135-3.03c2.039-.5,4.587,0,1.529,2.02-2.039,2.02-5.1,3.535-7.136,5.049-1.02.5-2.039,2.525-2.548,2.525a15.242,15.242,0,0,0-3.058,4.544s4.078-5.555,5.606-6.564c2.039-1.01,7.646-6.564,9.684-4.544.51,1.01,0,2.525-1.529,3.535a43.767,43.767,0,0,0-6.626,7.069,25.275,25.275,0,0,0-2.549,3.534,35.479,35.479,0,0,0,4.587-4.544c2.039-2.02,3.058-4.04,4.587-5.05s3.058-.5,2.039,1.515c-1.529,3.03-1.529,4.04-3.568,7.069a42.992,42.992,0,0,1-5.1,6.564Z" transform="translate(1481.026 8.43)" fill="#cd9b8b"/><path d="M3638,4739.991c1.019-5.049,7.645-27.267,11.723-29.287,6.626-3.534,17.839-6.059,22.426-3.029a92.4,92.4,0,0,1-10.7,26.257s-4.587-4.544-19.368,2.525L3638,4740.5Z" transform="translate(1442.237 149.8)" fill="#282828"/><path d="M3684.51,4734.268c11.723-3.03,35.168,14.139,42.3,30.8a280.974,280.974,0,0,0,4.587-36.356s-15.8-20.2-36.187-21.713c-4.587,12.119-11.213,27.268-11.213,27.268Z" transform="translate(1419.683 149.465)" fill="#363636"/><path d="M4209.83,4919.148c-3.568-8.079-19.878-22.218-23.446-24.238,0,0-5.606-17.168-4.077-41.911l-17.33,18.178h0l-16.82,1.01c2.549,11.109,2.039,18.178,0,23.228-13.762,9.089-17.839,5.554-17.839,5.554-9.684,41.911,83.079,26.762,79.511,18.683Z" transform="translate(1403.541 70.118)" fill="#e0b9ac"/><path d="M4164,4901.356c.51-.5,1.02-1.01,1.02-1.515.51-2.02,1.019-6.06,1.529-10.1a34.416,34.416,0,0,1-1.529,11.109C4164.51,4900.852,4164.51,4901.356,4164,4901.356Zm37.208-8.584a144.937,144.937,0,0,1-2.549-25.753l4.078-2.02-1.529,27.268Zm-24.465-15.653,8.155-3.535-3.568,3.535Z" transform="translate(1385.66 67.712)" fill-rule="evenodd" fill="url(#h)"/><path d="M4168.521,4916.455a3.849,3.849,0,0,1-2.548-.5c-6.117-2.524-6.625-7.574-6.117-10.1a7.04,7.04,0,0,0,2.039-1.515c.51,0,.51-.5,1.02-.5a23.416,23.416,0,0,0,1.529-11.109,73.855,73.855,0,0,0,.51-8.079l9.684-4.544h4.587l3.568-3.535,13.762-6.564a150.448,150.448,0,0,0,2.548,25.752v4.544c-3.568,3.03-20.9,16.664-30.582,16.664Z" transform="translate(1387.765 65.237)" fill-rule="evenodd" fill="url(#i)"/><path d="M4129.388,5471c-2.039,14.139-10.7,25.753,2.038,51.5,3.059,6.564,19.878,87.861,12.743,116.643-2.549,10.6-18.858,30.3-35.168,37.871,9.174,5.554,31.6-5.049,42.3-8.584,8.665-3.03,16.31,1.01,18.349-4.544,4.078-12.119-2.548-16.158-2.548-34.842,0-18.178,19.878-74.228,7.135-102.5-7.645-17.673-9.684-42.92-11.723-48.98s-33.639-6.06-33.639-6.06Z" transform="translate(1412.626 -232.289)" fill="#cd9b8b"/><path d="M4165.191,5819c-8.665,2.525-14.271,12.119-25.994,19.188s-24.975,3.03-24.975,3.03-15.291,2.524-16.82,6.564,0,6.06,2.039,7.574,24.975,1.515,32.11-.5c16.31-5.05,30.582-1.515,31.6-3.535,10.7-22.723,2.548-32.316,2.548-32.316Z" transform="translate(1418.617 -404.567)" fill="#282828"/><path d="M4213.188,5488.33C4196.368,5476.716,4177,5506,4177,5506c3.568,11.614,62.692,129.267,61.672,142.4-.51,13.634-4.078,19.693-18.349,33.832-11.723,11.613,16.31,16.663,28.033,8.584,6.626-4.545,15.8-14.644,16.31-26.257.51-9.594-5.1-18.683-6.116-24.238-3.568-19.187-1.529-83.821-34.659-118.663-3.568-3.535-4.587-28.277-10.7-32.822Z" transform="translate(1380.305 -243.055)" fill="#e0b9ac"/><path d="M4260.6,5832.218c-7.135,9.594-8.664,12.119-5.606,13.634,6.117,2.02,22.937-6.06,29.562-13.634,10.194-12.119,9.175-22.218,9.175-22.218s3.058,4.04,4.587,14.139c1.529,10.6-.51,15.653-.51,15.653s-10.194,2.02-20.9,14.139c-6.625,8.079-29.562,10.1-33.13,5.555-2.039-3.03-5.606-8.584,4.587-15.653a79.372,79.372,0,0,0,12.742-11.614Z" transform="translate(1347.668 -400.112)" fill="#282828"/><path d="M4124.522,4932.04c-5.606,2.525-14.271,5.554-19.369,8.08s-16.819,46.455-18.348,61.1,6.116,52.01,5.1,85.841,1.529,171.178,7.136,178.752c8.154.5,31.6,2.02,56.065,1.515,2.039,0,2.548-3.029,5.1-3.029,12.742-.5,25.994-.5,37.717-1.01a7.291,7.291,0,0,1,3.058,1.01,7.291,7.291,0,0,0,3.059,1.01c12.742-.5,22.936-3.535,27.013-6.06-13.252-69.178-39.755-235.306-35.678-265.6,2.549-19.188-9.174-59.079-9.174-59.079L4164.787,4928s-24.464,20.7-33.639,16.663-5.606-12.624-5.606-12.624Z" transform="translate(1424.628 32.989)" fill="#282828"/><path d="M4266.685,4939.5c1.019.5,1.529.5,2.039,0,2.039,0,3.568,0,10.194,8.079s24.465,59.079,33.64,89.376c4.077,13.129-15.291,65.644-20.388,75.742-1.529,3.03-36.7-20.2-28.033-60.594,2.549-12.119,8.665-11.109,4.078-14.644-4.078-3.029-2.549-33.831-3.568-33.326-2.039,1.515-7.645-21.713-7.645-38.881,0-17.673,9.174-26.257,9.174-26.257Z" transform="translate(1341.08 27.544)" fill="#363636"/><path d="M4173,4937.228l11.723,19.693,28.542-32.822V4914S4181.665,4937.732,4173,4937.228Z" transform="translate(1381.247 43.455)" fill="#fefefe"/><path d="M4153.878,4940.693l-19.878,10.1s7.135-16.158,9.174-21.713c2.039-5.049,7.645-8.079,7.645-8.079s-5.606,18.178,3.059,19.188Z" transform="translate(1400.369 39.989)" fill="#fefefe"/><path d="M4155.058,4725.842,4152,4691l80.53,14.644,3.059,68.168-75.434-15.148Z" transform="translate(1392.563 150.317)" fill="#363636"/><path d="M4184.421,4811.187c-3.436,6.126-3.16,2.6-7.135,6.207-7.493,6.8-19.45,17.1-25.533,14.755-5.606-2.02-23.4-16.417-17.792-42.674,4.587-21.208,17.839-39.386,43.324-29.287C4201.242,4769.781,4195.125,4792,4184.421,4811.187Z" transform="translate(1400.917 121.021)" fill="#e0b9ac"/><path d="M4177.818,4781.226c-8.155-11.614-39.756-8.584-44.853-1.01-1.019-11.614,19.878-24.238,31.6-24.238,20.9-.5,22.427,7.574,20.388,13.633-2.548,8.08-7.645,11.109-7.645,11.109Z" transform="translate(1400.894 121.695)" fill="#b77745"/><path d="M4226.665,4774c7.645,0,23.445,22.723,6.116,48.98-10.7,16.158-10.194,11.108-10.194,11.108l-.51-23.228-4.078-30.3Z" transform="translate(1359.183 112.762)" fill="#cc9161"/><path d="M4217.848,4831.21c1.019-1.515,7.135-1.01,6.626,2.525s-4.078,13.129-9.685,13.634C4210.712,4847.369,4217.848,4831.21,4217.848,4831.21Z" transform="translate(1361.374 84.839)" fill="#e0b9ac"/><path d="M4176.217,4775.763c-3.058,6.059-10.194,7.574-15.291,7.574s-16.31,2.524-16.31,7.574c-1.529-6.06,1.02-12.119,13.251-16.664s18.349,1.01,18.349,1.01Z" transform="translate(1395.359 113.524)" fill="#b77745"/><path d="M4217.971,4868.021c0,15.653-1.019,21.208-8.154,39.386-6.626,16.663,3.058,34.336,6.116,38.376-5.1-17.673,2.038-37.366,6.116-38.376-3.059,7.069-2.549,8.584,0,21.208,2.549-14.139,13.251-31.812,22.426-30.8,9.685,1.01-12.742-41.91-14.271-42.92C4229.184,4853.377,4217.971,4868.021,4217.971,4868.021Z" transform="translate(1365.328 69.236)" fill="#cc9161"/><path d="M4297.548,4840c3.059,5.555,1.02,24.743,1.02,24.743l-2.039-1.01L4295,4841.01Z" transform="translate(1321.428 80.089)" fill="#f89e32"/><path d="M4285,4940.345l13.252,1.01s2.038-38.881-4.587-40.4c-7.136-1.515-8.155,38.881-8.155,38.881Z" transform="translate(1326.332 49.931)" fill="#f89e32"/><path d="M4300.174,4889.545a4.547,4.547,0,1,1-1.338-3.219A4.5,4.5,0,0,1,4300.174,4889.545Z" transform="translate(1323.39 57.811)" fill="#f89e32"/><path d="M4141.428,4753.823c-4.587,2.524,18.858-25.752,18.858-25.752s15.8-5.049,24.465-2.02c-8.155,10.6-25.994,28.782-25.994,28.782s-5.1-7.574-17.329-1.515Z" transform="translate(1397.019 136.978)" fill="#282828"/><path d="M4176,4756.287c12.232-4.04,40.775,10.6,41.285,37.871l10.7-38.376s-5.607-24.743-28.033-28.782c-9.684,8.584-23.446,29.792-23.446,29.792Z" transform="translate(1380.795 132.495)" fill="#282828"/><path d="M4260.658,5013,4226,5100.861l16.31,6.564,34.149-87.861Z" transform="translate(1356.28 -9.09)" fill="#97ceec"/><path d="M4276.659,5020,4242,5107.861l8.155,3.029,34.149-87.86Z" transform="translate(1348.435 -12.555)" fill="#fefefe"/><path d="M4274.839,5105.109l1.529-4.545-7.646-3.029-9.174-3.535-2.549,6.06Z" transform="translate(1341.08 -49.189)" fill="#ba3437"/><path d="M4223.168,5106c-2.548,2.525-.51,1.01-16.311,8.079S4188,5128.723,4188,5128.723l4.587,4.04s12.742-12.624,19.877-16.158a122.079,122.079,0,0,0,14.781-9.089l-4.077-1.01Z" transform="translate(1373.892 -51.595)" fill="#892f31"/><path d="M4250.485,5102.5c0,6.06,2.039,18.684-5.606,31.812-5.607,9.594-12.233,24.238-12.233,24.238L4225,5153c7.645-15.653,19.368-29.287,20.9-36.861a58.514,58.514,0,0,0,1.019-14.139h3.568Z" transform="translate(1356.77 -53.15)" fill="#ba3437"/><path d="M4226,5152.347h0L4239.762,5117l7.135,1.01a25.825,25.825,0,0,1-1.019,5.555c0,.5-.51,1.515-.51,2.02v.5c-2.549,6.059-8.665,14.138-14.271,24.238Z" transform="translate(1355.26 -57.041)" fill-rule="evenodd" fill="url(#j)"/><path d="M4269,5168.525l1.02-2.525c0,.5-.51,1.515-.51,2.02H4269Z" transform="translate(1335.196 -84.833)" fill-rule="evenodd" fill="url(#k)"/><path d="M4270,5159.109a3.016,3.016,0,0,1,.509-2.02l3.567-9.089Z" transform="translate(1334.706 -75.922)" fill-rule="evenodd" fill="url(#l)"/><path d="M4259.02,5147.763a29.713,29.713,0,0,0,2.039-4.04,49,49,0,0,0,6.116-22.723l3.058.5.51,5.05-3.059,8.079-3.568,9.089-1.019,2.525-5.1,2.02Z" transform="translate(1340.59 -62.556)" fill-rule="evenodd" fill="url(#m)"/><path d="M4235.51,5151.317c6.116-9.594,12.232-18.178,14.271-24.238v-.5a3.786,3.786,0,0,0,.509-2.02c.51-2.02.51-4.04,1.02-5.555l4.078.5a48.992,48.992,0,0,1-6.117,22.723c-.509,1.515-1.529,2.525-2.039,4.04L4235,5150.812Z" transform="translate(1351.867 -61.565)" fill-rule="evenodd" fill="url(#n)"/><path d="M4256.536,5144.762c5.1,1.01,5.606-4.04,6.626-6.06a56.342,56.342,0,0,0,2.549-6.564c.509-1.515,1.529-6.565,1.019-8.08s.51-5.049-.51-7.069c-1.019-1.515-4.077-3.029-8.155-3.029s-12.232-.5-13.761,2.02-.51,1.01,1.02,1.515a46.279,46.279,0,0,0,8.155,1.515c1.019.5,6.626,2.525,6.626,2.525s-6.117-1.515-8.155-1.515c-2.038.505-9.174,0-11.723,1.01-2.039.5-4.077,2.02-.509,2.524,2.548.5,6.625.5,9.684,1.01,1.019,0,3.058,1.01,3.568,1.01a56.481,56.481,0,0,1,6.625,3.535s-5.606-4.04-7.645-4.04c-2.548,0-12.742-2.524-14.271,0-1.529,2.02,2.548,2.525,4.587,3.03s7.646,2.02,9.175,2.524,4.586,5.555,4.586,5.555-2.548-3.03-5.1-4.04-6.626-3.029-8.155-3.029-4.078,0-2.039,2.524c2.548,2.525,4.077,3.03,7.645,4.545,3.059,1.515,6.626,8.079,9.175,8.584Z" transform="translate(1350.718 -59.05)" fill="#e0b9ac"/><path d="M4075.549,4722c3.058,5.555,1.02,17.673,1.02,17.673l-2.039-1.01L4073,4724.525l3.058-2.525Z" transform="translate(1321.205 140.02)" fill="#f89e32"/><path d="M4062,4808.346l13.252,1.01s2.039-38.881-4.587-40.4c-7.136-1.515-8.155,38.881-8.155,38.881Z" transform="translate(1326.598 116.793)" fill="#f89e32"/><path d="M4077.175,4757.545a4.548,4.548,0,1,1-1.338-3.219A4.5,4.5,0,0,1,4077.175,4757.545Z" transform="translate(1323.656 124.673)" fill="#f89e32"/><path d="M3916.73,4617l60.653,51-64.221,29.792L3852,4645.277Z" transform="translate(1429.564 192)" fill="#282828"/><path d="M3954.24,4811.347c-1.019,11.614-.51,22.723,3.058,32.822,2.039,5.554-40.775,8.079-43.833-6.059-1.02-4.545-4.078,1.515,2.548-31.307,1.02-4.544,38.227,5.049,38.227,5.049Z" transform="translate(1400.209 98.643)" fill="#cd9b8b"/><path d="M3901.89,4836.389c-1.019-4.544,5.1,4.04,7.136-33.327.51-4.544,40.265,8.584,40.265,8.584-.51,2.525-10.194,0-10.194,2.525-4.077,4.04-6.116,4.544-9.174,6.564s1.529,23.228-5.1,33.327c-14.271,1.01-21.407-11.614-22.426-17.673Z" transform="translate(1405.158 100.362)" fill="#e0b9ac"/><path d="M3995.02,4851.109ZM3994,4840Z" transform="translate(1359.939 81.603)" fill-rule="evenodd" fill="url(#o)"/><path d="M3957.078,4854.317l-4.078-5.554c.51-8.584-.51-16.664,1.529-18.179,3.059-2.02,5.1-2.524,9.175-6.564,0-2.525,8.155-.5,10.194-2.02v9.089c0,4.544,0,8.079,1.019,10.6v.5c-3.568,3.029-10.194,8.584-17.329,12.119Z" transform="translate(1380.042 90.514)" fill-rule="evenodd" fill="url(#p)"/><path d="M3986.135,4815a31.427,31.427,0,0,0-7.135-1.515,11.323,11.323,0,0,1,4.077-.5C3984.607,4812.98,3986.135,4813.486,3986.135,4815Z" transform="translate(1367.294 94.989)" fill-rule="evenodd" fill="url(#q)"/><path d="M3985.175,4817.535c-1.02-.505-4.587-1.515-9.175-3.03a3.088,3.088,0,0,1,2.039-.5c3.058.5,5.606,1.515,7.136,1.515h0Z" transform="translate(1368.765 94.475)" fill-rule="evenodd" fill="url(#r)"/><path d="M3936.839,4845.792,3919,4820.545l16.31,1.515a89.433,89.433,0,0,1,13.252-6.06c4.587,1.515,8.155,2.525,9.174,3.03v.5c-2.039,1.515-9.684,0-10.194,2.02-4.077,4.039-6.116,4.544-9.174,6.564-2.039,1.01-1.02,9.089-1.529,18.178Z" transform="translate(1396.713 93.485)" fill-rule="evenodd" fill="url(#s)"/><path d="M3900.061,4718.333l1.02.505c-4.587-15.148,7.135-28.277,31.6-23.733h.509c22.936,4.544,23.446,18.178,20.9,34.336,4.078,1.01,3.058,6.564,1.019,12.624-1.019,4.544-4.077,8.584-7.645,9.594-6.626,13.634-18.349,23.732-29.562,21.208a17.162,17.162,0,0,1-10.194-6.564l-.509-.5c-1.02-1.01-1.529-2.02-2.548-3.03l-.51-.5-1.529-3.03c-.51-.5-.51-1.515-1.02-2.02l-.509-1.515a50.841,50.841,0,0,1-3.058-12.624c-3.568-1.515-5.607-6.564-5.1-12.624,1.02-6.564,1.529-11.613,6.116-11.108Z" transform="translate(1409.536 153.786)" fill="#e0b9ac"/><path d="M3930.5,4677.634l.51-1.515s2.039-12.119,1.019-12.119c-.51,0-3.058,3.535-5.1,6.564l2.548-4.545-10.193,5.555v-3.534l-3.568,4.039s2.039-4.039-.509-2.524-4.587,5.049-4.587,5.049-2.039,1.515-1.019-1.515c-3.059.5-4.078,8.584-5.1,14.644-.51,1.515-1.02,3.535-1.529,5.555-2.039,8.079-.509,10.6-.509,10.6l3.058,1.515.509-6.059s0-6.06,8.155-10.6,20.9,1.515,20.9,1.515l-5.1-12.119Z" transform="translate(1405.087 168.733)" fill="#3e2d2c"/><path d="M3987.084,4689.812c-1.529-5.049-3.058-7.574-6.116-10.1-1.02-4.04-3.568-10.6-4.587-10.1a12.362,12.362,0,0,0-2.039,5.049c-1.529-4.04-4.587-9.089-5.1-9.089-1.02,0-1.529,4.04-2.039,7.069h0c.51-5.049,1.02-12.624.51-11.108,0,1.515-2.548,6.059-4.078,9.594l-1.019-.5c1.019-3.535,2.039-8.584.51-12.624.509,5.05-5.607,8.079-9.685,12.624l-1.529,1.01c-.51.5-.51,1.01-1.02,2.02v.5s-5.606,6.06-2.039,10.6c1.529,2.02,12.232,3.534,19.368,5.049,4.587,3.03,8.155,7.574,8.665,10.6,1.02,3.534,0,11.613,0,11.613l5.1.505,2.549,2.02s5.606-13.129,2.548-23.733Z" transform="translate(1382.656 171.703)" fill="#653330"/><path d="M3902.51,4689.889c0-5.049,6.116-30.8,9.684-33.326,6.116-4.545,20.388-5.555,24.975-3.535-.509,14.643-6.626,32.822-6.626,32.822s-2.039-5.05-21.917-.5l-6.626,4.544Z" transform="translate(1405.048 174.656)" fill="#282828"/><path d="M3958,4686.822c4.078-1.01,29.052,1.515,33.639,19.693,2.549-16.663,5.1-36.861,5.1-36.861s-18.858-15.148-32.11-15.653C3962.587,4666.624,3958,4686.822,3958,4686.822Z" transform="translate(1377.591 173.683)" fill="#363636"/><path d="M3877.4,5751.168,3841.215,5734s1.019,33.327-1.529,39.891-10.7,16.158-24.465,20.2c-11.213,3.03-4.587,16.158,2.548,17.168,4.077.5,27.013,1.01,35.678-7.069a56.291,56.291,0,0,1,7.646-6.059l9.684,2.02h0c2.549,0,9.174-.5,9.685-4.04,2.548-13.633-1.529-34.336-3.058-44.435Z" transform="translate(1450.542 -360.973)" fill="#282828"/><path d="M3996.545,5768.545c-3.058,11.108-1.02,23.228,2.039,40.4.51,3.535,8.155,4.545,8.155,4.545s1.02,0,4.587,4.544a31.077,31.077,0,0,0,28.033,12.119c10.193-1.515,12.742-6.564,6.626-12.624-8.155-8.584-13.252-19.187-15.8-24.237-4.078-8.584-10.194-29.287-10.194-29.287Z" transform="translate(1359.433 -375.824)" fill="#282828"/><path d="M3841.233,5379.178c2.548,27.267,5.1,139.365,5.1,139.365l47.4,1.01s2.039-112.6,1.529-124.722c-4.587-83.821-13.761-96.95-13.761-96.95s10.7,78.772,13.761,89.881c2.548,10.6,13.252,130.781,13.252,130.781h47.4c-2.039-20.7-3.568-159.059-7.135-195.415-2.549-29.287-10.194-70.693-22.427-115.128l-97.35,3.535s9.174,140.88,12.232,168.148Z" transform="translate(1440.841 -100.576)" fill="#282828"/><path d="M3838.116,5390.534c-2.039-22.218-3.568-120.178-6.116-155.524l15.291-1.01c0,37.871,3.058,152.494,3.567,179.762.51,22.218,6.626,91.9,9.174,115.128L3847.8,5530.4s-7.135-112.6-10.194-139.366Z" transform="translate(1439.37 -113.447)" fill="#363636"/><path d="M3844.9,4858.5s-4.078,3.535-34.149,1.515c-6.626-.505-9.174,26.257-10.194,35.346-1.02,7.069-1.02,26.763-2.039,45.445-.51,10.1-13.762,134.316-11.723,255,0,10.1,83.08,29.287,96.331,7.069,0-36.861-18.349-290.851-20.387-310.543-.51-5.05-17.839-34.337-17.839-34.337Z" transform="translate(1461.639 72.693)" fill="#363636"/><path d="M3929.409,4857s5.1,8.584,36.188,13.634c17.839,2.524,2.039,21.713,3.058,30.8s-6.626,66.148-8.665,76.247,25.485,199.96,29.052,226.722c1.02,6.06-135.067,15.653-134.048,8.079,0-22.723,0-349.929,39.246-337.81,13.252,4.04,35.169-17.168,35.169-17.168Z" transform="translate(1428.098 73.188)" fill="#282828"/><path d="M4062.691,4886c12.232,0,12.232,9.594,14.781,17.673,12.232,36.356,28.543,41.406,34.149,58.574,14.271,41.911-37.717,91.4-49.949,85.337s-10.194-91.4-11.723-100.99C4048.929,4937,4062.691,4886,4062.691,4886Z" transform="translate(1335.083 60.346)" fill="#282828"/><path d="M4101.285,4886c-12.232,0-12.232,9.594-14.781,17.673-12.232,36.356-28.542,41.406-34.149,58.574-14.271,41.911,37.717,91.4,49.95,85.337s10.194-91.4,11.723-100.99C4115.047,4937,4101.285,4886,4101.285,4886Z" transform="translate(1166.375 49.742)" fill="#282828"/><path d="M3966.582,4848c.51,3.535-27.523,21.713-30.581,22.218,3.058,4.545,21.407,16.158,21.407,16.158l16.82-30.8Z" transform="translate(1388.377 77.643)" fill="#72b4e2"/><path d="M3911.975,4870.218s-15.291-18.178-14.781-22.218L3887,4856.079l7.135,24.743Z" transform="translate(1412.403 77.643)" fill="#97ceec"/><path d="M4287.941,5356c-1.529,16.664,25.994,119.673,25.994,119.673l-12.232,2.02L4287.941,5356.5Z" transform="translate(1324.92 -175.358)" fill="#363636"/><path d="M4172,5274c0,16.159,25.484,164.613,25.484,164.613h-13.761Z" transform="translate(1381.737 -134.764)" fill="#363636"/><path d="M4050.7,5040.354c19.368,12.119,18.859,75.742.51,76.752-7.136.505-17.329-17.168-19.878-45.95-2.039-23.228-4.077-26.762,5.1-29.792s14.781-1.01,14.781-1.01Z" transform="translate(1342.49 -17.255)" fill="#363636"/><path d="M4011.157,5037.515c-10.7,4.545-10.7,2.02-35.678-1.515-4.078,12.119,1.02,16.158,1.02,16.158s29.562,23.732,39.756,17.673,9.174-6.059,10.7-13.633c1.02-6.564-15.291-18.179-15.291-18.179Z" transform="translate(1369.796 -15.427)" fill="#e0b9ac"/><path d="M3875,4919.574l40.775,98.465,18.349-7.069L3893.349,4912Z" transform="translate(1418.287 45.96)" fill="#97ceec"/><path d="M3893,4916.04l40.775,98.465,9.174-3.535L3902.175,4912Z" transform="translate(1409.461 45.96)" fill="#fefefe"/><path d="M3932.407,5008.05l-2.039-5.05-8.665,3.03-10.7,4.544,3.058,7.069Z" transform="translate(1400.635 0.91)" fill="#892f31"/><path d="M3905.433,5022.5c0,4.04-.51,6.06-8.155,23.732-7.645,18.179-4.078,26.258-4.078,26.258h6.626s.509-25.248,4.077-33.832a51.9,51.9,0,0,0,4.077-15.653l-2.039-1.01Z" transform="translate(1409.77 -8.496)" fill="#892f31"/><path d="M3930.607,5020.5c4.587,4.545,17.33,15.654,13.762,27.268-3.058,12.119-8.155,34.841-8.155,34.841l-8.155-5.049c6.116-20.2,10.7-38.376,6.116-45.445-5.606-8.584-9.174-9.594-9.174-9.594l5.1-2.525Z" transform="translate(1393.771 -7.506)" fill="#ba3437"/><path d="M4033.208,5040.535c-3.058-3.03-9.175-2.525-13.762-2.525s-7.136,0-9.174.5v-1.01l-11.723-.5c3.058,1.01,2.548,29.792-2.549,32.317,0,0,13.252,2.525,14.781,2.02a2.2,2.2,0,0,0,.51-1.515,51.561,51.561,0,0,0,9.174,4.544c6.116,2.02,12.742-1.515,17.839-8.079s2.039-18.178-5.1-24.742Z" transform="translate(1358.959 -15.922)" fill="#97ceec"/><path d="M3993,5081.693s14.271,5.554,15.8,5.049a2.2,2.2,0,0,0,.51-1.515c2.548,1.515,7.135,4.04,10.7,4.04,9.175,1.01,15.8-2.02,18.858-8.584,1.529-4.04,2.039-12.119-1.02-18.683-11.213,4.04-29.562,3.03-39.755,1.01C3997.587,5067.555,3995.039,5080.683,3993,5081.693Z" transform="translate(1360.43 -28.298)" fill="#72b4e2"/><path d="M3972.588,5063.614,3968,5052l5.1,11.109Z" transform="translate(1372.687 -23.347)" fill-rule="evenodd" fill="url(#t)"/><path d="M3954.02,5103.683h0l-1.02-2.02a159.585,159.585,0,0,1,4.077-16.663l2.549,6.564Z" transform="translate(1380.042 -39.684)" fill-rule="evenodd" fill="url(#u)"/><path d="M3955.7,5062.366l-2.548-6.564c.51-2.02,1.02-3.534,1.529-5.049,2.548-9.089-4.078-17.673-9.684-23.228l3.568-2.525,4.077,3.535,4.587,10.1,4.587,11.614-5.606,12.119Z" transform="translate(1383.964 -9.981)" fill-rule="evenodd" fill="url(#v)"/><path d="M3933.194,5063.792,3923,5038.545l6.625-4.545a43.644,43.644,0,0,1,3.568,5.05C3936.252,5043.594,3935.742,5052.684,3933.194,5063.792Z" transform="translate(1394.751 -14.437)" fill-rule="evenodd" fill="url(#w)"/><path d="M3944.665,5073.94l-5.1-12.624c2.548-11.109,3.058-20.2,0-24.743-1.529-2.02-2.549-3.535-3.568-5.049l4.078-2.525c5.606,5.555,12.232,14.139,9.684,23.228-.51,1.515-1.02,3.03-1.529,5.05-1.529,5.049-2.548,11.108-4.077,16.663Z" transform="translate(1388.377 -11.961)" fill-rule="evenodd" fill="url(#x)"/><path d="M3954.525,5044.175c5.1-3.03,1.019-7.574.51-10.1a26.178,26.178,0,0,0-3.059-7.574c-1.019-1.515-3.567-6.564-5.606-7.574-1.529-1.01-3.568-4.544-5.607-5.049s-5.606.505-9.174,3.535-10.7,8.584-9.684,12.119.51,1.01,2.039.5,6.626-4.04,7.646-5.05c1.529-.5,7.646-3.029,7.646-3.029s-6.116,3.029-7.646,5.049-7.136,7.069-8.665,10.1c-1.02,2.02-1.529,4.544,2.039,2.524a97.744,97.744,0,0,0,8.665-6.564,21.121,21.121,0,0,1,4.078-1.515c3.058-1.01,8.155-2.02,8.155-2.02s-7.645,1.01-9.684,2.524c-2.039,2.02-12.233,8.079-11.723,10.6.51,3.03,4.078.5,6.117-1.01,1.529-1.01,7.645-4.544,9.684-5.049,1.529-.5,8.155,1.01,8.155,1.01s-4.587-.5-7.646.5-8.155,2.524-9.684,4.039c-1.529,1.01-3.567,3.03.51,3.535s5.607-1.01,9.684-2.02,11.723,1.515,14.271,0Z" transform="translate(1395.337 -4.414)" fill="#e0b9ac"/></g></svg>