<svg xmlns="http://www.w3.org/2000/svg" viewBox="0 0 6167.585 5328.866"><g transform="translate(-312 -766.134)"><path d="M5187,1974c548,937,233,2141-703,2689-937,548-2141,233-2689-703-263-450-328-962-219-1433h0c1-2,3-10,5-21,11-52,16-155-52-223-86-85-132-75-147-132-26-97,138-135,177-3,38,129,124,46,127,43h0c160-372,436-699,813-919,937-548,2141-233,2689,703Z" fill="rgba(36,38,49,0.2)"/><path d="M2061,1619Z" fill="rgba(36,38,49,0.2)"/><path d="M2076,1603c-8,9-14,15-15,16C2066,1614,2071,1608,2076,1603Z" fill="rgba(36,38,49,0.2)"/><path d="M6469,1810H5560s40-256,152-246c31,3,52,34,66,68,9,21,38,19,45-2,30-104,91-263,185-263,97,0,101,182,94,293-1,17,21,24,30,10,26-38,63-74,109-64,39,9,56,49,63,92,2,13,20,14,24,2,24-63,66-155,111-157C6507,1540,6469,1810,6469,1810Z" fill="rgba(36,38,49,0.2)"/><path d="M1221,3461H312s40-256,152-246c31,3,52,34,66,68,9,21,38,19,45-2,30-104,91-263,185-263,97,0,101,182,94,293-1,17,21,24,30,10,26-38,63-74,109-64,39,9,56,49,63,92,2,13,20,14,24,2,24-63,66-155,111-157C1259,3191,1221,3461,1221,3461Z" fill="rgba(36,38,49,0.2)"/><path d="M749,1319s35-228,135-219c28,2,46,30,59,61,8,19,34,17,40-2,26-92,80-234,164-234,87,0,89,162,83,260-1,15,18,21,27,9,23-34,56-66,97-57,79,18,58,181,58,181H750Z" fill="rgba(36,38,49,0.2)"/><path d="M5560,3754s35-228,135-219c28,2,46,30,59,61,8,19,34,17,40-2,26-92,80-234,164-234,87,0,89,162,83,260-1,15,18,21,27,9,23-34,56-66,97-57,79,18,58,181,58,181H5561Z" fill="rgba(36,38,49,0.2)"/><path d="M2524,880s-290,92-239,208c52,117,168-107,339-113s144-181-100-96Z" fill="rgba(36,38,49,0.2)"/><path d="M4340,845c-12-21-34-34-59-35-48-2-139,8-139,122C4141,1072,4396,947,4340,845Z" fill="rgba(36,38,49,0.2)"/><path d="M2912,786c-5-10-15-17-27-19-23-3-66-1-71,53-5,67,121,16,97-35Z" fill="rgba(36,38,49,0.2)"/><path d="M5048,4624s249-175,165-271-128,152-289,210c-162,57-83,216,125,61Z" fill="rgba(36,38,49,0.2)"/><path d="M4707,4831c8,9,20,12,31,10,23-4,64-19,51-72C4774,4704,4669,4790,4707,4831Z" fill="rgba(36,38,49,0.2)"/><path d="M1457,2553c0-17-9-32-23-41-28-18-85-44-125,24C1260,2619,1455,2633,1457,2553Z" fill="rgba(36,38,49,0.2)"/><path d="M4284,3236h248c92,0,167-75,167-167V1917c0-92-75-167-167-167H4103c-132,0-240,108-240,240v825C3863,3047,4053,3236,4284,3236Z" fill="#242631"/><path d="M5213,5701c0,211-354,382-791,382s-791-171-791-382,354-382,791-382S5213,5490,5213,5701Z" fill="rgba(36,38,49,0.1)"/><path d="M4080,3495s0,86,9,126-20,213,0,325,56,161,56,226-29,255-18,307-2,112-14,146c-13,34-98,560-93,639,4,78,34,92,22,130-11,38-41,36-23,74s-18,52-6,74c13,22,199,45,246,16s18-74,31-87,16-61,0-78c-16-18-3-47,11-81s-14-69,0-101c14-31,61-356,72-377,11-20,59-83,67-244,5-112,85-276,85-276s-71,373-77,489c-7,115,16,161,9,182-7,20-6,75-3,103,2,28,3,57,1,64s-31,28-28,66,39,57,52,89c12,31,190,12,208-36s-1-61,12-77c13-17-11-35-12-65s18-69,18-97,9-96,20-140,27-201,54-285,37-141,84-259,100-676,63-869c0,0-752-89-846,18Z" fill="#242631"/><path d="M4190,4082l13-3a268.077,268.077,0,0,0-7-27l-4-16-13,3,4,16,6,27Z" fill="#595e6b"/><path d="M4094,5262v-44h-14v44Z" fill="#595e6b"/><path d="M4219,4153c-2-13-5-28-9-44l-13,3c4,16,6,30,8,43l13-2Z" fill="#595e6b"/><path d="M4083,5337l14-1c0-5,0-11-1-16,0-9-1-18-1-28h-14c0,10,1,19,1,28,0,6,0,11,1,16Z" fill="#595e6b"/><path d="M4060,5464c-2,5-5,9-7,14l12,6c2-4,4-9,7-13,5-10,9-18,12-27l-13-5a195.531,195.531,0,0,1-12,26Z" fill="#595e6b"/><path d="M4047,5534a201.555,201.555,0,0,1,7-23l-13-4a217.179,217.179,0,0,0-7,24C4038,5532,4043,5533,4047,5534Z" fill="#595e6b"/><path d="M4167,3673v-7h-14v44h14Z" fill="#595e6b"/><path d="M4165,3860v-44h-14v44Z" fill="#595e6b"/><path d="M4153,3785h14v-44h-14Z" fill="#595e6b"/><path d="M4152,3516v44h14v-44Z" fill="#595e6b"/><path d="M4172,3933c-2-15-4-29-5-43l-14,1c1,14,3,29,5,44l13-2Z" fill="#595e6b"/><path d="M4153,3591v44h14v-44Z" fill="#595e6b"/><path d="M4186,4006c-4-16-7-30-9-43l-13,3c3,13,6,27,9,44l13-3Z" fill="#595e6b"/><path d="M4079,5410l13,3c3-14,4-28,4-45h-14c0,17-1,30-4,43Z" fill="#595e6b"/><path d="M4217,4408h-14v44h14Z" fill="#595e6b"/><path d="M4204,4483v44h14v-44Z" fill="#595e6b"/><path d="M4202,4602l14,1c1-14,2-28,2-44h-14c0,16-1,30-2,44Z" fill="#595e6b"/><path d="M4192,4675l13,3c3-14,5-28,7-44l-14-2c-2,16-4,30-7,43Z" fill="#595e6b"/><path d="M4204,4378h14c0-16,1-30,1-44l-14-1c-1,14-1,28-1,44Z" fill="#595e6b"/><path d="M4210,4185a333.59,333.59,0,0,1,3,43h14a363.915,363.915,0,0,0-3-45Z" fill="#595e6b"/><path d="M4210,4269c-1,10-2,22-3,33l14,1,3-33c0-4,1-8,1-11l-14-1C4211,4262,4210,4265,4210,4269Z" fill="#595e6b"/><path d="M4081,5179v8h14v-8c0-12,1-24,2-36l-14-1C4082,5155,4081,5167,4081,5179Z" fill="#595e6b"/><path d="M4114,4964l13,3c3-14,7-28,11-43l-13-3C4121,4936,4118,4950,4114,4964Z" fill="#595e6b"/><path d="M4173,4747l13,4c5-17,9-31,12-43l-13-3c-3,12-7,25-12,43Z" fill="#595e6b"/><path d="M4087,5112l14,2c2-14,4-29,6-44l-13-2a356.165,356.165,0,0,0-6,44Z" fill="#595e6b"/><path d="M4098,5037l13,3c3-14,6-28,9-43l-13-3c-3,15-6,30-9,44Z" fill="#595e6b"/><path d="M4133,4891l13,4c4-13,7-27,12-43l-13-4C4141,4863,4137,4877,4133,4891Z" fill="#595e6b"/><path d="M4162,4786c-3,11-6,22-10,33l13,4c3-11,6-22,10-33l3-9-13-4Z" fill="#595e6b"/><path d="M4520,4841h-14c0,15,0,29-1,44h14C4519,4870,4519,4855,4520,4841Z" fill="#595e6b"/><path d="M4524,4766l-14-1q-1.5,24-3,45h14A348.585,348.585,0,0,1,4524,4766Z" fill="#595e6b"/><path d="M4580,4292h14c0-14-1-29-1-45l-14,1C4580,4263,4580,4278,4580,4292Z" fill="#595e6b"/><path d="M4518,4990h-14c0,16-1,31-1,44l14,1c1-13,1-28,1-44Z" fill="#595e6b"/><path d="M4533,4693l-13-2a383.85,383.85,0,0,0-6,44l14,2c2-14,4-28,6-44Z" fill="#595e6b"/><path d="M4576,4218l14-1c-1-14-3-29-4-44l-14,2c2,15,3,29,4,44Z" fill="#595e6b"/><path d="M4569,4067c-5-27-10-43-10-44l-13,3s4,16,9,43l13-3Z" fill="#595e6b"/><path d="M4568,4144l13-2c-2-15-4-29-7-44l-13,2c3,14,5,29,7,43Z" fill="#595e6b"/><path d="M4520,4916h-14c0,15,0,30-1,44h14C4519,4945,4519,4931,4520,4916Z" fill="#595e6b"/><path d="M4566,4439l13,2c2-15,5-30,7-44l-13-2C4571,4409,4569,4423,4566,4439Z" fill="#595e6b"/><path d="M4542,4569l-3,17,13,3,3-17c2-9,3-17,5-26l-13-3C4545,4552,4544,4560,4542,4569Z" fill="#595e6b"/><path d="M4553,4513l13,3c3-16,6-30,8-44l-13-2C4559,4483,4556,4497,4553,4513Z" fill="#595e6b"/><path d="M4576,4366l14,1q1.5-21,3-45h-14A314.527,314.527,0,0,1,4576,4366Z" fill="#595e6b"/><path d="M4493,5257v-18a226.021,226.021,0,0,1,1-26l-14-1a243.687,243.687,0,0,0-1,27v18l14-1Z" fill="#595e6b"/><path d="M4505,5148c1-2,1-4,2-7l-13-3c-1,2-1,4-2,6-4,12-6,24-9,38l13,2a321.367,321.367,0,0,1,8-36Z" fill="#595e6b"/><path d="M4516,5066l-14-1c-1,17-2,32-4,44l14,2c2-13,3-27,4-44Z" fill="#595e6b"/><path d="M4525,4660l13,2c2-13,5-27,8-43l-13-3C4530,4632,4527,4647,4525,4660Z" fill="#595e6b"/><path d="M5459,2767c-4,6-7,11-11,15,0,0-59,18-148-20-89-39-269-194-269-194s142-179,211-175a189.4,189.4,0,0,1,31,18c17,11,36,27,47,45,0,0,2-14,7-37h0c8-38,22-99,43-158,25-70,27-143,26-176v-5h0v-8h0v-6h2c12,0,71,3,137,30v16c-1,46-4,176,0,221,5,52-14,338-75,434Z" fill="#f6b385"/><path d="M5459,2767c-4,6-7,11-11,15,0,0-59,18-148-20-89-39-269-194-269-194s142-179,211-175a189.4,189.4,0,0,1,31,18c-1,2-22,72-79,121-57,50-39,85,0,128s171,135,266,107Z" fill="#f09367"/><path d="M5334,2567c0-70-15-111-15-111s2-14,7-37c36,87,22,129,9,148Z" fill="#f09367"/><path d="M5588,1802c-6,26-2,138-17,187s-28,72-28,72l-9,51-2,8s-113-20-134-35c-2-1-3-2-3-4v-1h0v-8h0a51.712,51.712,0,0,0-7-16h0c-5-7-13-15-27-23-39-23-67-41-69-83s-2-70-7-86c-6-16,22-78,29-85,7-6,32,6,26,46s-2,74,6,73,13-23,19-50c6-28,3-58,1-76-2-19-21-129-16-166s5-44,20-45c15-2,27,46,29,76,1,24,7,98,15,99,11,1,5-128,5-154s2-69,29-61c23,7,17,125,19,148,0,0,1,50,7,61s10-8,12-16,3-76,0-102-5-57,10-61,28,12,30,72,5,106,5,124c-1,19,16,15,20-4s6-97,16-104c11-7,31-2,32,32C5601,1704,5593,1776,5588,1802Z" fill="#f6b385"/><path d="M5381,1867s78,26,66,120c0,0,25-19,8-67C5437,1867,5381,1867,5381,1867Z" fill="#f09367"/><path d="M5381,1778s34-25,86-24,103,52,103,52-89-56-189-27Z" fill="#f09367"/><path d="M5438,2088s-14,5-40-2c-1,0-2-1-3-1v-4h0v-8h0a51.712,51.712,0,0,0-7-16,105.228,105.228,0,0,0,9,10c9,9,24,20,42,22Z" fill="#f09367"/><path d="M5258,2355c-69,182-243,237-243,237l-28-36-81-107h0s7,226-4,306,7,218,16,328c8,93-1,203,6,255a90.136,90.136,0,0,0,5,22c16,36,9,103,9,103-31,47-164,63-262,58-99-4-99,9-305,43s-320-96-320-96c11-72,9-119,14-184s-32-150-21-233,0-271,9-323,12-171,12-171c-160,25-340-124-340-124s6-14,16-37c41-97,152-353,185-389,40-45,74-79,131-133,35-33,153-66,237-86,15-3,28-7,40-9,31-7,52-11,52-11l279,78s19,9,46,22c68,33,192,95,219,126,38,43,65,47,112,121,34,53,131,153,183,206,12,12,22,21,28,27l7,7Z" fill="#00af9c"/><path d="M4083,2516l-19,42c-160,25-340-124-340-124s11-26,21-49c49,34,207,132,338,132Z" fill="#242631"/><path d="M5258,2355c-69,182-243,237-243,237l-28-36c39-22,180-109,236-235,12,12,22,21,28,27Z" fill="#242631"/><path d="M4710,1868c32,54,10,125-133,109-209-24-238-159-244-198,31-7,52-11,52-11l279,78S4683,1855,4710,1868Z" fill="#242631"/><path d="M5258,2355c-69,182-243,237-243,237l-109-143h0V2284s66,190,167,209c84,16,156-104,178-145Z" fill="rgba(36,38,49,0.1)"/><path d="M4938,3464c-31,47-164,63-262,58-99-4-99,9-305,43s-320-96-320-96c11-72,9-119,14-184s-32-150-21-233,0-271,9-323,12-171,12-171c-160,25-340-124-340-124s160-381,201-426c40-45,74-79,131-133,35-33,153-66,237-86,0,0-242,161-228,332s180,216,260,333-97,512,0,747,477,254,598,139a90.136,90.136,0,0,0,5,22c16,36,9,103,9,103Z" fill="rgba(36,38,49,0.2)"/><path d="M4385,1768s110,187,81,432c-48,406-414,528-414,528s-37-69,12-171c0,0,178-68,255-304,83-258-47-461-47-461s32-70,114-25Z" fill="#242631"/><path d="M4845,1922s238,264,56,833l-5-177s11-448-184-709C4712,1869,4771,1845,4845,1922Z" fill="#242631"/><path d="M3997,3047l272-669,442,180-271,669Z" fill="#242631"/><path d="M4440,3227l-443-180,272-669,6,26,204,805-26,12h0Z" fill="#242631"/><path d="M4453,3221l-425-172c4-9,2-5,8-20l351-233,92,413Z" fill="#fff"/><path d="M4036,3029l260-639,443,179-260,640Z" fill="#242631"/><path d="M4358,1376l-61-198s-27-101,45-166c95-87,150-89,257-106,101-16,309,20,348,140,27,82-106,140-106,140s-366-25-408,30c-41,55-20,171-20,171s5,34-57-10Z" fill="#242631"/><path d="M4289,1473c33,105,111,80,111,80,18,174-32,254-32,254,95,114,195,116,262,114a223.9,223.9,0,0,0,43-4c8-1,13-9,12-17-14-108,47-212,47-212-343-48-328-296-328-296l-25-18c-58-36-123-7-91,98Z" fill="#f6b385"/><path d="M4458,1586c84,94,210,119,286,102,2,0,4-1,5-1h0a134.258,134.258,0,0,0,30-12c3-2,5-3,8-5,13-10,24-25,34-42,27-47,27-96,23-149l-10-118v-1l4-67,7-124a195.218,195.218,0,0,0-23-17c-181-126-396-12-396-12s-92,303,34,446Z" fill="#f6b385"/><path d="M4744,1687a17.5,17.5,0,0,0,5-1h0c1-1,3-1,5-2l-10,4Z" fill="#f09367"/><path d="M4687,1599Z" fill="#fff"/><path d="M4507,1083s-19,147-82,176c0,0-9,84,10,149l-37,35-14-126c-8-72,11-145,55-202,23-30,48-50,69-32Z" fill="#242631"/><path d="M4435,1554s3,146,135,211c22,11,41,28,52,51,12,24,19,59,8,107a227.232,227.232,0,0,0,44-4c8-1,13-8,12-16-14-108,47-213,47-213S4548,1732,4435,1554Z" fill="#f09367"/><path d="M4325,1414s69-3,45,93C4370,1507,4375,1438,4325,1414Z" fill="#f09367"/><path d="M4368,1478s-10-31-35-18c0,0,5-17,31-13l4,30Z" fill="#f09367"/><path d="M4816,1135s11,49,24,113c0,0,49-45,36-122l-59,9Z" fill="#242631"/><path d="M4676,2802c-14-13-71-35-94-43-8-3-24-5-41-8h0c-30-6-63-13-62-25,2-19,9-39,9-39,24-21,37-40,43-55h0c9-24,2-40-4-49-3-5-10-5-14-1-14,16-49,55-68,68-24,16-72,66-94,96-23,30-73,47-73,47-34-6-82-15-132-27-56-14-151-76-212-76h0c2-2,69-61,82-129-50-8-97-27-143-47-42-19-85-37-125-61-2,4-4,11-7,16-26,59-72,168-93,245-30,109-3,165,32,175s66,17,123,40c54,22,396,9,499,5,6,0,11,0,16-1,59,64,189,85,219,89s48-43,38-49c-5-3-14-4-23-6,11,0,24,0,34-2,22-4,30-41,26-46-3-3-21-8-31-11,6,1,17,1,35-2,30-5,31-37,29-44s-44-16-51-18c7,1,54,10,65,6,12-4,31-35,17-49Z" fill="#f6b385"/><path d="M3874,2513c-42-19-85-37-125-61-2,4-4,11-7,16,39,64,161,91,175,106,16,18,18,52-53,82-38,16-71,57-71,57,78-36,141-24,141-24h0c2-2,69-61,82-129-50-8-97-27-143-47Z" fill="#f09367"/><path d="M4319,2932a97.353,97.353,0,0,0-16,1c-6-17,5-34,5-34C4311,2922,4319,2932,4319,2932Z" fill="#f09367"/><path d="M4541,2751c-4-1-72-13-75-31-3-19,17-34,17-34-9-3-12-15-12-15a69.739,69.739,0,0,0,16,8c15-7,43-47,44-48-6,15-19,34-43,55,0,0-8,20-9,39-1,12,32,20,62,25Z" fill="#f09367"/><path d="M4407,5959a90.16,90.16,0,0,1-10,9c-27,20-81,37-149,23-78-17-138-46-174-125-36-80-40-81-64-116-23-34-41-81-34-140a9.015,9.015,0,0,1,1-5c9-62-5-97,45-125,0,0,4,9-2,23,0,0-7,16,13,36,11,10,21,15,33,17,14,3,29,3,49,7,0,0,1-21,87-19s82,39,92,61c25,59,56,177,95,224a126.043,126.043,0,0,1,30,71h0c3,26-3,48-15,60Z" fill="#00af9c"/><path d="M4407,5959c-21,22-81,48-159,31s-138-46-174-125c-36-80-40-81-64-116-23-34-41-81-34-140,4,28,18,96,49,124,39,35,95,167,150,203,29,19,62,26,88,28,23,2,46-9,58-29l43-8a34.1,34.1,0,0,0,48-9,113.9,113.9,0,0,0,9-19c3,26-3,48-15,60Z" fill="#242631"/><path d="M4396,5968c-27,20-81,37-149,23-78-17-138-46-174-125-36-80-40-81-64-116-23-34-41-81-34-140a9.015,9.015,0,0,1,1-5c9-62-5-97,45-125,0,0,4,9-2,23,0,0-7,16,13,36,11,10,21,15,33,17-10,22-26,74,15,130,54,75,63,163,116,201,54,37,50,70,149,68,20,0,36,5,49,15Z" fill="rgba(36,38,49,0.2)"/><path d="M5060,5495c0,4-1,10-3,19h0c-1,4-2,9-3,14-10,37-36,90-108,98-101,11-268-71-312-68-44,2-208,10-250-31-24-24-15-53-4-82,9-21,19-42,20-60,2-41,43-127,43-127l26,17s-12,24,57,34c59,8,67,4,100-8,13-5,23-10,31-16,14-9,23-19,32-29,15-15,37,31,65,67s160,106,210,125c49,19,95,30,94,48Z" fill="#00af9c"/><path d="M5054,5529c-10,37-36,90-108,98-101,11-268-71-312-68-44,2-208,10-250-31-24-24-15-53-4-82,10,20,33,58,73,66,56,10,164-2,217,20,54,22,247,71,301,67,55-3,81-69,81-69h0Z" fill="#242631"/><path d="M5057,5515c-1,4-2,9-3,14-10,37-36,90-108,98-101,11-268-71-312-68-44,2-208,10-250-31-24-24-15-53-4-82,9-21,19-42,20-60,2-41,43-127,43-127l26,17s-12,24,57,34c59,8,67,4,100-8,13-5,23-10,31-16,0,0,5,25-60,72-65,48-32,94,0,109s85,7,189,49c104,43,234,73,269,0Z" fill="rgba(36,38,49,0.2)"/><path d="M2743,3383H2495c-92,0-167-75-167-167V2064c0-92,75-167,167-167h429c132,0,240,108,240,240v825C3164,3194,2974,3383,2743,3383Z" fill="#242631"/><path d="M3262,5713c0,211-354,382-791,382s-791-171-791-382,354-382,791-382S3262,5502,3262,5713Z" fill="rgba(36,38,49,0.1)"/><path d="M2423,5527c-23,85-166,113-214,124-49,10-108,60-144,86s-121,51-192,35c-36-8-53-37-61-63l-3-12c-3-12-1-24,3-35h0a51.064,51.064,0,0,1,15-21c37-33,110-98,138-110,37-17,117-102,126-142s43-37,43-37c46,9,84,13,114,14,87,3,114-18,114-18s20,55,46,103c5,9,8,17,11,25,12,33,5,52,5,52Z" fill="#dd3641"/><path d="M2423,5527c-23,85-166,113-214,124-49,10-108,60-144,86s-121,51-192,35c-36-8-53-37-61-63,54,83,161,38,216,11,56-27,113-84,163-95s92-20,158-57c41-23,60-65,69-93C2430,5508,2423,5527,2423,5527Z" fill="#242631"/><path d="M2093,3493s-76,436-52,542c24,105,24,239,20,344-4,104-16,181,0,229s14,220,34,290-18,118,0,168,45,91,36,104c-9,14-54,36-29,98,25,61,31,84,31,84s86,56,227,0c0,0,7-52,25-91s5-86-11-186-23-195-20-283c2-88,15-159,15-159s23-72,26-154,9-100,25-141,23-41,32-104c9-64,16-138,34-143s39,9,70,120c32,111,49,324,71,374s9,107,28,154c19,48,35,70,30,88s2,170,1,238,5,107,0,184,29,97,29,112-50,97-11,160c0,0,45,61,52,88,0,0,136,34,163-36,0,0,7-84,29-138,23-54,34-77,32-138s5-147,0-347-34-279-39-333-14-77-16-98c-2-20,14-7,20-57,7-50-7-127,14-186,20-59,20-125,22-154,3-29,32-79,32-166,0-86-27-54,0-154s-14-279-14-279c-331,95-629,59-907-31Z" fill="#242631"/><path d="M2319,4997c2,15,4,30,5,44l10-1c-2-14-3-29-5-44Z" fill="#595e6b"/><path d="M2303,4847c1,14,3,29,4,44l10-1c-2-15-3-30-4-44Z" fill="#595e6b"/><path d="M2298,4773c1,13,2,28,3,44l10-1c-1-16-2-31-3-44h-10Z" fill="#595e6b"/><path d="M2342,5114c0-5-1-9-1-13-1-9-2-20-4-31l-10,1c1,12,3,22,4,31,0,4,1,8,1,12l10-1Z" fill="#595e6b"/><path d="M2310,4922c2,15,3,30,5,44l10-1c-2-14-3-29-5-44Z" fill="#595e6b"/><path d="M2332,5189h10c1-16,1-31,1-44h-10C2333,5158,2333,5173,2332,5189Z" fill="#595e6b"/><path d="M2334,4444h5v-5a161,161,0,0,1,4-37l-10-2a187.107,187.107,0,0,0-4,40v6h5Z" fill="#595e6b"/><path d="M2324,5294c-1,12-2,24-4,37a16.058,16.058,0,0,1,11-5c1-11,2-21,3-31Z" fill="#595e6b"/><path d="M2341,5220l-10-1c-1,14-2,29-3,44l10,1C2339,5248,2340,5234,2341,5220Z" fill="#595e6b"/><path d="M2395,4152l10,3c4-14,8-28,13-42l-10-3c-5,14-9,29-13,43Z" fill="#595e6b"/><path d="M2338,4475l-10-1c-1,12-2,27-5,44l10,1C2335,4502,2337,4487,2338,4475Z" fill="#595e6b"/><path d="M2366,4299l10,3c5-16,9-29,12-43l-10-2Q2373.5,4276.5,2366,4299Z" fill="#595e6b"/><path d="M2383,4219c0,3-1,5-1,8l10,1c0-3,1-5,1-8,1-11,3-23,5-35l-10-2C2386,4195,2384,4208,2383,4219Z" fill="#595e6b"/><path d="M2433,4051c-3,7-8,17-14,30l9,4c5-13,10-23,13-30-3-1-6-3-9-5Z" fill="#595e6b"/><path d="M2354,4332c-5,13-9,25-13,37l10,3c4-12,8-24,13-37l2-5-10-3Z" fill="#595e6b"/><path d="M2307,4742v-7c0-11,0-24,1-37l-10-1c-1,13-1,26-1,37v7h10Z" fill="#595e6b"/><path d="M2325,4578c2-10,3-19,4-28l-10-2c-1,9-3,19-4,28l-3,16,10,2,2-16Z" fill="#595e6b"/><path d="M2317,4624l-10-2c-2,16-4,31-6,44l10,1c1-13,3-27,6-44Z" fill="#595e6b"/><path d="M2423,5527c-23,85-166,113-214,124-49,10-108,60-144,86s-121,51-192,35c-36-8-53-37-61-63l-3-12c-3-12-1-24,3-35-3,46,30,46,93,44,62-1,191-100,238-135s138-34,146-86c9-52-43-116-43-116a9.015,9.015,0,0,1,1-5c87,3,114-18,114-18s20,55,46,103c5,9,8,17,11,25,12,33,5,52,5,52Z" fill="rgba(36,38,49,0.2)"/><path d="M2990,5830c-7,76-40,144-91,166s-123,9-156-24-45-107-41-154c3-34,16-43,21-77a12.133,12.133,0,0,1,1-5c2-13,2-29,1-51q-1.5-18-3-33h0c-6-60-13-80,4-96,0,0,16,21,17,28,0,0,29-45,97-43,66,2,77,34,77,36h0s6-43,8-54c0,0,31,20,35,61,3,42-6,61-2,70,0,1,1,2,1,3,3,7,9,25,16,49h0c1,3,1,5,2,8h0c9,34,17,78,13,117Z" fill="#dd3641"/><path d="M2990,5830c-7,76-40,144-91,166s-123,9-156-24-45-107-41-154c3-34,16-43,21-77-3,20-11,94-6,127,7,39,28,106,72,111l21-15,31,1,20,19s83-10,107-118c18-83,11-133,7-152,9,34,17,78,13,117Z" fill="#242631"/><path d="M2958,5653c0,1,1,2,1,3-9,13-22-12-23-26-1-37-19-54-19-54s6-43,8-54c0,0,31,20,35,61C2963,5625,2954,5644,2958,5653Z" fill="rgba(36,38,49,0.2)"/><path d="M2744,5583s-19,20-21,68c-6-60-13-80,4-96C2727,5555,2743,5576,2744,5583Z" fill="rgba(36,38,49,0.2)"/><path d="M2960,4051c0-12,0-25-1-38l-10,1c1,13,1,25,1,37v7h10Z" fill="#595e6b"/><path d="M2958,4100c0-4,1-7,1-11l-10-1a41.02,41.02,0,0,1-1,11l-3,33,10,1Z" fill="#595e6b"/><path d="M2941,4238l-10-2c-2,13-4,28-7,44l10,2C2937,4266,2939,4252,2941,4238Z" fill="#595e6b"/><path d="M2969,3801c1-3,2-6,2-8l-10-3c-1,3-2,5-2,8a257.985,257.985,0,0,0-9,35l10,2A245.87,245.87,0,0,1,2969,3801Z" fill="#595e6b"/><path d="M2945,3974l1,9,10-1-1-9c-1-12-2-23-3-35l-10,1C2943,3951,2944,3962,2945,3974Z" fill="#595e6b"/><path d="M2961,3606c1,3,2,5,2,8l10-3a56.377,56.377,0,0,0-4-12l-9,6Z" fill="#595e6b"/><path d="M2941,3908h10a300.276,300.276,0,0,1,3-43l-10-1c-2,15-3,30-4,45Z" fill="#595e6b"/><path d="M2924,4341c2-9,3-19,5-29l-10-2c-2,10-3,19-5,29l-3,15,10,2Z" fill="#595e6b"/><path d="M2951,4164l-10-1c-2,14-4,29-6,44l10,1C2947,4193,2949,4178,2951,4164Z" fill="#595e6b"/><path d="M2958,4751l-10,2c4,16,7,30,10,43l10-2C2965,4781,2962,4767,2958,4751Z" fill="#595e6b"/><path d="M2944,4694l-4-16-10,3,4,16c2,9,5,18,7,27l10-3C2949,4712,2946,4703,2944,4694Z" fill="#595e6b"/><path d="M2969,3761l10,2c3-15,4-30,5-45l-10-1c-1,14-3,29-5,43Z" fill="#595e6b"/><path d="M2970,3644c2,14,4,29,4,43h10c-1-15-2-30-5-45l-10,2Z" fill="#595e6b"/><path d="M2916,4386l-10-2c-3,17-5,31-7,44l10,2C2911,4417,2913,4403,2916,4386Z" fill="#595e6b"/><path d="M2903,4483c0-8,0-16,1-23v-1l-10-1v1c-1,7-1,15-1,24a140.839,140.839,0,0,0,1,20l10-1C2904,4495,2903,4489,2903,4483Z" fill="#595e6b"/><path d="M2922,4606l-10,2c3,13,6,27,10,43l10-3c-4-16-7-30-10-43Z" fill="#595e6b"/><path d="M2907,4533l-10,1c2,13,4,28,8,44l10-2C2912,4560,2909,4546,2907,4533Z" fill="#595e6b"/><path d="M2141,2600l-70,252s-80,96-198,23h0c-6-4-13-8-20-13,0,0,41-197,93-310,8-17,16-33,24-45,20,42,89,69,170,93Z" fill="#f6b385"/><path d="M2141,2600l-70,252s-80,96-198,23c104-22,158-218,134-260-18-31-46-47-61-64,8-17,16-33,24-45,20,42,89,69,170,93Z" fill="#f09367"/><path d="M3317,2591c-43,121-308,121-308,121l-23-47-15-31s39,406,34,458,27,200,0,261,0,200,0,200c-29,43-277,170-549,163s-370-181-370-181,9-48,16-104c5-36,9-75,11-109,5-86,36-86,52-138s-20-25-2-170-23-413-23-413c-145,2-204-97-204-97l16-37,159-361c13-28,37-50,67-59l172-51,67-20,334-16s20,5,49,12c33,8,80,20,125,32h0c78,20,153,41,161,47,15,12,43,36,82,121,29,63,53,180,53,180s28,69,43,104c14,34,17,44,36,78l1,1C3320,2570,3317,2591,3317,2591Z" fill="#dd3641"/><path d="M3317,2591c-43,121-308,121-308,121l-23-47c27-1,239-16,315-131,19,35,16,56,16,56Z" fill="#242631"/><path d="M2141,2566v34c-145,2-204-97-204-97l16-37C1981,2496,2056,2566,2141,2566Z" fill="#242631"/><path d="M2801,1971c-2,25-65,149-205,173-124,21-239,22-218-158l40-12,334-16s20,5,49,12Z" fill="#242631"/><path d="M3317,2591c-43,121-308,121-308,121l-38-77s39,406,34,458,27,200,0,261,0,200,0,200c-29,43-277,170-549,163s-370-181-370-181,9-48,16-104c43,21,126,47,275,52,262,9,312-16,410-113s154-401,122-578,7-345,35-272,126,75,194,16-36-243-61-366c-25-121-147-165-151-166,78,20,153,41,161,47,15,12,43,36,82,121,29,63,53,180,53,180s28,69,43,104c14,34,17,44,36,78,20,36,17,58,17,58Z" fill="rgba(36,38,49,0.2)"/><path d="M2852,1425a202,202,0,1,1-202-202A201.441,201.441,0,0,1,2852,1425Z" fill="#242631"/><path d="M2815,1698a96,96,0,1,1-96-96A96.025,96.025,0,0,1,2815,1698Z" fill="#242631"/><path d="M2376,1356a93,93,0,1,1-93-93A92.824,92.824,0,0,1,2376,1356Z" fill="#242631"/><path d="M2410,1478a93,93,0,1,1-93-93A92.824,92.824,0,0,1,2410,1478Z" fill="#242631"/><path d="M2826,1653c-33,106-92,88-92,88-18,176,26,235,26,235-96,115-211,133-279,132a227.232,227.232,0,0,1-44-4c-8-1-14-9-12-17,14-109-48-215-48-215,347-49,332-299,332-299l26-18c59-37,125-7,92,99Z" fill="#f6b385"/><path d="M2656,1767c-85,96-212,121-289,103-2,0-4-1-5-1h0c-11-3-22-7-30-12-3-2-5-3-8-5-13-10-25-25-34-42-27-47-27-97-23-151l10-119v-1l-4-67-7-126c8-6,15-12,23-17,183-127,401-12,401-12s94,307-34,451Z" fill="#f6b385"/><path d="M2367,1870a17.5,17.5,0,0,1-5-1h0c-1-1-3-1-5-2l10,4Z" fill="#f09367"/><path d="M2626,1295s5,69,69,98c0,0,5,128-15,194h42l23-215s-66-123-119-78Z" fill="#242631"/><path d="M2672,1307s-179-34-226-11c-64,32-63-21-158,30,0,0-6,41-20,63l-2-45,64-84,102-38,105-18,105-4,31,107Z" fill="#242631"/><path d="M2679,1734s-3,148-137,214c-23,11-42,29-53,52-12,24-19,59-8,108a248.241,248.241,0,0,1-45-4c-8-1-13-8-12-16,15-109-48-215-48-215s188,43,302-138Z" fill="#f09367"/><path d="M2790,1593s-69-3-46,94C2744,1687,2739,1617,2790,1593Z" fill="#f09367"/><path d="M2747,1658s10-31,36-18c0,0-5-17-31-13l-4,31Z" fill="#f09367"/><path d="M2591,1134a93,93,0,1,1-93-93A92.824,92.824,0,0,1,2591,1134Z" fill="#242631"/><path d="M2719,1169a93,93,0,1,1-93-93A92.824,92.824,0,0,1,2719,1169Z" fill="#242631"/><path d="M2801,1254a93,93,0,1,1-93-93A92.824,92.824,0,0,1,2801,1254Z" fill="#242631"/><path d="M2471,1169c0,76-62,137-137,137-76,0-137-62-137-137,0-76,62-137,137-137C2410,1032,2471,1094,2471,1169Z" fill="#242631"/><path d="M2427,1307a93,93,0,1,1-93-93A92.824,92.824,0,0,1,2427,1307Z" fill="#242631"/><path d="M2498,1278c0,36-30,66-66,66s-66-30-66-66,30-66,66-66S2498,1242,2498,1278Z" fill="#242631"/><path d="M2794,1969s-105,186-71,443c39,298,268,450,268,450s63-98-20-228c0,0-112-120-127-289-15-168,95-339,95-339S2902,1920,2794,1969Z" fill="#242631"/><path d="M2417,1975s-116-20-218,85c-88,91-217,408-38,718l-8-177s-19-149,36-338c54-184,236-246,236-246C2423,2002,2421,1988,2417,1975Z" fill="#242631"/><path d="M3402,2970c-26,70-26,111-68,117-43,7-66-27-114-36-37-7-100-56-196-129-6-5-33-21-52-32-5-3-10-6-13-8a51.953,51.953,0,0,0-5-3l32-128,6-27s17,1,43,5c-6-13-8-24-10-31,36-19,71-39,111-56,13-6,27-11,41-16a439.333,439.333,0,0,1,58-18c18-4,46-14,75-18l8,23,43,122c7,18,14,36,19,50,26,63,48,114,22,184Z" fill="#f6b385"/><path d="M3249,2730c46,60,28,107,28,107-28-69-95-66-136-79s-107-29-107-29c-6-13-8-24-10-31,36-19,71-39,111-56h0c6-3,12-5,17-7,1,0,1-1,2-1,7-3,14-5,21-8a439.333,439.333,0,0,1,58-18c18-4,46-14,75-18l8,23s-142,3-104,68c11,15,23,32,36,49Z" fill="#f09367"/><path d="M3176,2626c-7,3-14,5-21,8C3162,2631,3169,2629,3176,2626Z" fill="#f09367"/><path d="M2971,2890c-5-3-10-6-13-8,0,0,15-15,22-43C2980,2839,2985,2866,2971,2890Z" fill="#f09367"/><path d="M2991,2725l-28,156s-62,0-109-6c-48-6-112-35-114-54-2-17,7-19,8-20h0a56.58,56.58,0,0,1-12-6h0c-10-7-22-19-19-37,3-24,11-27,13-27h1s-4-2-8-8-7-17-2-33c9-30,20-26,20-26a45.306,45.306,0,0,0-1-8c0-13,1-36,17-44,20-11,82-10,109-4,2,0,3,1,4,1,0,0,20-20,24-41,1-8-4-26-8-47-6-33-8-73,33-87,0,0,20-9,19,31-2,40,9,49,16,83s14,55,12,89c-3,34,27,87,27,87Z" fill="#f6b385"/><path d="M2880,2612l-15-5c2,0,3,1,4,1,0,0,20-20,24-41,1-8-4-26-8-47h0s14,26,20,53c4,18-25,38-25,38Z" fill="#f09367"/><path d="M2804,2674c-23-8-64-9-64-9a45.306,45.306,0,0,0-1-8C2783,2655,2802,2673,2804,2674Z" fill="#f09367"/><path d="M2731,2732h0Z" fill="#f09367"/><path d="M2796,2743c-15-8-65-11-65-11s-4-2-8-8c59,1,73,20,73,20Z" fill="#f09367"/><path d="M2788,2813c-15-8-40-11-40-11a56.58,56.58,0,0,1-12-6C2773,2795,2787,2812,2788,2813Z" fill="#f09367"/><path d="M2021,2815l56,149s61-11,107-25,104-55,103-73c-1-17-10-18-12-18h0a64.154,64.154,0,0,0,11-9h0c9-8,18-23,13-40-8-23-15-25-18-24h-1a19.687,19.687,0,0,0,6-9c3-7,4-18-4-32-15-28-24-22-24-22a45.306,45.306,0,0,0-1-8c-2-12-8-35-24-41-22-7-83,5-108,15-2,1-3,1-4,2,0,0-24-16-31-36-3-8,0-27,0-48,0-34-5-73-48-79,0,0-22-5-13,34s0,50-1,85-4,57,4,90c9,33-11,90-11,90Z" fill="#f6b385"/><path d="M2110,2684l14-7c-2,1-3,1-4,2,0,0-24-16-31-36-3-8,0-27,0-48h0s-9,28-10,56C2078,2670,2110,2684,2110,2684Z" fill="#f09367"/><path d="M2196,2731c21-12,61-20,61-20a45.306,45.306,0,0,0-1-8c-43,6-59,27-60,29Z" fill="#f09367"/><path d="M2279,2775h0Z" fill="#f09367"/><path d="M2217,2798c13-11,62-23,62-23a19.687,19.687,0,0,0,6-9C2227,2777,2217,2798,2217,2798Z" fill="#f09367"/><path d="M2237,2866c13-11,37-18,37-18a64.154,64.154,0,0,0,11-9c-36,6-47,25-48,26Z" fill="#f09367"/><path d="M2077,2964a98.723,98.723,0,0,1-9,12c-14,16-44,46-97,64-101,34-145-92-131-149s78-58,83-62c5-3,106-47,106-47l47,182h1Z" fill="#f6b385"/><path d="M2077,2964s0,1-6,8c-12-25-12-55-12-55,10,26,17,45,17,46h0Z" fill="#f09367"/></g></svg>