<svg xmlns="http://www.w3.org/2000/svg" width="388" height="518" viewBox="0 0 388 518"><g transform="translate(-134 -115)"><path d="M454,227.5a9.01,9.01,0,0,0-9,9v500a9.01,9.01,0,0,0,9,9H824a9.01,9.01,0,0,0,9-9v-500a9.01,9.01,0,0,0-9-9Z" transform="translate(-311 -112.5)" fill="#717171"/><path d="M464.93,241.5a9.085,9.085,0,0,0-8.93,9.212V726.288a9.085,9.085,0,0,0,8.93,9.212H812.07a9.085,9.085,0,0,0,8.93-9.212V250.712a9.085,9.085,0,0,0-8.93-9.212Z" transform="translate(-311 -112.5)" fill="#fff"/><path d="M519.25,310.683a4,4,0,0,0-4,4v18.359a4,4,0,0,0,4,4h236a4,4,0,0,0,4-4V314.683a4,4,0,0,0-4-4Z" transform="translate(-311 -112.5)" fill="#646464"/><path d="M517.75,371.439a1,1,0,0,0-1,1v7.167a1,1,0,0,0,1,1h240a1,1,0,0,0,1-1v-7.167a1,1,0,0,0-1-1Z" transform="translate(-311 -112.5)" fill="#ccc"/><path d="M517.75,394.734a1,1,0,0,0-1,1V402.9a1,1,0,0,0,1,1h240a1,1,0,0,0,1-1v-7.167a1,1,0,0,0-1-1Z" transform="translate(-311 -112.5)" fill="#717171"/><path d="M517.75,418.029a1,1,0,0,0-1,1V426.2a1,1,0,0,0,1,1h240a1,1,0,0,0,1-1v-7.167a1,1,0,0,0-1-1Z" transform="translate(-311 -112.5)" fill="#717171"/><path d="M517.25,464.561a1,1,0,0,0-1,1v7.167a1,1,0,0,0,1,1h240a1,1,0,0,0,1-1v-7.167a1,1,0,0,0-1-1Z" transform="translate(-311 -112.5)" fill="#717171"/><path d="M517.25,487.856a1,1,0,0,0-1,1v7.167a1,1,0,0,0,1,1h240a1,1,0,0,0,1-1v-7.167a1,1,0,0,0-1-1Z" transform="translate(-311 -112.5)" fill="#717171"/><path d="M517.25,511.15a1,1,0,0,0-1,1v7.167a1,1,0,0,0,1,1h240a1,1,0,0,0,1-1V512.15a1,1,0,0,0-1-1Z" transform="translate(-311 -112.5)" fill="#717171"/><path d="M517.25,534.561a1,1,0,0,0-1,1v7.167a1,1,0,0,0,1,1h240a1,1,0,0,0,1-1v-7.167a1,1,0,0,0-1-1Z" transform="translate(-311 -112.5)" fill="#717171"/><path d="M517.25,557.855a1,1,0,0,0-1,1v7.167a1,1,0,0,0,1,1h240a1,1,0,0,0,1-1v-7.167a1,1,0,0,0-1-1Z" transform="translate(-311 -112.5)" fill="#717171"/><path d="M517.25,581.15a1,1,0,0,0-1,1v7.167a1,1,0,0,0,1,1h240a1,1,0,0,0,1-1V582.15a1,1,0,0,0-1-1Z" transform="translate(-311 -112.5)" fill="#717171"/><path d="M517.25,604.561a1,1,0,0,0-1,1v7.167a1,1,0,0,0,1,1h240a1,1,0,0,0,1-1v-7.167a1,1,0,0,0-1-1Z" transform="translate(-311 -112.5)" fill="#717171"/><path d="M517.25,627.855a1,1,0,0,0-1,1v7.167a1,1,0,0,0,1,1h240a1,1,0,0,0,1-1v-7.167a1,1,0,0,0-1-1Z" transform="translate(-311 -112.5)" fill="#717171"/><path d="M517.25,651.15a1,1,0,0,0-1,1v7.167a1,1,0,0,0,1,1h240a1,1,0,0,0,1-1V652.15a1,1,0,0,0-1-1Z" transform="translate(-311 -112.5)" fill="#717171"/></g></svg>