<svg xmlns="http://www.w3.org/2000/svg" viewBox="0 0 388 518">
  <g id="document_style" transform="translate(-134 -115)">
    <path id="Path_8" data-name="Path 8" d="M454,227.5a9.01,9.01,0,0,0-9,9v500a9.01,9.01,0,0,0,9,9H824a9.01,9.01,0,0,0,9-9v-500a9.01,9.01,0,0,0-9-9Z" transform="translate(-311 -112.5)" fill="#e6e6e6"/>
    <path id="Path_9" data-name="Path 9" d="M464.93,241.5a9.085,9.085,0,0,0-8.93,9.212V726.288a9.085,9.085,0,0,0,8.93,9.212H812.07a9.085,9.085,0,0,0,8.93-9.212V250.712a9.085,9.085,0,0,0-8.93-9.212Z" transform="translate(-311 -112.5)" fill="#fff"/>
    <path id="Path_10" data-name="Path 10" d="M519.25,310.683a4,4,0,0,0-4,4v18.359a4,4,0,0,0,4,4h236a4,4,0,0,0,4-4V314.683a4,4,0,0,0-4-4Z" transform="translate(-311 -112.5)" fill="#a2a4a8"/>
    <path id="Path_11" data-name="Path 11" d="M517.75,371.439a1,1,0,0,0-1,1v7.167a1,1,0,0,0,1,1h240a1,1,0,0,0,1-1v-7.167a1,1,0,0,0-1-1Z" transform="translate(-311 -112.5)" fill="#ccc"/>
    <path id="Path_12" data-name="Path 12" d="M517.75,394.734a1,1,0,0,0-1,1V402.9a1,1,0,0,0,1,1h240a1,1,0,0,0,1-1v-7.167a1,1,0,0,0-1-1Z" transform="translate(-311 -112.5)" fill="#ccc"/>
    <path id="Path_13" data-name="Path 13" d="M517.75,418.029a1,1,0,0,0-1,1V426.2a1,1,0,0,0,1,1h240a1,1,0,0,0,1-1v-7.167a1,1,0,0,0-1-1Z" transform="translate(-311 -112.5)" fill="#ccc"/>
    <path id="Path_14" data-name="Path 14" d="M517.25,464.561a1,1,0,0,0-1,1v7.167a1,1,0,0,0,1,1h240a1,1,0,0,0,1-1v-7.167a1,1,0,0,0-1-1Z" transform="translate(-311 -112.5)" fill="#ccc"/>
    <path id="Path_15" data-name="Path 15" d="M517.25,487.856a1,1,0,0,0-1,1v7.167a1,1,0,0,0,1,1h240a1,1,0,0,0,1-1v-7.167a1,1,0,0,0-1-1Z" transform="translate(-311 -112.5)" fill="#ccc"/>
    <path id="Path_16" data-name="Path 16" d="M517.25,511.15a1,1,0,0,0-1,1v7.167a1,1,0,0,0,1,1h240a1,1,0,0,0,1-1V512.15a1,1,0,0,0-1-1Z" transform="translate(-311 -112.5)" fill="#ccc"/>
    <path id="Path_17" data-name="Path 17" d="M517.25,534.561a1,1,0,0,0-1,1v7.167a1,1,0,0,0,1,1h240a1,1,0,0,0,1-1v-7.167a1,1,0,0,0-1-1Z" transform="translate(-311 -112.5)" fill="#ccc"/>
    <path id="Path_18" data-name="Path 18" d="M517.25,557.855a1,1,0,0,0-1,1v7.167a1,1,0,0,0,1,1h240a1,1,0,0,0,1-1v-7.167a1,1,0,0,0-1-1Z" transform="translate(-311 -112.5)" fill="#ccc"/>
    <path id="Path_19" data-name="Path 19" d="M517.25,581.15a1,1,0,0,0-1,1v7.167a1,1,0,0,0,1,1h240a1,1,0,0,0,1-1V582.15a1,1,0,0,0-1-1Z" transform="translate(-311 -112.5)" fill="#ccc"/>
    <path id="Path_20" data-name="Path 20" d="M517.25,604.561a1,1,0,0,0-1,1v7.167a1,1,0,0,0,1,1h240a1,1,0,0,0,1-1v-7.167a1,1,0,0,0-1-1Z" transform="translate(-311 -112.5)" fill="#ccc"/>
    <path id="Path_21" data-name="Path 21" d="M517.25,627.855a1,1,0,0,0-1,1v7.167a1,1,0,0,0,1,1h240a1,1,0,0,0,1-1v-7.167a1,1,0,0,0-1-1Z" transform="translate(-311 -112.5)" fill="#ccc"/>
    <path id="Path_22" data-name="Path 22" d="M517.25,651.15a1,1,0,0,0-1,1v7.167a1,1,0,0,0,1,1h240a1,1,0,0,0,1-1V652.15a1,1,0,0,0-1-1Z" transform="translate(-311 -112.5)" fill="#ccc"/>
    <path id="Path_23" data-name="Path 23" d="M0,73Z" transform="translate(432 529)" fill="#6c63ff"/>
  </g>
</svg>
