<svg xmlns="http://www.w3.org/2000/svg" xmlns:xlink="http://www.w3.org/1999/xlink" width="999.998" height="666.665" viewBox="0 0 999.998 666.665"><defs><clipPath id="a"><path d="M0-666.665H1000V0H0Z"/></clipPath></defs><g transform="translate(-549 -246)"><g transform="translate(578.462 188.977)"><g transform="translate(41.931 99.088)"><path d="M1927.576,1130.861c78.917,123.633,33.554,282.495-101.239,354.8-134.937,72.306-308.324,30.743-387.241-92.757-37.874-59.375-47.235-126.931-31.538-189.077h0a15.525,15.525,0,0,0,.72-2.771c1.584-6.861,2.3-20.451-7.489-29.424-12.385-11.215-19.009-9.9-21.169-17.417-3.744-12.8,19.873-17.813,25.49-.4,5.472,17.021,17.857,6.069,18.289,5.674h0c23.042-49.083,62.788-92.23,117.08-121.257,134.937-72.306,308.324-30.743,387.241,92.757Z" transform="translate(-1225.531 -971.489)" fill="rgba(36,38,49,0.2)"/><path d="M2061,1619Z" transform="translate(-1809.128 -1506.469)" fill="rgba(36,38,49,0.2)"/><path d="M2063.16,1603c-1.152,1.188-2.016,1.979-2.16,2.111C2061.72,1604.451,2062.44,1603.66,2063.16,1603Z" transform="translate(-1809.128 -1492.579)" fill="rgba(36,38,49,0.2)"/><path d="M5690.9,1425.452H5560s5.761-33.778,21.89-32.459c4.464.4,7.488,4.486,9.5,8.972a3.567,3.567,0,0,0,6.48-.264c4.32-13.722,13.1-34.7,26.642-34.7,13.969,0,14.544,24.014,13.537,38.66-.144,2.243,3.024,3.167,4.32,1.319,3.744-5.014,9.073-9.764,15.7-8.444,5.617,1.188,8.064,6.465,9.073,12.139a1.83,1.83,0,0,0,3.456.264c3.457-8.313,9.5-20.452,15.985-20.715C5696.377,1389.826,5690.9,1425.452,5690.9,1425.452Z" transform="translate(-4804.24 -1287.719)" fill="rgba(36,38,49,0.2)"/><path d="M442.9,3076.451H312s5.76-33.778,21.889-32.458c4.464.4,7.488,4.486,9.5,8.972a3.567,3.567,0,0,0,6.48-.264c4.32-13.722,13.1-34.7,26.642-34.7,13.969,0,14.545,24.014,13.537,38.66-.144,2.243,3.024,3.167,4.32,1.32,3.744-5.014,9.073-9.764,15.7-8.445,5.616,1.188,8.065,6.465,9.073,12.139a1.83,1.83,0,0,0,3.456.264c3.456-8.312,9.5-20.451,15.985-20.715C448.377,3040.826,442.9,3076.451,442.9,3076.451Z" transform="translate(-312 -2720.877)" fill="rgba(36,38,49,0.2)"/><path d="M749,976.986s5.04-30.083,19.441-28.9c4.032.264,6.624,3.958,8.5,8.049a3.149,3.149,0,0,0,5.76-.264C786.442,943.736,794.219,925,806.316,925c12.529,0,12.817,21.375,11.953,34.306-.144,1.979,2.592,2.771,3.888,1.188,3.312-4.486,8.065-8.708,13.969-7.521,11.377,2.375,8.353,23.882,8.353,23.882H749.144Z" transform="translate(-686.068 -904.038)" fill="rgba(36,38,49,0.2)"/><path d="M5560,3411.986s5.041-30.083,19.441-28.9c4.032.264,6.625,3.958,8.5,8.049a3.149,3.149,0,0,0,5.76-.264c3.744-12.139,11.521-30.875,23.618-30.875,12.529,0,12.817,21.375,11.953,34.306-.144,1.979,2.592,2.771,3.888,1.188,3.313-4.486,8.064-8.708,13.969-7.521,11.376,2.375,8.353,23.882,8.353,23.882h-95.334Z" transform="translate(-4804.24 -3017.752)" fill="rgba(36,38,49,0.2)"/><path d="M2314.268,858.953s-41.763,12.139-34.418,27.445c7.489,15.438,24.193-14.118,48.819-14.91s20.737-23.882-14.4-12.667Z" transform="translate(-1995.72 -843.929)" fill="rgba(36,38,49,0.2)"/><path d="M4170.511,814.433a10.3,10.3,0,0,0-8.5-4.618c-6.913-.264-20.018,1.056-20.018,16.1C4141.854,844.385,4178.576,827.892,4170.511,814.433Z" transform="translate(-3590.442 -804.027)" fill="rgba(36,38,49,0.2)"/><path d="M2827.989,768.755a5.237,5.237,0,0,0-3.888-2.507c-3.312-.4-9.5-.132-10.225,6.993-.72,8.84,17.425,2.111,13.969-4.618Z" transform="translate(-2453.565 -766.134)" fill="rgba(36,38,49,0.2)"/><path d="M4867.8,4369.791s35.858-23.091,23.762-35.757-18.433,20.056-41.619,27.708c-23.33,7.521-11.953,28.5,18,8.049Z" transform="translate(-4185.771 -3860.764)" fill="rgba(36,38,49,0.2)"/><path d="M4699.951,4756.762a5.055,5.055,0,0,0,4.464,1.319c3.313-.528,9.217-2.507,7.345-9.5C4709.6,4740,4694.479,4751.352,4699.951,4756.762Z" transform="translate(-4067.031 -4220.422)" fill="rgba(36,38,49,0.2)"/><path d="M1323.555,2499.828a6.331,6.331,0,0,0-3.312-5.41c-4.032-2.375-12.241-5.805-18,3.167C1295.185,2508.537,1323.267,2510.384,1323.555,2499.828Z" transform="translate(-1158.664 -2264.06)" fill="rgba(36,38,49,0.2)"/></g></g><g transform="translate(549 912.665)"><g clip-path="url(#a)"><g transform="translate(287.448 -316.774)"><path d="M0,0A61.555,61.555,0,0,1-61.555,61.556,61.556,61.556,0,0,1-123.11,0,61.555,61.555,0,0,1-61.555-61.555,61.554,61.554,0,0,1,0,0" fill="#9ce5de"/></g><g transform="translate(261.682 -356.274)"><path d="M0,0A36.28,36.28,0,0,0-13.48-12.848c-6.115-3.129-11.513-1.88-18.145-2.493l-2.555.175c-4.124.024-7.683,2.637-11.432,4.363-3.727,1.716-6.715,5.085-8.791,8.631-4.733,8.084-6.812,16.7-4.247,25.972,1.488,5.375,5.06,7.637,9.161,11.021-5.8,4.324,1.209,10.517,5.777,12.211-1.032,2.717-10.175,5.372-12.656,6.988-5.461,3.556-6.664,9.216-4.968,15.3,2.287,8.2,9.743,13.395,15.768,18.827,4.431,4,14.208,13.663,19.692,7.776,2.848-3.059,3.332-8.191,2.607-12.263-.237-1.335-1.325-3.268-1.249-4.605.139-2.436,2.5-2.675,4.34-4.32,4.372-3.921,5.532-9.052,4.072-14.649-1.38-5.291-4.784-7.7-9.089-10.52C-10.628,49,.023,38.1,3.565,24.785A30.133,30.133,0,0,0,0,0" fill="#00998f"/></g><g transform="translate(303.54 -312.978)"><path d="M0,0C0,37.308-29.475,67.536-65.833,67.536a64.738,64.738,0,0,1-14.915-1.731V64.059q1.6.086,3.236.085A65.82,65.82,0,0,0-11.695-1.689a65.819,65.819,0,0,0-44.531-62.3l.993-2.653C-23.912-61.447,0-33.589,0,0" fill="#fcf17b"/></g><g transform="translate(222.939 -127.185)"><path d="M0,0H-.295A2.289,2.289,0,0,1-2.583-2.288V-113.049a2.288,2.288,0,0,1,2.288-2.288H0a2.288,2.288,0,0,1,2.288,2.288V-2.288A2.288,2.288,0,0,1,0,0" fill="#e6e6e6"/></g><g transform="translate(260.304 -111.989)"><path d="M0,0H-75.024A3.74,3.74,0,0,1-78.18-5.78c5.593-8.233,21.691-14.173,40.668-14.173S-2.437-14.013,3.156-5.78A3.74,3.74,0,0,1,0,0" fill="#ccc"/></g><g transform="translate(94.319 -489.788)"><path d="M0,0S30.8-23.267,65.368-20.829s46.755,20.608,46.311,33.46,14.847,47.641,20.387,54.953-5.319,22.823-5.319,22.823-6.2,27.7-51.629,36.119c-33.633,6.235-46.008,2.387-50.167-.031a7.239,7.239,0,0,0-4.849-.856c-5.951.988-19.285,1.328-24.48-13.847a7.438,7.438,0,0,0-5.932-4.851c-10.224-1.619-32.708-8.061-24.921-33.153C-25.26,41.659-7.091,4.211,0,0" fill="#ff6c55"/></g><g transform="translate(159.117 -358.148)"><path d="M0,0A78.992,78.992,0,0,1-10.175-.34c-.952-5.265-2.172-10.176-3.307-14.177a.668.668,0,0,0-.2-.327,10,10,0,0,0,1.447-1.489c.057,0,.115.013.171.013a.712.712,0,0,0,.7-.54,4.477,4.477,0,0,0-.327-2.993,99.237,99.237,0,0,1-5.477-16.263.694.694,0,0,0-.809-.54c-.085-.425-.171-.837-.256-1.249L-6.741-34.3-8.557-16.845S-6.727-5.62,0,0" fill="#e55041"/></g><g transform="translate(181.737 -360.504)"><path d="M0,0C-2.555.425-4.967.78-7.251,1.079c2.44-6.755-2.471-18.845-2.471-18.845l.284-2.839,1.164-11.708s22.919-2.54,33.832-14.915a13.564,13.564,0,0,0,2.852-7.081C29.532-32.228,25.687-4.228,0,0" fill="#e55041"/></g><g transform="translate(199.079 -461.303)"><path d="M0,0C-.852-1.873-1.717-3.689-2.6-5.42-3.052-6.3-3.491-7.167-3.945-8c-3.193-5.973-6.443-10.856-9.295-13.708C-25.615-34.087-48.52-32.995-48.52-32.995s16.931-11.523,27.759-4.4C-14.432-33.236-5.96-14.688,0,0" fill="#e55041"/></g><g transform="translate(219.273 -387.836)"><path d="M0,0A1.409,1.409,0,0,0-.369.113S-7.933.4-7.223,9.963a37.142,37.142,0,0,0,1.333,7.067c-1.689.951-3.477,1.959-5.308,2.98-.2-10.6-4.129-16.092-7.493-18.845C-12.673-.056-6.684-.767-1.845-.355A9.884,9.884,0,0,1,0,0" fill="#f7c884"/></g><g transform="translate(208.076 -367.827)"><path d="M0,0C-9.833,5.492-20.691,11.439-20.691,11.439L-36.059-10.444l.013-.015A200.833,200.833,0,0,1-7.493-18.845C-4.129-16.093-.2-10.6,0,0" fill="#ffb46a"/></g><g transform="translate(148.942 -358.489)"><path d="M0,0C-.951-5.265-2.171-10.175-3.307-14.177a.656.656,0,0,0-.425-.455.7.7,0,0,0-.625.044,3.082,3.082,0,0,1-.312.141,15.949,15.949,0,0,1-9.1.44.877.877,0,0,0-.427.028c-.3.113-.595.228-.879.34-.384.157-.739.3-1.079.455-8.671,3.932-15.7,33.136-18.179,48.023a.645.645,0,0,0,.156.568.694.694,0,0,0,.525.255c10.459.185,17.057,2.768,20.052,4.287a.738.738,0,0,0,.667-.015.759.759,0,0,0,.369-.553c.355-3.448.851-6.272,1.233-8.145A47.222,47.222,0,0,0-3.732,44.928a.7.7,0,0,0,.553.269h.071a.718.718,0,0,0,.568-.4,33.266,33.266,0,0,0,2.1-6.669A97.823,97.823,0,0,0,1.7,17.625,92.723,92.723,0,0,0,0,0" fill="#ffb46a"/></g><g transform="translate(219.741 -240.505)"><path d="M0,0S-.455,4.655-10.2,3.548c0,0-1.519,2.3-5.761,3.775-4.8,1.66-13.069,2.271-26.58-2.668,0,0-23.9,11.509-42.219-7.621-.184-.183-.369-.383-.553-.58,0,0-16.617.439-25.927-11.964,0,0,8.968-15.228,17.683-28.14l10.032-13.639c.3-.341.583-.681.865-.993,4-4.371,6.8-10.061,8.685-15.212,0,0,3.96-8.047,4.173-26.879.127-11.127-2.668-23.416-4.981-31.589a3.834,3.834,0,0,0,2.1-2.711c8.7-1.944,17.284-3.151,17.284-3.151l7.679.057,15.368,21.883.015.013c.369.384,7.237,7.649,5.08,20.365-2.213,13.069-2.213,19.937,2,28.581S-2.668-23.485,0,0" fill="#70bee1"/></g><g transform="translate(136.212 -297.794)"><path d="M0,0-10.032,13.639C-13.879,8.132-23.188-6.613-21.953-18.279c.227-2.1.581-4.64,1.051-7.465,10.472.185,17.143,2.725,20.364,4.357v.015A83.772,83.772,0,0,0,0,0" fill="#fed798"/></g><g transform="translate(137.532 -329.312)"><path d="M0,0A.739.739,0,0,1-.243-.043.708.708,0,0,1-.667-.952c.044-.121,4.385-12.123,4.385-16.38a.709.709,0,0,1,.709-.709.709.709,0,0,1,.709.709C5.137-12.827.849-.971.667-.468A.708.708,0,0,1,0,0" fill="#f29e53"/></g><g transform="translate(187.386 -355.679)"><path d="M0,0H-.007a.711.711,0,0,1-.7-.717c0-.116.111-11.608-1-16.033a.708.708,0,0,1,.516-.86.713.713,0,0,1,.861.516C.821-12.493.715-1.181.709-.7A.71.71,0,0,1,0,0" fill="#f29e53"/></g><g transform="translate(230.455 -329.227)"><path d="M0,0C-10.7,0-12.7-10.275-12.7-10.275s-3.561,0-4.129-5.137,5.705-10.983,5.705-10.983A88.645,88.645,0,0,1-17.072-41.58a37.142,37.142,0,0,1-1.333-7.067c-.709-9.565,6.853-9.849,6.853-9.849a1.409,1.409,0,0,1,.369-.113c.865-.169,3.563-.2,10.757,2.54,9.423,3.563,2.995,28.4,2.995,28.4S10.7,0,0,0" fill="#fed798"/></g><g transform="translate(222.792 -238.361)"><path d="M0,0A2.129,2.129,0,0,1-2.128-2.129V-13.211A2.129,2.129,0,0,1,0-15.34a2.13,2.13,0,0,1,2.129,2.129V-2.129A2.13,2.13,0,0,1,0,0" fill="#ccba32"/></g><g transform="translate(166.893 -161.644)"><path d="M0,0C0-9.365.141-17.3.184-19.783v-.383A4.122,4.122,0,0,0,.2-20.591C-.284-16.391-.256-8.615,0,0" fill="#132143"/></g><g transform="translate(173.918 -234.587)"><path d="M0,0C-1.023,7.564-2.668,19.853-4.116,30.965c-.056-.029-.085-.043-.085-.043-9.763,4.215-21.981,2.895-29.4,1.433l-5.336-41.24C-24.736,5.961-7.167,2.356,0,0" fill="#fed798"/></g><g transform="translate(153.242 -108.13)"><path d="M0,0,1.092-11.949s-17.1-49.668-12.488-70.3L-12.928-94.1c7.421,1.463,19.64,2.781,29.4-1.432,0,0,.029.012.085.041-1.177,8.884-2.213,17-2.709,21.387-.483,4.2-.455,11.976-.2,20.591v.029c0,15.851.355,35.761,2.1,40.188L26.792-3.86,31.76,0Z" fill="#132143"/></g><g transform="translate(203.776 -233.182)"><path d="M0,0-5.251,31.576A43.242,43.242,0,0,1-33.973,29.56c1.447-11.112,3.093-23.4,4.115-30.965A29.331,29.331,0,0,0-26.58-2.668C-13.071,2.271-4.8,1.66,0,0" fill="#efc17f"/></g><g transform="translate(204.273 -110.841)"><path d="M0,0-24.239-1.148l-11.04-9.437s-.015-.143-.029-.427c0-.071-.015-.141-.015-.227-.255-5.364-2.057-42.345-1.872-59.347v-.384c.013-.141.013-.283.013-.425.5-4.385,1.533-12.5,2.711-21.387A43.244,43.244,0,0,0-5.748-90.765L-19-11.125Z" fill="#132143"/></g><g transform="translate(168.965 -121.853)"><path d="M0,0C0-.071-.015-.141-.015-.227-.284-3.988-1.589-23.4-2.072-39.763" fill="#132143"/></g><g transform="translate(210.148 -414.813)"><path d="M0,0A13.564,13.564,0,0,1-2.852,7.081C-13.765,19.456-36.684,22-36.684,22L-37.848,33.7l-.284,2.839s4.911,12.091,2.469,18.845c-.936,2.625-2.98,4.443-6.84,4.443a12.893,12.893,0,0,1-8.528-3.165c-6.727-5.62-8.557-16.845-8.557-16.845l1.816-17.455-11.637-3.647a50.79,50.79,0,0,1-.5-6.429A88.879,88.879,0,0,1-61.051-28.2a57.908,57.908,0,0,0,5.535-20.947c.113-1.291.171-2.568.2-3.817a75.517,75.517,0,0,0-4.257-26.495l-.013-.028s22.9-1.093,35.279,11.281c2.852,2.852,6.1,7.735,9.295,13.708.455.837.895,1.7,1.348,2.584.88,1.731,1.747,3.548,2.6,5.42A161.847,161.847,0,0,1-4.059-28.013c.013.057.043.113.057.171s.041.113.056.156a1.54,1.54,0,0,1,.056.171.22.22,0,0,0,.015.056.43.43,0,0,0,.029.113c.013.043.028.115.041.171A106.942,106.942,0,0,1-.852-15.369C.241-9.551.624-4.229,0,0" fill="#fed798"/></g><g transform="translate(173.464 -392.817)"><path d="M0,0-1.164,11.708C-5.492,9.571-9.439,5.1-11.78,2.072A1.589,1.589,0,0,1-10.329-.472,103.34,103.34,0,0,0,0,0" fill="#e5b063"/></g><g transform="translate(245.796 -370.736)"><path d="M0,0A2.114,2.114,0,0,1-.739-.132,2.13,2.13,0,0,1-2-2.867l3.591-9.665a2.13,2.13,0,0,1,2.736-1.256,2.129,2.129,0,0,1,1.256,2.736L2-1.389A2.132,2.132,0,0,1,0,0" fill="#ccba32"/></g><g transform="translate(903.382 -148.33)"><path d="M0,0C-1.4,7.72-8.652,12.4-7.013,19.415c.907,3.867-1.68,8.6-6.267,10.933a13.283,13.283,0,0,1-6.133,1.465,6.673,6.673,0,0,1-4.132-1.227c-2.121-1.519-2.827-4.213-3.053-6.225a3.663,3.663,0,0,0-2.333-3.055c-1.72-.653-3.933-2.292-4.748-6.333a9.855,9.855,0,0,1,.975-7.132A3.762,3.762,0,0,0-33.56,3a11.681,11.681,0,0,1-4.319-6.733C-39.053-9.812-34.613-22.68-34.145-29S-44.893-90.506-44.893-90.506-48.173-33.2-46.773-29s3.973,20.813,0,24.788S-50.039,5.855-50.039,5.855c1.6,17.119-2.493,23.359-7.547,25.345a13.071,13.071,0,0,1-4.855.84,11.259,11.259,0,0,1-5.6-1.4c-3.12-1.745-4.613-4.813-3.988-7.012.935-3.28.467-4.921-3.279-10.535S-76,3.281-74.372-.932s-1.628-6.787-4.2-12.16-.239-11.935,2.107-17.773S-78.252-113-78.252-113L-76-126.985h35.081l37.827,10.013s.759,79.785.985,86.813a23.713,23.713,0,0,1-.187,3.613,50.1,50.1,0,0,1-.653,5.24A18.42,18.42,0,0,0-1.705-10.372C-.4-7.425.667-3.652,0,0" fill="#e6e6e6"/></g><g transform="translate(893.036 -287.244)"><path d="M0,0H-44.224A23.726,23.726,0,0,1-67.95-23.727v-84.216a23.725,23.725,0,0,1,23.727-23.725H0a23.725,23.725,0,0,1,23.727,23.725v84.216A23.726,23.726,0,0,1,0,0" fill="#007c70"/></g><g transform="translate(912.532 -341.737)"><path d="M0,0H-1.333V-49.2a23.086,23.086,0,0,0-23.06-23.059H-58.823A23.085,23.085,0,0,0-81.881-49.2h-1.333A24.42,24.42,0,0,1-58.823-73.6h34.429A24.42,24.42,0,0,1,0-49.2Z" fill="#00998f"/></g><g transform="translate(874.382 -267.837)"><path d="M0,0C.455,4.748,7.427.56,7.933.267c-.387.387-5.079,5.267-7.359,9.8C-23.467,12.6-49.252,6.507-49.252,6.507c-2.921-5.145-4.148-16.52-4.268-30.573-.065-6.865.148-14.373.535-22.107,1.025-19.733,3.333-40.933,5.773-56.733a3.248,3.248,0,0,1,.067-.372c.252-1.628.507-3.2.759-4.693q.1-.6.2-1.161c.641-3.68,1.28-6.92,1.893-9.627a38.851,38.851,0,0,1,4.213-10.933,30.483,30.483,0,0,1,13.027-12.133A33.486,33.486,0,0,1-13.039-145.3,77.946,77.946,0,0,1,1.813-142.72a45.257,45.257,0,0,1,13.56,5.973C6.2-126.133,8.855-103.305,8.855-103.305c4.252,9.532,15.239,43.2,15.239,43.2L14.735-8.879S-.467-4.907,0,0" fill="#ffb46a"/></g><g transform="translate(900.542 -274.623)"><path d="M0,0C-.145,5.84-.252,9.32-.252,9.32a43.719,43.719,0,0,1-6.481,3.187A63.8,63.8,0,0,0-.2.48Z" fill="#ffb46a"/></g><g transform="translate(827.995 -375.809)"><path d="M0,0C-.28,1.613-.545,3.307-.825,5.067-1.333,8.347-1.84,11.84-2.319,15.52c-.653,5.013-1.295,10.333-1.868,15.827-.04.413-.093.84-.132,1.267-.041.453-.095.92-.135,1.387C-5.932,48.893-7,64.787-7.133,78.666c-.012,1.773-.012,3.532,0,5.24a42.749,42.749,0,0,1-4.732.253A43.418,43.418,0,0,1-45.372,68.4c-.255-.307-.507-.627-.761-.947-.119-.148-.227-.293-.345-.44A43.316,43.316,0,0,1-55.372,40.64,43.462,43.462,0,0,1-35.479,4.093c.185-.12.387-.24.572-.36l.041-.027a43.183,43.183,0,0,1,23-6.573,43.43,43.43,0,0,1,7.732.693c.24.027.467.08.695.12h.013c.252.053.493.093.732.16.627.133,1.24.28,1.853.44C-.545-.893-.265-.413,0,0" fill="#ff755a"/></g><g transform="translate(788.916 -378.929)"><path d="M0,0A49.691,49.691,0,0,0-8.173,10.107c-12.48,20.92-11.521,70.2-11.521,70.2s-6.415,22.387,9.919,31.748c0,0,6.228,2.012,4.4-14.495,0,0,6.053,4.773,4.947-4.587S-3.909,80.868-7.4,79.574c0,0-1.211-1.655,0-9.441A43.525,43.525,0,0,1,4.173,6.853q1.3-.812,2.656-1.532A52.016,52.016,0,0,1,2.257-2.1Q1.105-1.071,0,0" fill="#ab6d44"/></g><g transform="translate(823.623 -389.529)"><path d="M0,0C-.748-4.84-.307-8.493.919-11.267-4.831-8.973-20.491-2.136-32.449,8.5a52.017,52.017,0,0,0,4.572,7.419A43.236,43.236,0,0,1-7.493,10.853a43.948,43.948,0,0,1,8.427.813H.947c.88.173,1.733.373,2.585.6A40.586,40.586,0,0,1,0,0" fill="#e28f44"/></g><g transform="translate(875.636 -365.596)"><path d="M0,0V51.587H-54.24c1.027-19.733,3.333-40.933,5.773-56.733A3.654,3.654,0,0,1-48.4-5.52H-5.52A5.522,5.522,0,0,1,0,0" fill="#e28f44"/></g><g transform="translate(910.964 -346.69)"><path d="M0,0C-2.193-16.005-6.829-40.019-14.888-51.32a.158.158,0,0,1-.028-.052,20.92,20.92,0,0,0-6.292-6.52c-9.173,10.613-6.52,33.44-6.52,33.44,2.283,5.116,6.5,17.179,9.924,27.261A48.543,48.543,0,0,0,0,0" fill="#e28f44"/></g><g transform="translate(910.964 -346.69)"><path d="M0,0A48.543,48.543,0,0,1-17.8,2.809c2.956,8.707,5.316,15.937,5.316,15.937l-9.36,51.228s-15.2,3.972-14.735,8.879c.455,4.748,7.428.56,7.935.267-.387.387-5.08,5.268-7.36,9.8-1.295,2.585-1.827,5.053-.333,6.545,3.227,3.213,11.64-.133,19.187-10.893a63.671,63.671,0,0,0,6.533-12.025l.2-.481C-2.128,51.96,2.005,22.428,1.539,14.307,1.4,11.908.911,6.639,0,0" fill="#ab6d44"/></g><g transform="translate(846.849 -108.13)"><path d="M0,0H-30.093l18.587-9.56a11.259,11.259,0,0,0,5.6,1.4A13.071,13.071,0,0,0-1.053-9Z" fill="#132143"/></g><g transform="translate(891.249 -108.13)"><path d="M0,0H-30.093l18.68-9.613A6.686,6.686,0,0,0-7.28-8.387,13.267,13.267,0,0,0-1.147-9.853Z" fill="#132143"/></g><g transform="translate(847.329 -409.662)"><path d="M0,0A30.483,30.483,0,0,0-13.027,12.133,38.851,38.851,0,0,0-17.24,23.067c-.613,2.707-1.252,5.947-1.893,9.627-.345-.107-.692-.2-1.04-.293a40.586,40.586,0,0,1-3.532-12.267c-.748-4.84-.308-8.493.919-11.267h.015C-20.333,3.387-14.72,1.36-8.919.387A37.069,37.069,0,0,1,0,0" fill="#00998f"/></g><g transform="translate(883.236 -371.142)"><path d="M0,0C-17.32-16.92-10.373-33.613-7.04-39.413A45.271,45.271,0,0,1,6.52-33.44C-2.653-22.827,0,0,0,0" fill="#00998f"/></g><g transform="translate(921.836 -445.436)"><path d="M0,0C-3.8,18.373-21.533,8.44-21.533,8.44c-9.308,11.933-29.975,16.88-29.975,16.88l.588,7.853S-59.068,44.52-62.855,44.52s-2.905-6.987-2.905-6.987V25.893l-2.84-.08c-26.12-1.147-36.481-14.28-37.893-25.52-.88-7.04.68-32.04,9.8-51.08.12-.293.268-.573.4-.853a56.625,56.625,0,0,1,3.681-6.493c5.825-8.84,13.865-15.213,24.825-15.76C-32.88-75.64-18.333-50.04-18.333-50.04c-8.147,11.933,4.36,38.693,4.36,38.693S-3.015-14.813-.2-7.867C.545-6.04.72-3.507,0,0" fill="#ab6d44"/></g><g transform="translate(921.636 -453.302)"><path d="M0,0C-2.813-6.947-13.773-3.48-13.773-3.48s-12.507-26.76-4.36-38.693c0,0-14.547-25.6-49.453-23.853-10.96.547-19,6.92-24.827,15.76a56.817,56.817,0,0,0-3.68,6.493c-.133.28-.28.56-.4.853-3.04-3.947-9.133-12.707-8.76-19.293.507-8.747,9.267-9.587,9.267-9.587s2.853-29.44,40.547-33.147S-2.613-75.16-2.613-75.16,11.36-73.48,19.44-54.467C26.639-37.507,4.8-6.507,0,0" fill="#6d300f"/></g><g transform="translate(917.67 -448.29)"><path d="M0,0-7.223,4.141c-1.188.713-2.373,1.431-3.543,2.184-1.185.736-2.331,1.528-3.544,2.268l-.017.011a.672.672,0,0,1-.925-.224.675.675,0,0,1,.061-.788,24.806,24.806,0,0,1,3.116-3.056A30.015,30.015,0,0,1-8.523,1.991,27.26,27.26,0,0,1-4.64-.025,18.061,18.061,0,0,1-.407-1.269.675.675,0,0,1,.36-.7a.677.677,0,0,1-.332.684Z" fill="#93532f"/></g><g transform="translate(868.655 -460.58)"><path d="M0,0A15.575,15.575,0,0,1-15.559-15.559,15.575,15.575,0,0,1,0-31.117,15.575,15.575,0,0,1,15.559-15.559,15.575,15.575,0,0,1,0,0M-42.519-4.285A15.576,15.576,0,0,1-58.077-19.844,15.577,15.577,0,0,1-42.519-35.4,15.576,15.576,0,0,1-26.96-19.844,15.575,15.575,0,0,1-42.519-4.285M44.531,1.927,18.3-17.524a1.129,1.129,0,0,0-.2-.092A18.245,18.245,0,0,0,0-33.784a18.211,18.211,0,0,0-15.649,8.933,6.218,6.218,0,0,0-5.143-2.729,6.187,6.187,0,0,0-4.471,1.916A18.247,18.247,0,0,0-42.519-38.069,18.246,18.246,0,0,0-60.744-19.844,18.246,18.246,0,0,0-42.519-1.619,18.246,18.246,0,0,0-24.293-19.844c0-.479-.035-.948-.071-1.419,0-.033.019-.063.019-.1a3.558,3.558,0,0,1,3.553-3.552,3.554,3.554,0,0,1,3.547,3.505,18.121,18.121,0,0,0-.98,5.849A18.246,18.246,0,0,0,0,2.667,18.234,18.234,0,0,0,18.161-14.3L42.943,4.071a1.334,1.334,0,0,0,1.588-2.144" fill="#70bee1"/></g><g transform="translate(856.076 -411.543)"><path d="M0,0V-8s6.532.493,10.88-.627C14.52-9.573,9.173-.147,0,0" fill="#93532f"/></g><g transform="translate(825.676 -360.289)"><path d="M0,0C-.653,5.013-1.295,10.333-1.867,15.827c-.041.413-.095.84-.133,1.267-.04.453-.093.92-.135,1.387C-3.613,33.373-4.681,49.267-4.813,63.147c-.64.041-1.293.067-1.947.067A31.928,31.928,0,0,1-31.387,51.64c-.188-.225-.373-.467-.547-.707-.095-.107-.173-.213-.267-.32a31.864,31.864,0,0,1-6.535-19.372A31.944,31.944,0,0,1-24.107,4.387c.133-.08.28-.173.412-.253l.028-.027A31.6,31.6,0,0,1-7.735-.693c.32-.027.653-.027.975-.027A3.225,3.225,0,0,1-6.4-.707,31.17,31.17,0,0,1-.575-.12H-.56c.187.04.372.067.56.12" fill="#ff9283"/></g><g transform="translate(796.196 -357.062)"><path d="M0,0C-.533,4.493-2.653,9.12-5.107,14.48c-4.16,9.067-9.333,20.347-7.8,35.107l-.667.067c-.253-.307-.507-.627-.76-.947C-15.56,34.08-10.453,22.92-6.32,13.92c2.4-5.253,4.48-9.8,4.987-14.08A27.3,27.3,0,0,0-3.68-14.653c-.013-.027-.027-.067-.04-.093l.613-.267.04-.027.573-.253A28.812,28.812,0,0,1,0,0" fill="#c63d2a"/></g><g transform="translate(819.45 -357.222)"><path d="M0,0C.4,3.493,2.413,8.413,4.36,12.76c-.041.413-.095.84-.133,1.267-.04.453-.093.92-.135,1.387C1.865,10.547-.827,4.413-1.333.16a26.361,26.361,0,0,1-.175-3.92c.188-7.267,3.575-13.547,5.921-17,.239.027.465.08.693.12H5.12c.252.053.493.093.733.16C3.585-17.28.013-11.027-.175-3.773A26.327,26.327,0,0,0,0,0" fill="#c63d2a"/></g><g transform="translate(446.334 -108.13)"><path d="M0,0H-31.307C-24.92-9.252-17.64-9.04-17.64-9.04Z" fill="#fcf17b"/></g><g transform="translate(443.468 -201.61)"><path d="M0,0S0,20.068-3.307,34.4-14.773,84.44-14.773,84.44s-7.28-.212-13.667,9.04c0,0,6.173-71.426,1.093-90.84Z" fill="#e49766"/></g><g transform="translate(412.159 -108.13)"><path d="M0,0H-31.307C-24.92-9.252-17.64-9.04-17.64-9.04Z" fill="#fcf17b"/></g><g transform="translate(409.292 -201.61)"><path d="M0,0S0,20.068-3.307,34.4-14.773,84.44-14.773,84.44s-7.28-.212-13.667,9.04c0,0,6.173-71.426,1.093-90.84Z" fill="#e49766"/></g><g transform="translate(367.526 -266.217)"><path d="M0,0H44.224A23.726,23.726,0,0,0,67.95-23.725V-97.813a23.725,23.725,0,0,0-23.727-23.725H0A23.724,23.724,0,0,0-23.725-97.813v74.088A23.725,23.725,0,0,0,0,0" fill="#54b2d3"/></g><g transform="translate(348.698 -316.516)"><path d="M0,0H0A1.332,1.332,0,0,1-1.333-1.333V-45.419c0-12.812,11.24-23.233,25.057-23.233H58.155c13.289,0,24.2,9.64,25.011,21.775a1.347,1.347,0,0,1-1.329,1.459,1.316,1.316,0,0,1-1.327-1.208c-.683-10.78-10.449-19.359-22.355-19.359H23.724c-12.345,0-22.391,9.227-22.391,20.567V-1.333A1.333,1.333,0,0,1,0,0" fill="#3ea0ba"/></g><g transform="translate(454.279 -197.476)"><path d="M0,0C-9.293,3.639-35.84.32-35.84.32c-16.6,5.652-50.787,1-50.787,1s1-60.4.373-66.121c0,0,4.053-.732,10.4-1.667,4.987-.745,11.387-1.6,18.347-2.345,19.533-2.053,43.547-3.12,53.453,2.427Z" fill="#132143"/></g><g transform="translate(432.883 -247.748)"><path d="M0,0A.662.662,0,0,0-.909-.249l-10.667,6.06a7,7,0,0,0-3.535,6.076V49.259a.666.666,0,0,0,.667.667.666.666,0,0,0,.667-.667V11.887a5.665,5.665,0,0,1,2.86-4.916L-.249.909A.666.666,0,0,0,0,0" fill="#496fba"/></g><g transform="translate(397.248 -269.521)"><path d="M0,0A.671.671,0,0,0-.747.577C-3.508,22.128-14.956,28.357-18.16,29.693V1.323a.667.667,0,0,0-.667-.667.667.667,0,0,0-.667.667v72.32a.666.666,0,0,0,.667.667.666.666,0,0,0,.667-.667V31.135C-15.425,30.176-2.459,24.421.577.747A.668.668,0,0,0,0,0" fill="#496fba"/></g><g transform="translate(504.892 -328.382)"><path d="M0,0-28.147,64.145-43.161,33.093l27.381-62.4a.879.879,0,0,1,1.6-.029Z" fill="#6bc9be"/></g><g transform="translate(503.178 -324.67)"><path d="M0,0-26.051,59.368-38.781,31.811l25.265-57.58a.879.879,0,0,1,1.6-.015Z" fill="#e6e6e6"/></g><g transform="translate(454.879 -435.729)"><path d="M0,0C-2.867,12.053-8.893,24.68-35,28.413V40.747s1.72,18.08-3.733,18.08S-62.84,37.013-62.84,37.013l2.133-11.787,1.027-5.707L-76.04,3.453S-91.533,7.467-96.12-7.453c-3.44-11.187,4.733-12.867,9.4-11.187a8.537,8.537,0,0,0,9.307-2.12,24.142,24.142,0,0,0,5.4-9.973,38.944,38.944,0,0,0,.853-15.173s16.067,6.027,17.787-16.067c0,0,6.6,11.76,17.8,11.76,8.653,0,9.24-10.813,9.067-15.707-.053-1.427-.173-2.36-.173-2.36a23.41,23.41,0,0,0,.587,2.467C-24.88-61.573-21.48-53.2-13.32-52.067a11.686,11.686,0,0,0,1.96.147c.507,1.613,1.04,3.293,1.573,5.027.387,1.28.787,2.587,1.187,3.92v.013c.36,1.187.72,2.4,1.067,3.613C-5.84-33.573-4.2-27.613-2.867-22.067A125.713,125.713,0,0,1,0-7.147,22.436,22.436,0,0,1,0,0" fill="#e49766"/></g><g transform="translate(419.879 -407.315)"><path d="M0,0V9.867c-5.839-.721-9.375-5.479-11.327-9.4A1.842,1.842,0,0,1-9.064-2.1,43.267,43.267,0,0,0,0,0" fill="#cc7544"/></g><g transform="translate(465.759 -485.569)"><path d="M0,0A12.206,12.206,0,0,1-12.2,12.2a12.166,12.166,0,0,1-6.213-1.707C-18.76,9.28-19.12,8.067-19.48,6.88V6.867c-.4-1.333-.8-2.64-1.187-3.92C-21.2,1.213-21.733-.467-22.24-2.08a11.687,11.687,0,0,1-1.96-.147c-8.16-1.133-11.56-9.507-12.773-13.747a23.41,23.41,0,0,1-.587-2.467s.12.933.173,2.36c.173,4.893-.413,15.707-9.067,15.707-11.2,0-17.8-11.76-17.8-11.76C-65.973,9.96-82.04,3.933-82.04,3.933a38.944,38.944,0,0,1-.853,15.173,24.142,24.142,0,0,1-5.4,9.973A8.537,8.537,0,0,1-97.6,31.2c-4.667-1.68-12.84,0-9.4,11.187,4.587,14.92,20.08,10.907,20.08,10.907L-70.56,69.36l-1.027,5.707c-5.907.427-12.347-3.707-17.293-10.667a11.32,11.32,0,0,1-3.533,1.947c-8.84,2.907-19.72-5.8-25.067-19.653-6.48-3.187-12.653-10.827-15.933-20.827-4.973-15.173-1.453-29.933,7.867-33a11.728,11.728,0,0,1,3.707-.547,18.937,18.937,0,0,1-2.76-10.027c0-8.893,5.653-16.093,12.627-16.093a10.54,10.54,0,0,1,6,1.933c-2.533-14.16,9.787-28.88,28.147-33.267C-60.6-69.253-44.013-62.853-38.6-50.68a17.9,17.9,0,0,1,6-1.04A18.123,18.123,0,0,1-14.493-34,13.812,13.812,0,0,1-.867-20.187a13.719,13.719,0,0,1-4.44,10.12A12.208,12.208,0,0,1,0,0" fill="#132143"/></g><g transform="translate(428.785 -501.542)"><path d="M0,0C-.147-.04-.28-.067-.413-.107c-.053-1.427-.173-2.36-.173-2.36A23.41,23.41,0,0,0,0,0"/></g><g transform="translate(450.225 -263.863)"><path d="M0,0C-9.907-5.547-33.92-4.48-53.453-2.427c-6.96.747-13.36,1.6-18.347,2.345-6.347.935-10.4,1.667-10.4,1.667-7.747-13.732-8.627-98.4-4.76-112.825s28.773-23.613,28.773-23.613S-39.533-113.04-34.08-113.04s3.733-18.08,3.733-18.08v-2.24c7.92,4.6,15.373,9.8,15.373,9.8.187.267.36.547.547.853,2.587,4.373,5.013,13.36,7.213,24.453,1.84,9.373,3.533,20.267,5,31.147C-1.747-63.653-1.307-60.2-.88-56.8,1.933-34.013,3.733-13.387,4.04-9.333,4.747-.361,0,0,0,0" fill="#e6e6e6"/></g><g transform="translate(397.852 -367.876)"><path d="M0,0C.133,10.787-4.573,32.227-6.467,40.427-7.28,28.16-9.507,2.173-13.84-5.747c-5.747-10.467-17.76-7.347-19.413-4.56A58.454,58.454,0,0,0-38.213.44,27.449,27.449,0,0,1-28.027-19.587C-16.04-29.213-.16-13.507,0,0" fill="#70bee1"/></g><g transform="translate(452.892 -364.329)"><path d="M0,0A65.025,65.025,0,0,1-.373,6.96,267.543,267.543,0,0,1-4.88,33.36c-1.467-10.88-3.16-21.773-5-31.147-2.2-11.093-4.627-20.08-7.213-24.453C-8.147-20.293-.107-9.587,0,0" fill="#70bee1"/></g><g transform="translate(459.796 -324.003)"><path d="M0,0-10.451,3.341c-.427-3.4-.867-6.855-1.333-10.308a267.516,267.516,0,0,0,4.507-26.4L1.784-3.395A2.734,2.734,0,0,1,0,0" fill="#d6d6d6"/></g><g transform="translate(504.892 -328.382)"><path d="M0,0-28.147,64.145-70.586,45.52l-2.719-1.193a2.74,2.74,0,0,1-1.408-3.609l25.947-59.131a2.738,2.738,0,0,1,3.608-1.407l2.719,1.193Z" fill="#6bc9be"/></g><g transform="translate(504.892 -328.382)"><path d="M0,0-28.147,64.145-70.586,45.52-42.44-18.627Z" fill="#9ce5de"/></g><g transform="translate(362.924 -447.22)"><path d="M0,0,7.223,4.141c1.188.713,2.373,1.431,3.544,2.184,1.183.735,2.329,1.528,3.543,2.268l.017.011a.674.674,0,0,0,.864-1.012,24.636,24.636,0,0,0-3.117-3.056A29.783,29.783,0,0,0,8.523,1.991,27.317,27.317,0,0,0,4.641-.025,18.176,18.176,0,0,0,.407-1.271.677.677,0,0,0-.36-.7a.673.673,0,0,0,.331.683Z" fill="#cc7544"/></g><g transform="translate(391.639 -323.382)"><path d="M0,0A2.884,2.884,0,0,1-2.24,3l-2.12.492-22.253,5.2-6.013,1.4a2.9,2.9,0,0,1-3.56-2.679C-37.36-14.908-36.493-31.055-32-44.055A58.454,58.454,0,0,1-27.04-54.8c1.653-2.785,13.667-5.905,19.413,4.56C-3.293-42.32-1.067-16.333-.253-4.068-.147-2.455-.067-1.068,0,0" fill="#d8d8d8"/></g><g transform="translate(461.172 -307.769)"><path d="M0,0C-5.067,7.932-18.573,8.613-18.573,8.613S-78,23.972-86.28,18.24C-92,14.265-94.893.919-96.146-6.92l22.253-5.2,1.627,10.267c5.573-4.893,50.827-3.72,50.827-3.72-1.347-9.12,7.76-15.025,10.467-14.692,2.64.333-3.067,7.72-3.36,8.092,10.293-7.079,19.573-4.039,22.267.521S0,0,0,0" fill="#e49766"/></g><g transform="translate(377.258 -297.477)"><path d="M0,0A.655.655,0,0,1-.383-.121a.664.664,0,0,1-.163-.928c.28-.4,6.924-9.809,11.956-11.72a.672.672,0,0,1,.86.387.667.667,0,0,1-.387.86C7.231-9.755.612-.379.545-.284A.663.663,0,0,1,0,0" fill="#cc7544"/></g><g transform="translate(632.996 -213.41)"><path d="M0,0-2.4,105.28C-8.147,94.106-16.293,92.853-16.293,92.853s-1.227-20.48-3.173-34.373S-27.028-2.96-27.028-2.96Z" fill="#ffc66d"/></g><g transform="translate(630.596 -108.13)"><path d="M0,0H-30.227l16.333-12.427S-5.748-11.173,0,0" fill="#132143"/></g><g transform="translate(640.183 -213.41)"><path d="M0,0,2.4,105.28C8.145,94.106,16.293,92.853,16.293,92.853s1.227-20.48,3.173-34.373,7.56-61.44,7.56-61.44Z" fill="#ffc66d"/></g><g transform="translate(642.583 -108.13)"><path d="M0,0H30.227L13.893-12.427S5.747-11.173,0,0" fill="#132143"/></g><g transform="translate(666.373 -293.238)"><path d="M0,0,12.461-10.016C8.573-21.105,1.137-43.1-1.2-55.492-2.207-60.824-1.248-64.2.548-66.333A51.682,51.682,0,0,0-28.793-74.15h-2.895A51.649,51.649,0,0,0-61.405-66.1c1.675,2.141,2.54,5.46,1.569,10.6-2.313,12.263-9.62,33.927-13.54,45.127L-60.479,0s-1.287,16.085-8.365,24.289S-85.572,61.927-86.858,76.082c0,0,7.72,14.636,56.941,14.636s56.3-14.636,56.3-14.636C25.091,61.927,15.441,32.492,8.363,24.289S0,0,0,0" fill="#ff2c3e"/></g><g transform="translate(665.172 -348.73)"><path d="M0,0C2.339,12.4,9.775,34.387,13.663,45.476L34.819,28.471S18.733,1.127,3.775-9.489c-.673-.477-1.349-.923-2.025-1.352C-.045-8.712-1.005-5.332,0,0" fill="#132143"/></g><g transform="translate(604.969 -359.333)"><path d="M0,0C-.551.357-1.1.725-1.648,1.113c-14.959,10.616-31.044,37.96-31.044,37.96l20.72,16.656C-8.051,44.531-.745,22.867,1.569,10.6,2.539,5.46,1.675,2.14,0,0" fill="#132143"/></g><g transform="translate(614.021 -466.873)"><path d="M0,0C-.512-18.775-16.383-32.973-33.132-28.905q-.708.172-1.424.384c-19.087,5.664-23.368,38.669-21.584,51.56s.356,23.045-14.449,30.076-17.125,32.42,0,39.06c0,0-2.32,25.975,21.405,25.584,0,0,23.012,9.961,32.467-10.155,0,0,23.189-.587,18.909-27.148Z" fill="#93463e"/></g><g transform="translate(658.851 -466.873)"><path d="M0,0C.512-18.775,16.383-32.973,33.132-28.905q.708.172,1.424.384c19.087,5.664,23.368,38.669,21.584,51.56s-.356,23.045,14.449,30.076,17.125,32.42,0,39.06c0,0,2.32,25.975-21.405,25.584,0,0-23.012,9.961-32.467-10.155,0,0-23.189-.587-18.909-27.148Z" fill="#93463e"/></g><g transform="translate(645.187 -379.222)"><path d="M0,0V16.787l-.033.091a8.828,8.828,0,0,1-16.607-.091V0c.747.053,1.452.093,2.107.133,2.905.173,4.745.213,4.745.213h2.947S-5,.307-2.107.133C-1.455.093-.748.053,0,0" fill="#ffc66d"/></g><g transform="translate(643.187 -377.823)"><path d="M0,0C0,4.067-2.827,7.373-6.32,7.373S-12.64,4.067-12.64,0a6.678,6.678,0,0,1,.107-1.267c2.905.173,4.745.213,4.745.213h2.947S-3-1.093-.107-1.267A6.789,6.789,0,0,1,0,0" fill="#edab54"/></g><g transform="translate(643.683 -497.542)"><path d="M0,0A47.484,47.484,0,0,0-7.581.656,47.484,47.484,0,0,0-15.163,0,51.578,51.578,0,0,0-67.608,51.168c0,26.535,22.721,48.045,50.751,48.045A53.742,53.742,0,0,0-7.581,98.4a53.742,53.742,0,0,0,9.276.816c28.029,0,50.751-21.511,50.751-48.045A51.578,51.578,0,0,0,0,0" fill="#a1584d"/></g><g transform="translate(594.784 -400.769)"><path d="M0,0A5.046,5.046,0,0,1-1.693.72c-4.529,1.067-9.316-3.84-10.716-10.947s1.145-13.747,5.663-14.8a6.343,6.343,0,0,1,5.285,1.32A175.073,175.073,0,0,0,0,0" fill="#f4b664"/></g><g transform="translate(680.411 -424.475)"><path d="M0,0A172.958,172.958,0,0,1-1.473,23.707c-.889,5.96-2.3,11.213-4.544,13.667-4.835,5.293-20.921,7.213-29.933,7.88-3.728.28-6.248.347-6.248.347h-2.692s-2.521-.067-6.259-.347c-9.012-.667-25.1-2.587-29.935-7.88-2.241-2.453-3.655-7.707-4.544-13.667A175.044,175.044,0,0,1-87.088,0c0-2.32.036-3.733.036-3.733,30.6-9.48,42.345-47.627,42.345-47.627C-32.188-16.16-.036-3.733-.036-3.733S0-2.32,0,0" fill="#ffc66d"/></g><g transform="translate(691.347 -410.996)"><path d="M0,0C-1.389,7.107-6.188,12.013-10.717,10.947a5.069,5.069,0,0,1-1.693-.72A172.988,172.988,0,0,0-10.936-13.48,6.308,6.308,0,0,1-5.663-14.8C-1.144-13.747,1.4-7.12,0,0" fill="#f4b664"/></g><g transform="translate(625.355 -308.356)"><path d="M0,0V40.853L-63.919,20.44a1.918,1.918,0,0,1-1.308-1.427l-10.067-45.52a1.943,1.943,0,0,1,2.28-2.32,1.56,1.56,0,0,1,.333.093l2.613,1.04Z" fill="#70bee1"/></g><g transform="translate(719.289 -337.636)"><path d="M0,0-.067.44A3.443,3.443,0,0,0-.413.547l-2.613,1.04L-73.08,29.28s-4.773,4.987-10.08,4.987S-93.933,29.28-93.933,29.28L-164,1.587l-2.613-1.04a1.56,1.56,0,0,0-.333-.093L-167.013,0a2.173,2.173,0,0,1,2.907-2.387l.253.093,67.826,25.467s6.441,1.92,9.333,7.067a3.662,3.662,0,0,0,3.24,1.707A3.371,3.371,0,0,0-80.32,30.24c2.895-5.147,9.333-7.067,9.333-7.067L-3.173-2.293l.255-.093A2.182,2.182,0,0,1,0,0" fill="#e1efed"/></g><g transform="translate(721.502 -334.863)"><path d="M0,0-10.067,45.52a1.937,1.937,0,0,1-1.32,1.427L-75.293,67.36V26.507L-5.24-1.187l2.613-1.04a3.443,3.443,0,0,1,.347-.107A1.96,1.96,0,0,1,0,0" fill="#70bee1"/></g><g transform="translate(716.115 -339.93)"><path d="M0,0-67.813,25.467s-6.439,1.921-9.333,7.067A3.371,3.371,0,0,1-80.28,34.24a3.662,3.662,0,0,1-3.24-1.707c-2.893-5.145-9.333-7.067-9.333-7.067L-160.68,0l.44-11.693S-143.36-.987-129.2,7.28c20.333,11.893,43.547,15.268,46.747,24.453a2.328,2.328,0,0,0,2.067,1.693h.135a2.266,2.266,0,0,0,2.025-1.667c3.16-9.212,26.413-12.573,46.76-24.48C-17.305-.987-.427-11.693-.427-11.693Z" fill="#e6e6e6"/></g><g transform="translate(646.209 -308.356)"><path d="M0,0V40.853A12.354,12.354,0,0,1-9.92,45.36a15.953,15.953,0,0,1-10.935-4.507V0s5.468,4.987,10.773,4.987S0,0,0,0" fill="#57b3d3"/></g><g transform="translate(718.214 -320.448)"><path d="M0,0S9.925,2.88,7.045,14.537-9.961,28.937-12.7,22.629-.772,3.567-.772,3.567Z" fill="#ffc66d"/></g><g transform="translate(719.595 -309.588)"><path d="M0,0A2.817,2.817,0,0,1-2.127-.9C-3.557-2.413-3.407-5.363-3.4-5.488a.672.672,0,0,1,.7-.628.666.666,0,0,1,.627.7c-.037.693.052,2.693.913,3.6A1.508,1.508,0,0,0,0-1.333c2.336,0,2.885-4.951,2.889-5a.685.685,0,0,1,.729-.6.668.668,0,0,1,.6.729C4.193-5.952,3.571,0,0,0" fill="#edab54"/></g><g transform="translate(553.236 -320.448)"><path d="M0,0S-9.925,2.88-7.045,14.537,9.961,28.937,12.7,22.629.772,3.567.772,3.567Z" fill="#ffc66d"/></g><g transform="translate(551.854 -309.588)"><path d="M0,0C-3.571,0-4.193-5.952-4.217-6.2a.666.666,0,0,1,.6-.728.663.663,0,0,1,.729.6c0,.049.56,5,2.889,5a1.505,1.505,0,0,0,1.156-.479c.865-.915.951-2.909.912-3.6a.665.665,0,0,1,.627-.7.634.634,0,0,1,.7.628c.008.125.159,3.075-1.272,4.591A2.817,2.817,0,0,1,0,0" fill="#edab54"/></g></g></g></g></svg>