<svg xmlns="http://www.w3.org/2000/svg" width="5446" height="1519" viewBox="0 0 5446 1519"><g transform="translate(-1982 -2427)"><g transform="translate(-636 -880)"><path d="M7536,4303l197,506,82-132,114,149,135-129-129-125,119-80Z" fill="#5645ff"/><path d="M7462,4378c1,2-31,24-72,50s-75,45-76,44c-1-2,31-24,72-50S7461,4377,7462,4378Z" fill="#263138"/><path d="M7477,4276c0,1-12-2-32-8-19-6-46-16-74-27-29-12-54-23-72-32s-29-14-29-15,12,3,31,11c21,9,46,19,73,30s52,21,73,29c19,7,30,12,30,13Z" fill="#263138"/><path d="M7536,4047c1,0,4,10,7,28,3,17,7,42,11,69,3,27,5,51,6,69s1,29,0,29c-2,0-7-43-14-97s-13-97-11-97Z" fill="#263138"/><path d="M7809,4160c1,2-36,18-77,44s-74,49-75,47c-1-1,7-7,20-17s31-23,51-36C7770,4171,7808,4158,7809,4160Z" fill="#263138"/><g transform="translate(2618 3307)" fill="#fff" stroke="#c4c4c4" stroke-width="14"><rect width="4652" height="636" rx="83" stroke="none"/><rect x="7" y="7" width="4638" height="622" rx="76" fill="none"/></g></g><g transform="matrix(-1, 0.017, -0.017, -1, 6527.96, 2896.627)" fill="#757575"><path d="M 269.1209106445313 226.5 L 0.8790791630744934 226.5 L 135 0.9781553149223328 L 269.1209106445313 226.5 Z" stroke="none"/><path d="M 135 1.956375122070313 L 1.758209228515625 226 L 268.2417907714844 226 L 135 1.956375122070313 M 135 0 L 270 227 L 0 227 L 135 0 Z" stroke="none" fill="#707070"/></g><text transform="translate(2314 2845)" fill="#757575" font-size="224" font-family="SegoeUI, Segoe UI"><tspan x="0" y="0">Type Here ...</tspan></text></g></svg>