<svg xmlns="http://www.w3.org/2000/svg" xmlns:xlink="http://www.w3.org/1999/xlink" width="9157" height="5340" viewBox="0 0 9157 5340"><defs><clipPath id="b"><rect width="9157" height="5340"/></clipPath></defs><g id="a" clip-path="url(#b)"><rect width="9157" height="5340" fill="#fff"/><g transform="translate(-636 -880)"><path d="M4259,2470l-770,167L3262,1583l769-166Z" fill="#f4f4f4"/><path d="M7696,2690H5073V984H7696Z" fill="#f4f4f4"/><path d="M6741,1765c0,197-160,357-357,357s-357-160-357-357,160-357,357-357S6741,1568,6741,1765Z" fill="#dfdfdf"/><path d="M6504,1765l-93,54-93,54V1657l93,54Z" fill="#f4f4f4"/><path d="M7696,2690H5073V2384H7696Z" fill="#dfdfdf"/><path d="M5328,2537l-38,22-38,22v-88l38,22Z" fill="#f4f4f4"/><path d="M7480,2544H5545v-14H7480Z" fill="#f4f4f4"/><path d="M5584,2537a29,29,0,1,1-29-29A29.021,29.021,0,0,1,5584,2537Z" fill="#f4f4f4"/><path d="M9539,4633H7006a75.966,75.966,0,0,1-76-76V2289a75.966,75.966,0,0,1,76-76H9539a75.966,75.966,0,0,1,76,76V4557A75.966,75.966,0,0,1,9539,4633Z" fill="#f4f4f4"/><path d="M9616,2483H6930V2302a89.2,89.2,0,0,1,89-89H9527a89.2,89.2,0,0,1,89,89Z" fill="#ebebeb"/><path d="M7115,2348a21,21,0,1,1-21-21A20.506,20.506,0,0,1,7115,2348Z" fill="#f9f9f9"/><path d="M7242,2348a21,21,0,1,1-21-21A20.506,20.506,0,0,1,7242,2348Z" fill="#f9f9f9"/><path d="M7369,2348a21,21,0,1,1-21-21A20.506,20.506,0,0,1,7369,2348Z" fill="#f9f9f9"/><path d="M9293,2738H8278v-37H9293Z" fill="#f9f9f9"/><path d="M9293,2889H8278v-37H9293Z" fill="#f9f9f9"/><path d="M9293,3040H8278v-37H9293Z" fill="#f9f9f9"/><path d="M9293,3191H8278v-37H9293Z" fill="#f9f9f9"/><path d="M8785,3342H8278v-37h507Z" fill="#f9f9f9"/><path d="M7201,3639H8215v-37H7201Z" fill="#f9f9f9"/><path d="M7201,3790H8215v-37H7201Z" fill="#f9f9f9"/><path d="M7201,3941H8215v-37H7201Z" fill="#f9f9f9"/><path d="M7201,4092H8215v-37H7201Z" fill="#f9f9f9"/><path d="M7708,4243h507v-37H7708Z" fill="#f9f9f9"/><path d="M9258,4284H8391V3562h867Z" fill="#f9f9f9"/><path d="M8389,4066l257-180,179,124,281-238,152,151v361H8391Z" fill="#ebebeb"/><path d="M8912,3772c0,40-33,73-73,73s-73-33-73-73,33-73,73-73S8912,3732,8912,3772Z" fill="#ebebeb"/><path d="M8069,3401H7201V2679h868Z" fill="#f9f9f9"/><path d="M7200,3183l256-180,179,124,282-238,152,151v361H7201Z" fill="#ebebeb"/><path d="M7723,2889c0,40-33,73-73,73s-73-33-73-73,33-73,73-73S7723,2849,7723,2889Z" fill="#ebebeb"/><path d="M3981,5091H879a64.87,64.87,0,0,1-65-65V3340H4045V5026a64.87,64.87,0,0,1-65,65Z" fill="#f4f4f4"/><path d="M4046,3666H814V3341H4046Z" fill="#ebebeb"/><path d="M1037,3504a25,25,0,1,1-25-25A24.757,24.757,0,0,1,1037,3504Z" fill="#f9f9f9"/><path d="M1190,3504a25,25,0,1,1-25-25A24.757,24.757,0,0,1,1190,3504Z" fill="#f9f9f9"/><path d="M1343,3504a25,25,0,1,1-25-25A24.757,24.757,0,0,1,1343,3504Z" fill="#f9f9f9"/><path d="M3657,3972H2437v-44H3657Z" fill="#ebebeb"/><path d="M3657,4154H2437v-44H3657Z" fill="#ebebeb"/><path d="M3657,4336H2437v-44H3657Z" fill="#ebebeb"/><path d="M3657,4517H2437v-44H3657Z" fill="#ebebeb"/><path d="M3047,4699H2437v-44h610Z" fill="#ebebeb"/><path d="M2127,4766H1083V3897H2127Z" fill="#f9f9f9"/><path d="M1081,4504l309-217,215,149,339-286,183,182v434H1083Z" fill="#ebebeb"/><path d="M1711,4150a87,87,0,1,1-87-87A87.063,87.063,0,0,1,1711,4150Z" fill="#ebebeb"/><path d="M4162,2661l-770,166L3165,1774l769-167Z" fill="#fff"/><path d="M4162,2661a12.133,12.133,0,0,1-1-5,129.932,129.932,0,0,1-3-15c-3-13-7-33-13-57-11-50-27-124-48-216-40-185-98-448-166-759l4,3c-232,50-494,107-770,167h0l3-4c85,393,163,758,227,1053l-4-2c233-50,425-91,559-119,67-14,120-25,156-33,18-4,32-7,41-9s14-3,14-3-4,1-14,3c-9,2-23,5-40,9-36,8-88,19-155,34-134,29-327,72-560,123l-3,1-1-3c-64-296-143-660-228-1053l-1-4,4-1h0c276-60,538-116,770-166l3-1,1,3c67,312,123,576,163,762,20,92,35,166,46,216q7.5,37.5,12,57,1.5,9,3,15a17.5,17.5,0,0,1,1,5Z" fill="#263138"/><path d="M3681,1884c0,2-83,22-186,44s-187,39-188,37c0-2,83-22,186-44S3680,1882,3681,1884Z" fill="#263138"/><path d="M3903,1931c0,2-128,31-287,66-159,34-289,61-289,59s128-31,287-66C3773,1956,3903,1929,3903,1931Z" fill="#263138"/><path d="M3924,2027c0,2-128,31-287,66-159,34-289,61-289,59s128-31,287-66C3794,2052,3924,2025,3924,2027Z" fill="#263138"/><path d="M3944,2122c0,2-128,31-287,66-159,34-289,61-289,59s128-31,287-66C3814,2147,3944,2120,3944,2122Z" fill="#263138"/><path d="M3965,2218c0,2-128,31-287,66-159,34-289,61-289,59s128-31,287-66C3835,2243,3965,2216,3965,2218Z" fill="#263138"/><path d="M3986,2313c0,2-128,31-287,66-159,34-289,61-289,59s128-31,287-66C3856,2338,3986,2311,3986,2313Z" fill="#263138"/><path d="M4006,2409c0,2-128,31-287,66-159,34-289,61-289,59s128-31,287-66C3876,2434,4006,2407,4006,2409Z" fill="#263138"/><path d="M3760,2562c0,2-69,19-154,37-86,18-155,32-156,30,0-2,69-19,154-37C3690,2574,3759,2560,3760,2562Z" fill="#263138"/><path d="M7536,4303l197,506,82-132,114,149,135-129-129-125,119-80Z" fill="#5645ff"/><path d="M7462,4378c1,2-31,24-72,50s-75,45-76,44c-1-2,31-24,72-50S7461,4377,7462,4378Z" fill="#263138"/><path d="M7477,4276c0,1-12-2-32-8-19-6-46-16-74-27-29-12-54-23-72-32s-29-14-29-15,12,3,31,11c21,9,46,19,73,30s52,21,73,29c19,7,30,12,30,13Z" fill="#263138"/><path d="M7536,4047c1,0,4,10,7,28,3,17,7,42,11,69,3,27,5,51,6,69s1,29,0,29c-2,0-7-43-14-97s-13-97-11-97Z" fill="#263138"/><path d="M7809,4160c1,2-36,18-77,44s-74,49-75,47c-1-1,7-7,20-17s31-23,51-36C7770,4171,7808,4158,7809,4160Z" fill="#263138"/><path d="M2953,4390c-1,0,0-22-9-61-5-19-14-42-28-66-15-24-35-49-64-71-28-21-64-39-105-46s-87-6-131,11a241.541,241.541,0,0,0-63,34c-10,7-19,16-28,24-8,9-17,18-24,29-31,41-48,93-48,147a250.912,250.912,0,0,0,48,147c7,11,16,20,24,29,9,8,18,17,28,24a241.541,241.541,0,0,0,63,34c44,17,90,18,131,11s77-25,105-46,49-47,64-71c14-24,24-47,28-66,10-39,8-61,9-61v16c0,5,0,12-2,19-1,8-2,17-5,26-4,20-13,43-27,68a238.665,238.665,0,0,1-64,73,256.369,256.369,0,0,1-107,48c-42,7-89,6-134-11a240.9,240.9,0,0,1-65-35c-10-7-20-16-29-25s-18-19-25-30c-32-42-49-96-50-151,0-55,18-109,50-151,7-11,16-20,25-30,10-9,19-17,29-25a240.9,240.9,0,0,1,65-35c45-17,92-18,134-11a256.369,256.369,0,0,1,107,48,238.665,238.665,0,0,1,64,73c14,25,23,48,27,68,3,10,4,19,5,26,1,8,2,14,2,19v18Z" fill="#263138"/><path d="M2701,4516c-2,0-4-57-4-127s2-127,4-127,4,57,4,127S2703,4516,2701,4516Z" fill="#263138"/><path d="M2827,4390c0,2-57,4-127,4s-127-2-127-4,57-4,127-4S2827,4388,2827,4390Z" fill="#263138"/><path d="M6819,5204c-2,1-176-269-390-603s-385-605-384-607c2-1,176,269,390,603,213,334,385,605,384,606Z" fill="#263138"/><path d="M6490,5388c0,224,181,405,405,405s405-181,405-405-181-405-405-405S6490,5164,6490,5388Z" fill="#fff"/><path d="M6490,5388v-7a141.58,141.58,0,0,1,1-19,70.842,70.842,0,0,1,1-14c0-5,1-11,2-17,2-12,3-27,8-42,7-32,21-69,44-109s57-81,103-116,104-65,171-77c17-2,34-6,52-6,9,0,18-1,27-1s18,1,27,1a124.125,124.125,0,0,1,27,3c9,1,18,3,27,4,18,5,37,8,54,16,18,6,36,15,53,23,9,5,17,10,25,15,9,5,17,11,25,17,17,11,31,26,46,39,14,15,28,30,40,47,24,34,46,71,58,112,13,41,21,85,21,129-1,44-8,88-21,129s-34,79-58,113c-12,17-26,32-40,47-15,14-30,28-46,39-8,6-16,12-25,17s-17,10-25,15c-18,8-35,17-53,23-18,7-36,11-54,16a251.225,251.225,0,0,1-27,4,124.125,124.125,0,0,1-27,3c-9,0-18,1-27,1s-18-1-27-1c-18,0-35-4-52-6-67-12-125-42-171-77a406.348,406.348,0,0,1-103-116c-23-40-37-77-44-109-5-16-6-30-8-42-1-6-2-12-2-17s0-10-1-14c0-8,0-15-1-19v-7a41.839,41.839,0,0,0,1,7c0,5,1,11,1,19,0,4,1,9,1,14,1,5,2,11,3,17,2,12,4,26,9,42,7,31,22,68,45,107a397.934,397.934,0,0,0,102,114c46,34,103,63,169,75,17,2,33,6,51,6,9,0,17,1,26,1s18-1,27-1a124.125,124.125,0,0,0,27-3c9-1,18-3,27-4,18-5,36-8,54-16,18-6,35-15,52-23,8-5,17-10,25-15,9-5,16-11,24-17,16-11,31-25,46-39,14-15,28-30,39-47,24-33,45-70,57-111,13-40,20-83,21-127a450.3,450.3,0,0,0-21-127c-13-41-33-77-57-111-12-17-26-32-39-47-15-13-29-28-46-39-8-6-16-12-24-17s-17-10-25-15c-17-8-34-17-52-23-17-7-36-11-54-16a251.225,251.225,0,0,0-27-4,124.125,124.125,0,0,0-27-3c-9,0-18-1-27-1s-18,1-26,1c-17,0-34,4-51,6-66,12-124,41-169,75-46,34-79,75-102,114s-38,76-45,107c-5,15-7,30-9,42-1,6-2,12-3,17,0,5-1,10-1,14a149.316,149.316,0,0,0-1,19,24.417,24.417,0,0,1-1,7Z" fill="#263138"/><g transform="translate(-10.46 -71)"><path d="M6729,5240v387h347.191V5240Z" fill="#263138"/></g><path d="M6965,5244c-1,0-5-11-13-28a90.812,90.812,0,0,0-20-26,50.715,50.715,0,0,0-16-9,64.477,64.477,0,0,0-20-3c-14,0-28,3-38,9s-16,16-21,24c-8,17-11,29-12,28-1,0,0-12,8-31,4-9,10-20,22-28,11-8,26-11,42-11,8,0,15,2,22,4a78.445,78.445,0,0,1,18,11c10,9,16,20,20,28,8,18,9,30,9,30Z" fill="#263138"/><path d="M5279,5231c-2,0-4-279-4-623s2-623,4-623,4,279,4,623S5281,5231,5279,5231Z" fill="#263138"/><path d="M4866,5397c0,224,181,405,405,405s405-181,405-405-181-405-405-405S4866,5173,4866,5397Z" fill="#fff"/><path d="M4866,5397v-7a141.58,141.58,0,0,1,1-19,70.842,70.842,0,0,1,1-14c0-5,1-11,2-17,2-12,3-27,8-42,7-32,21-69,44-109s57-81,103-116,104-65,171-77c17-2,34-6,52-6,9,0,18-1,27-1s18,1,27,1a124.125,124.125,0,0,1,27,3c9,1,18,3,27,4,18,5,37,8,54,16,18,6,36,15,53,23,9,5,17,10,25,15,9,5,17,11,25,17,17,11,31,26,46,39,14,15,28,30,40,47,24,34,46,71,58,112,13,41,21,85,21,129-1,44-8,88-21,129s-34,79-58,113c-12,17-26,32-40,47-15,14-30,28-46,39-8,6-16,12-25,17s-17,10-25,15c-18,8-35,17-53,23-18,7-36,11-54,16a251.225,251.225,0,0,1-27,4,124.125,124.125,0,0,1-27,3c-9,0-18,1-27,1s-18-1-27-1c-18,0-35-4-52-6-67-12-125-42-171-77a406.348,406.348,0,0,1-103-116c-23-40-37-77-44-109-5-16-6-30-8-42-1-6-2-12-2-17s0-10-1-14c0-8,0-15-1-19v-7a41.839,41.839,0,0,0,1,7c0,5,1,11,1,19,0,4,1,9,1,14,1,5,2,11,3,17,2,12,4,26,8,42,7,31,22,68,45,107a397.934,397.934,0,0,0,102,114c46,34,103,63,169,75,17,2,33,6,51,6,9,0,17,1,26,1s18-1,27-1a124.125,124.125,0,0,0,27-3c9-1,18-3,27-4,18-5,36-8,54-16,18-6,35-15,52-23,8-5,17-10,25-15,9-5,16-11,24-17,16-11,31-25,46-39,14-15,28-30,39-47,24-33,45-70,57-111,13-40,20-83,21-127a450.3,450.3,0,0,0-21-127c-13-41-33-77-57-111-12-17-26-32-39-47-15-13-29-28-46-39-8-6-16-12-24-17s-17-10-25-15c-17-8-34-17-52-23-17-7-36-11-54-16a251.225,251.225,0,0,0-27-4,124.125,124.125,0,0,0-27-3c-9,0-18-1-27-1s-18,1-26,1c-17,0-34,4-51,6-66,12-124,41-169,75-46,34-79,75-102,114s-38,76-45,107c-5,15-7,30-9,42-1,6-2,12-3,17,0,5-1,10-1,14a149.316,149.316,0,0,0-1,19,24.417,24.417,0,0,1-1,7Z" fill="#263138"/><path d="M5271,5216l-176,160v202h137V5457h87v121h127V5376Z" fill="#263138"/><path d="M3712,5218c-2-1,173-277,389-616,217-339,394-613,395-612,2,1-173,277-389,616C3890,4945,3713,5219,3712,5218Z" fill="#263138"/><path d="M4051,5392c0,224-181,405-405,405s-405-181-405-405,181-405,405-405S4051,5168,4051,5392Z" fill="#fff"/><path d="M4051,5392a41.839,41.839,0,0,0-1-7c0-5-1-11-1-19,0-4-1-9-1-14-1-5-2-11-3-17-2-12-4-26-9-42-7-31-22-68-45-107a397.934,397.934,0,0,0-102-114c-46-34-103-63-169-75-17-2-33-6-51-6-9,0-17-1-26-1s-18,1-27,1a124.125,124.125,0,0,0-27,3c-9,1-18,3-27,4-18,5-36,8-54,16-18,6-35,15-52,23-8,5-17,10-25,15-9,5-16,11-24,17-16,11-31,25-46,39-13,15-28,30-39,47-24,33-45,70-57,111-13,40-20,83-21,127a450.3,450.3,0,0,0,21,127c13,41,33,77,57,111,12,17,26,32,39,47,15,14,29,28,46,39,8,6,16,12,24,17s17,10,25,15c17,8,34,17,52,23,17,7,36,11,54,16a251.225,251.225,0,0,0,27,4,124.125,124.125,0,0,0,27,3c9,0,18,1,27,1s18-1,26-1c17,0,34-4,51-6,66-12,124-41,169-75,46-34,79-75,102-114s38-76,45-107c5-15,7-30,9-42,1-6,2-12,3-17,0-5,1-10,1-14a149.316,149.316,0,0,0,1-19,24.417,24.417,0,0,1,1-7v7a141.58,141.58,0,0,1-1,19,70.842,70.842,0,0,1-1,14c0,5-1,11-2,17-2,12-3,27-8,42-7,32-21,69-44,109s-57,81-103,116-104,65-171,77c-17,2-34,6-52,6-9,0-18,1-27,1s-18-1-27-1a124.125,124.125,0,0,1-27-3c-9-1-18-3-27-4-18-5-37-8-54-16-18-6-36-15-53-23-9-5-17-10-25-15-9-5-17-11-25-17-17-11-31-26-46-39-14-15-28-30-40-47-24-34-46-71-58-113-13-41-21-85-21-129,1-44,8-88,21-129s34-79,58-112c12-17,26-32,40-47,15-14,30-28,46-39,8-6,16-12,25-17s17-10,25-15c18-8,35-17,53-23,18-7,36-11,54-16a251.225,251.225,0,0,1,27-4,124.125,124.125,0,0,1,27-3c9,0,18-1,27-1s18,1,27,1c18,0,35,4,52,6,67,12,125,42,171,77a406.348,406.348,0,0,1,103,116c23,40,37,77,44,109,5,16,6,30,8,42,1,6,2,12,2,17s0,10,1,14c0,8,0,15,1,19v2Z" fill="#263138"/><path d="M3803,5603H3485V5181h318Z" fill="#263138"/><path d="M3659,5249c0,2-23,4-52,4s-52-2-52-4,23-4,52-4S3659,5247,3659,5249Z" fill="#445964"/><path d="M3751,5308c0,2-47,4-104,4-58,0-104-2-104-4s47-4,104-4C3705,5304,3751,5306,3751,5308Z" fill="#445964"/><path d="M3751,5344c0,2-47,4-104,4-58,0-104-2-104-4s47-4,104-4C3705,5340,3751,5342,3751,5344Z" fill="#445964"/><path d="M3751,5380c0,2-47,4-104,4-58,0-104-2-104-4s47-4,104-4C3705,5376,3751,5378,3751,5380Z" fill="#445964"/><path d="M3751,5416c0,2-47,4-104,4-58,0-104-2-104-4s47-4,104-4C3705,5412,3751,5414,3751,5416Z" fill="#445964"/><path d="M3751,5452c0,2-47,4-104,4-58,0-104-2-104-4s47-4,104-4C3705,5448,3751,5450,3751,5452Z" fill="#445964"/><path d="M3751,5488c0,2-47,4-104,4-58,0-104-2-104-4s47-4,104-4C3705,5484,3751,5486,3751,5488Z" fill="#445964"/><path d="M3751,5524c0,2-47,4-104,4-58,0-104-2-104-4s47-4,104-4C3705,5520,3751,5522,3751,5524Z" fill="#445964"/><path d="M7141,4001H3557c-182,0-330-148-330-330v-36c0-182,148-330,330-330H7141c182,0,330,148,330,330v36C7471,3853,7323,4001,7141,4001Z" fill="#fff"/><path d="M6531,3298v703h593c194,0,352-157,352-352,0-194-157-352-352-352H6531Z" fill="#5645ff"/><path d="M7083,3630c-1,0,0-13-6-36-6-22-21-55-54-80-17-12-37-23-61-27s-51-3-76,7c-13,4-25,11-37,20-12,8-22,19-31,31-18,24-28,54-28,86,0,31,10,62,28,86a151.8,151.8,0,0,0,31,31c11,9,24,15,37,20,26,10,52,11,76,7s45-15,61-27c33-25,48-58,54-80,6-23,5-36,6-36,0,0,2,13-3,37-5,23-20,57-54,83a152.809,152.809,0,0,1-63,29c-25,4-53,4-80-6-13-5-27-12-39-21a161.7,161.7,0,0,1-32-32c-19-25-29-57-30-90a149.784,149.784,0,0,1,30-90c9-13,20-23,32-32a149.936,149.936,0,0,1,119-27,152.809,152.809,0,0,1,63,29c34,27,49,61,54,83,5,23,3,37,3,37Z" fill="#fff"/><path d="M7221,3838c-1,2-39-24-86-57-46-33-83-61-81-63,1-2,39,24,86,57C7186,3808,7223,3836,7221,3838Z" fill="#fff"/><path d="M6225,3737H3630V3587H6225Z" fill="#ebebeb"/><path d="M7141,4001s8-1,24-2c8,0,18-2,29-4,12-1,25-5,40-9a345.124,345.124,0,0,0,102-51c5-3,9-7,14-10,4-4,9-8,13-12a222.557,222.557,0,0,0,26-27c9-9,16-21,25-32,4-6,7-12,11-18l6-9,5-10c14-26,23-56,29-88a200.235,200.235,0,0,1,4-24c0-8,1-17,1-25a468.448,468.448,0,0,0,0-53c-1-71-28-149-83-211s-140-107-235-109c-95-1-195,0-301,0-843,0-2008,1-3294,1a330.445,330.445,0,0,0-217,82c-59,52-98,125-107,202-2,10-2,19-2,29a281.021,281.021,0,0,0-1,29c0,20,1,39,2,58,4,38,16,75,33,109,34,68,93,123,162,153,34,15,71,23,108,26,18,1,37,1,56,1h705c557,0,1059,1,1481,1,421,0,762,1,998,1,118,0,209,1,271,1h0c-62,0-154,0-271,1-236,0-577,1-998,1-422,0-923,0-1481,1H3591c-19,0-37,0-56-1-38-3-75-11-111-27-70-30-130-87-165-156-17-35-30-73-34-112-2-20-3-39-2-59,0-10,0-20,1-29,1-10,0-20,2-30,9-79,49-154,110-207,60-54,140-84,222-84,1286,0,2451,1,3294,1,105,0,206,0,301,1,96,3,182,48,238,111s83,142,84,214c0,18,1,35,0,53,0,9-1,17-1,26-1,8-3,17-4,25-6,32-16,62-30,89-2,3-3,7-5,10l-6,9c-4,6-7,12-11,18-9,11-16,23-25,32-9,10-17,19-27,27a153.8,153.8,0,0,0-13,12,121.327,121.327,0,0,1-14,10,337.631,337.631,0,0,1-103,51c-15,4-28,8-40,9-12,2-21,3-29,3-16,1-24,1-24,1Z" fill="#263138"/><path d="M5302,3568c-13-15-14-27,15-30,63-6,109-33,116-49s-13-31-30-22c-14,8-41,14-61,17a174.437,174.437,0,0,1-51,1c-15-2-27-5-39-7,0,0-66-14-95-37l-140,150,66,74s31,47,88,41c56-6,132-46,132-46,10-16,101,40,130,61s51,16,50-4c-1-14-89-80-118-100-16-11-48-32-63-50Z" fill="#ffbd9c"/><path d="M5220,3698c0,1-4,3-11,2-7,0-17-3-26-10a46.117,46.117,0,0,1-16-23c-2-7-2-11-1-12,2,0,5,16,22,28,16,12,33,11,33,13Z" fill="#eb996e"/><path d="M5275,3676c0,1-4,2-11,2s-16-3-25-10c-8-7-14-15-16-22s-2-11-1-11c2,0,6,16,21,27,15,12,31,12,31,14Z" fill="#eb996e"/><path d="M5426,2117c6,123,156,292,268,319,59,14,126,8,173,47,80,68,33,208,87,299,33,56,99,83,136,136,62,88,20,221-64,287s-197,78-302,75c-233-6-471-80-639-245-79-77-388-317-280-883l622-34Z" fill="#263138"/><path d="M6266,2998l-884-263c-73-31-129-39-129-39l-299,2c-41,0-79,9-115,24l-805,267c-60,19-101,80-101,150,0,86,62,155,138,155h372a42.046,42.046,0,0,1-2,5l1293,5h0l493,1c76,0,138-70,138-157,0-70-41-132-101-151Z" fill="#5645ff"/><path d="M6089,3093h-8c-6-1-14-2-23-3q-30-4.5-84-9a2646.529,2646.529,0,0,0-277-12,2405.709,2405.709,0,0,0-277,19c-35,4-64,8-83,11-9,1-17,2-23,3a45.306,45.306,0,0,1-8,1,73.473,73.473,0,0,1,8-2c6-1,13-3,22-5,20-4,48-9,83-14a2169.126,2169.126,0,0,1,278-21,2347.347,2347.347,0,0,1,278,14c35,4,64,8,84,11,9,2,17,3,23,4a73.473,73.473,0,0,1,8,2Z" fill="#263138"/><path d="M5881,2878a12.376,12.376,0,0,0-2,3l-8,8c-7,7-17,18-31,30a462.142,462.142,0,0,1-54,43c-22,15-49,31-83,39-33,9-72,8-110-2-39-10-77-30-116-51s-80-45-126-59c-46-15-98-15-144,7-47,21-86,53-129,76-11,6-22,11-33,16-11,4-22,9-34,11-23,7-46,10-68,12-90,6-171-23-226-62-28-20-49-42-68-61s-37-33-53-43c-32-20-55-19-54-20,0,0,5,0,15,2s24,6,41,16a305.809,305.809,0,0,1,54,43c20,18,41,40,69,59,55,38,134,66,223,60,22-2,45-5,67-12,11-3,22-7,33-11,11-5,22-9,32-15,43-23,82-55,130-76,47-23,103-23,149-8,47,14,88,39,127,60s77,41,115,51,75,12,108,3c32-8,59-23,82-38a608.916,608.916,0,0,0,54-42c14-12,25-23,32-29l8-8c2-2,3-3,3-2Z" fill="rgba(255,255,255,0.6)"/><path d="M4507,3092l559,105-65,105h-17Z" fill="rgba(0,0,0,0.2)"/><path d="M6199,2981v9c0,6-1,14-2,24-4,21-12,52-34,84-21,32-57,64-106,81-24,8-51,13-79,12s-56-7-84-15-55-17-81-22a224.6,224.6,0,0,0-77-4c-49,6-91,26-121,49a259.957,259.957,0,0,0-60,65,74.586,74.586,0,0,0-7,12c-2,3-3,7-5,9-3,5-4,8-4,7,0,0,1-3,3-8,1-3,3-6,4-10,2-4,4-8,7-13,11-18,29-44,59-68s72-45,123-52a236.219,236.219,0,0,1,79,4c27,5,54,14,82,22s55,14,82,15,53-3,76-12c47-16,82-47,104-78a211.225,211.225,0,0,0,35-81c4-21,4-33,5-33Z" fill="rgba(255,255,255,0.6)"/><path d="M4036,3277s1011,446,1005,436c-5-10,160-303,160-303l-819-405-347,271Z" fill="#5645ff"/><path d="M4499,3063s8,3,21,9c14,7,33,16,56,26,47,22,111,54,182,89s135,67,181,91c22,11,41,21,55,28,13,7,20,11,20,11s-8-3-21-9c-14-7-33-16-56-26-47-22-111-54-182-89s-135-67-181-91c-22-11-41-21-55-28C4506,3067,4499,3063,4499,3063Z" fill="#263138"/><path d="M4721,3198s-1,12-9,30c-9,18-28,43-60,60a185.376,185.376,0,0,1-56,20c-21,4-44,4-68,1-48-6-98-26-147-49-50-23-97-46-143-57a258.6,258.6,0,0,0-66-8c-21,1-40,4-57,10-34,11-58,29-71,44s-18,26-18,25c0,0,3-11,16-27,12-16,36-35,71-47a206.47,206.47,0,0,1,59-11c22-1,44,2,68,7,47,11,95,33,145,56s98,43,145,49c23,3,46,3,66,0a155.709,155.709,0,0,0,55-19c32-17,51-39,60-57s11-29,12-29Z" fill="rgba(255,255,255,0.6)"/><path d="M5150,3504c0,1-22-2-59-3-18,0-40,1-63,3a598.147,598.147,0,0,0-76,15c-26,8-51,17-73,27s-40,21-55,30c-30,19-47,34-48,33l11-11c7-7,19-16,34-26s34-21,55-32a451.026,451.026,0,0,1,150-43c24-2,46-3,64-2a320.179,320.179,0,0,1,43,5c10,2,16,3,15,4Z" fill="rgba(255,255,255,0.6)"/><path d="M5275,2695c-17,47,8,97,33,140,17,30,34,61,59,85,24,24,57,42,92,41,45-1,86-35,131-32,31,2,58,20,83,37,44,30,90,59,140,78,50,18,106,25,157,10s97-56,109-108l-805-251Z" fill="rgba(0,0,0,0.2)"/><path d="M5279,2682c2-54,5-104,5-104s122-15,127-139-7-410-7-410l-224-107-241,194,38,570c5,82,76,145,158,141C5213,2823,5276,2761,5279,2682Z" fill="#ffbd9c"/><path d="M5383,2253c0,9-7,16-15,16a15.8,15.8,0,0,1-16-16c0-9,7-16,15-16A15.8,15.8,0,0,1,5383,2253Z" fill="#263138"/><path d="M5398,2220c-2,2-14-8-30-8-17-1-29,8-31,6-1-1,1-5,7-9a35.6,35.6,0,0,1,25-7c10,0,19,5,24,9s7,8,6,9Z" fill="#263138"/><path d="M5198,2253c0,9-7,16-15,16a15.8,15.8,0,0,1-16-16c0-9,7-16,15-16A15.8,15.8,0,0,1,5198,2253Z" fill="#263138"/><path d="M5213,2223c-2,2-14-8-30-8-17-1-29,8-31,6-1-1,1-5,7-9a35.6,35.6,0,0,1,25-7c10,0,19,5,24,9s7,8,6,9Z" fill="#263138"/><path d="M5276,2366c0-1,10-3,27-4,4,0,8-1,9-4s-1-8-3-14c-4-11-8-23-12-35-17-50-29-91-27-92s17,39,34,90c4,12,8,24,12,35,2,5,4,11,2,18-1,3-4,6-7,6a19.523,19.523,0,0,1-7,1c-17,0-27,0-27-1Z" fill="#263138"/><path d="M5221,2384c-17-11,47,28,81,27,0,0-20,31-55,17C5211,2413,5221,2384,5221,2384Z" fill="#fff"/><path d="M5284,2578s-81,2-161-53c0,0,38,90,159,83Z" fill="#eb996e"/><path d="M4809,2237c0,107-29,391,167,431l-7-391s190-89,222-276l1,1c12,28,34,88,21,138l178,44,20,19s63-139-59-264c-122-126-226-35-292-42-43-5-194-4-256,255l5,86Z" fill="#263138"/><path d="M4974,2282c-17-10-39-2-52,13-21,23-24,59-8,85s50,40,79,32Z" fill="#ffbd9c"/><path d="M4970,2374c0,1-6,2-14-1-8-2-21-9-26-23-2-7-2-14,1-20s7-10,11-12c8-5,14-5,14-4s-5,3-11,8-12,15-8,26,14,17,21,21C4965,2372,4971,2373,4970,2374Z" fill="#eb996e"/><path d="M4954,2398c-9,2-14,15-8,22,5,7,19,7,23-1,5-8-1-20-10-21Z" fill="#e8505b"/><path d="M5313,3305V3101s-303,63-308,202Z" fill="#ffbd9c"/><path d="M5282,2660c5,62,34,122,79,165s107,68,169,69c45,1,92-10,133,8,36,16,58,50,86,77,66,63,167,86,254,57,37-12,95-39,102-77,5-29-30-58-51-79s-48-34-75-47c-216-101-447-175-685-188l-12,13Z" fill="#263138"/></g></g></svg>